<?xml version="1.0" encoding="UTF-8" standalone="no"?>
<!DOCTYPE svg PUBLIC "-//W3C//DTD SVG 1.1//EN" "http://www.w3.org/Graphics/SVG/1.1/DTD/svg11.dtd">
<svg xmlns="http://www.w3.org/2000/svg" xmlns:xlink="http://www.w3.org/1999/xlink" version="1.1" viewBox="100,100,100,100" width="100" height="100">

	<g>
		<path fill="none" stroke="#fff" stroke-width="2.5" d="M170.34,169.947 L171.662,167.705 L174.979,167.79 L178.597,159.072 L175.966,155.341 L174.282,156.421 L171.836,154.301"/>
		<path fill="none" stroke="#fff" stroke-width="2" d="M142.857,183.547 L135.665,169.262"/>
		<path fill="#fff" d="M131.011,153.637 C131.011,153.637,134.812,143.574,141.942,143.162 C157.753,142.247,155.314,138.284,155.314,138.284 L157.143,126.59 C157.143,126.59,162.152,116.115,169.294,116.115 C176.437,116.115,176.568,116.725,176.568,116.725 L182.551,128.571 C182.551,128.571,185.714,137.152,178.571,131.795 C171.428,126.437,176.611,129.943,176.611,129.943 C176.611,129.943,172.038,127.286,172.038,130.858 C172.038,134.43,172.953,133.537,172.953,133.537 L175.621,143.282 C175.621,143.282,184.952,152.2,170.666,155.771 C151.066,160.671,154.286,158.929,148.571,158.929 C142.857,158.929,157.143,164.286,142.857,167.857 C128.571,171.429,137.261,167.204,137.261,167.204 L136.956,163.654 C136.956,163.654,134.16,162.521,132.23,152.57"/>
		<path fill="none" stroke="#fff" stroke-width="2" d="M153.875,175.174 L155.741,182.055"/>
		<path fill="none" stroke="#fff" stroke-width="3" d="M144.229,184.743 L140.265,179.682"/>
		<path d="M142.661,185.414 C143.17,185.393,144.033,185.393,144.578,185.413 C145.124,185.434,144.708,185.451,143.653,185.451 C142.599,185.451,142.152,185.434,142.661,185.414 Z M141.251,184.601 C140.991,184.231,140.777,183.833,140.777,183.716 C140.777,183.427,140.495,183.191,139.668,182.791 L138.973,182.454 L138.973,181.675 C138.973,180.794,138.765,180.036,138.003,178.147 C136.856,175.299,135.411,172.476,134.105,170.53 C133.654,169.858,133.559,169.63,133.559,169.21 C133.559,168.757,133.604,168.668,133.974,168.387 C135.407,167.299,136.011,166.427,136.267,165.081 C136.456,164.082,136.352,163.865,134.744,161.905 C133.072,159.869,132.869,159.581,132.605,158.884 C132.452,158.479,132.222,157.665,132.094,157.076 C131.795,155.695,131.816,155.741,131.51,155.803 C131.03,155.899,130.227,157.806,129.615,160.306 C129.039,162.656,128.56,163.854,127.777,164.897 C127.444,165.341,126.949,166.084,126.679,166.549 C126.309,167.184,125.735,167.847,124.374,169.207 C122.712,170.869,122.502,171.041,121.83,171.289 C121.427,171.439,120.78,171.777,120.394,172.042 C119.406,172.718,118.472,173.231,118.321,173.181 C118.086,173.103,119.726,171.899,121.348,170.96 C122.796,170.122,123.235,169.82,123.005,169.82 C122.75,169.82,119.49,171.387,119.247,171.627 C118.754,172.111,118.271,172.406,117.479,172.704 C116.373,173.12,116.217,172.998,117.121,172.423 C118.341,171.646,118.181,171.521,116.261,171.747 C115.69,171.815,115.072,171.852,114.889,171.83 C114.602,171.797,114.663,171.755,115.322,171.536 C116.152,171.259,119.15,169.839,119.518,169.549 C119.726,169.385,119.708,169.383,119.292,169.526 C119.044,169.611,118.536,169.819,118.164,169.987 C115.794,171.059,113.961,171.481,113.259,171.117 C113.072,171.021,112.92,170.899,112.92,170.846 C112.92,170.734,113.311,170.614,113.681,170.611 C114.129,170.609,113.953,170.308,113.315,169.984 C112.973,169.812,112.694,169.637,112.694,169.597 C112.694,169.557,113.189,169.594,113.794,169.68 C115.566,169.933,116.119,169.841,119.066,168.81 C120.017,168.477,120.473,168.241,120.166,168.241 C119.847,168.241,118.897,168.495,118.897,168.58 C118.897,168.632,118.732,168.71,118.531,168.753 C118.329,168.796,117.793,168.951,117.338,169.098 C116.091,169.501,114.964,169.545,114,169.228 C113.571,169.086,113.2,168.913,113.176,168.842 C113.123,168.681,114.848,168.523,115.638,168.616 C115.959,168.654,116.191,168.637,116.191,168.574 C116.191,168.515,116.049,168.467,115.876,168.467 C115.431,168.467,114.267,168.15,113.95,167.942 C113.719,167.792,113.705,167.746,113.844,167.607 C113.962,167.489,114.551,167.419,116.08,167.339 C117.222,167.279,118.59,167.154,119.119,167.06 C119.648,166.966,120.716,166.85,121.491,166.802 L122.901,166.715 L120.101,166.629 C118.014,166.565,117.21,166.501,116.943,166.376 C116.559,166.197,116.727,166.197,121.943,166.381 C123.759,166.445,124.005,166.309,122.337,166.162 C121.119,166.055,120.621,165.915,118.221,165.008 C118.105,164.965,118.094,164.928,118.187,164.894 C118.261,164.866,118.806,164.948,119.397,165.076 C119.988,165.204,120.714,165.304,121.01,165.297 C121.493,165.287,121.438,165.263,120.476,165.062 C119.195,164.795,118.927,164.633,119.994,164.771 C120.83,164.879,122.637,164.811,124.311,164.609 C125.666,164.445,125.352,164.327,123.465,164.29 C122.721,164.276,121.731,164.232,121.266,164.192 L120.42,164.119 L121.097,164.041 C121.469,163.997,122.459,163.93,123.296,163.89 C124.71,163.823,126.522,163.586,126.658,163.45 C126.691,163.418,125.63,163.387,124.302,163.38 C122.915,163.374,122.006,163.331,122.168,163.279 C122.323,163.229,123.237,163.181,124.198,163.172 C125.895,163.156,125.965,163.146,126.567,162.828 C126.908,162.647,127.102,162.498,126.998,162.495 C126.837,162.49,126.863,162.357,127.185,161.559 C127.391,161.047,127.792,159.989,128.075,159.208 C128.358,158.427,128.951,157.006,129.393,156.05 C129.835,155.095,130.267,154.052,130.355,153.734 C130.85,151.933,131.545,150.512,132.831,148.673 C134.79,145.871,135.208,145.502,137.64,144.423 C138.342,144.111,139.272,143.69,139.706,143.487 C141.156,142.807,143.231,142.423,147.037,142.13 C150.146,141.891,151.17,141.612,152.578,140.622 C153.753,139.797,155.338,137.78,154.984,137.561 C154.815,137.457,154.972,136.933,155.319,136.447 C155.535,136.144,155.6,135.422,155.411,135.421 C155.261,135.421,155.321,135.168,155.503,135.035 C155.661,134.92,155.655,134.875,155.447,134.611 C155.257,134.369,155.228,134.221,155.288,133.787 C155.327,133.496,155.428,133.232,155.512,133.2 C155.609,133.163,155.639,133.046,155.596,132.872 C155.552,132.696,155.576,132.601,155.667,132.601 C155.776,132.601,155.776,132.566,155.666,132.434 C155.555,132.3,155.567,132.105,155.723,131.467 C155.831,131.028,155.928,130.475,155.94,130.238 C155.951,130.001,156.037,129.688,156.13,129.541 C156.25,129.352,156.27,129.192,156.2,128.992 C156.131,128.796,156.163,128.507,156.308,128.042 C156.54,127.293,156.86,127.016,156.768,127.644 C156.706,128.064,156.88,128.474,157.132,128.506 C157.225,128.517,157.529,128.61,157.808,128.712 C158.305,128.894,158.779,128.893,159.208,128.708 C159.359,128.643,159.4,128.654,159.344,128.745 C159.115,129.116,160.035,129.869,161.171,130.241 C161.585,130.376,162.33,130.705,162.827,130.97 C163.946,131.57,164.751,131.809,167.397,132.327 C168.876,132.617,169.743,132.85,170.383,133.131 C170.88,133.349,171.686,133.675,172.176,133.857 C173.014,134.167,173.078,134.175,173.275,133.997 C173.391,133.892,173.485,133.749,173.485,133.678 C173.485,133.412,172.723,132.83,171.85,132.429 C170.074,131.614,168.483,131.174,165.928,130.792 C164.348,130.556,164.257,130.527,163.24,129.948 C162.091,129.293,161.077,128.846,160.292,128.647 C159.973,128.566,159.653,128.377,159.424,128.134 C158.982,127.665,158.221,127.325,157.4,127.228 C157.063,127.188,156.762,127.116,156.732,127.067 C156.644,126.925,156.928,126.398,157.093,126.398 C157.279,126.398,157.288,126.261,157.112,126.086 C157.012,125.986,157.025,125.937,157.168,125.883 C157.297,125.833,157.335,125.731,157.291,125.554 C157.253,125.403,157.323,125.095,157.46,124.811 C157.59,124.544,157.695,124.214,157.695,124.078 C157.695,123.925,157.781,123.808,157.921,123.772 C158.065,123.734,158.146,123.618,158.146,123.448 C158.146,123.301,158.383,122.891,158.682,122.523 C158.977,122.16,159.319,121.699,159.443,121.499 C159.757,120.994,161.218,119.278,162.07,118.414 C162.595,117.882,162.817,117.725,162.92,117.811 C163.023,117.896,163.258,117.78,163.79,117.382 C164.538,116.822,166.139,115.961,166.559,115.892 C166.689,115.87,166.88,115.923,166.982,116.008 C167.145,116.143,167.169,116.134,167.169,115.936 C167.169,115.747,167.267,115.698,167.761,115.638 C168.732,115.521,170.766,115.46,170.819,115.547 C170.845,115.591,170.74,116.014,170.584,116.487 L170.301,117.346 L170.762,118.517 C171.282,119.837,171.448,120.482,171.452,121.191 C171.454,121.532,171.497,121.665,171.596,121.632 C171.832,121.551,171.76,119.817,171.482,118.898 C171.351,118.464,171.209,117.918,171.167,117.686 C171.102,117.321,171.12,117.263,171.302,117.263 C171.418,117.263,171.573,117.358,171.646,117.475 C171.718,117.591,171.933,117.741,172.123,117.807 C172.423,117.911,172.51,117.891,172.799,117.648 C173.142,117.359,173.56,116.461,173.441,116.268 C173.403,116.207,173.118,116.096,172.807,116.022 C172.315,115.904,172.202,115.911,171.949,116.076 C171.79,116.181,171.575,116.415,171.472,116.595 C171.193,117.085,170.957,117.031,171.066,116.501 C171.114,116.269,171.161,115.965,171.171,115.826 C171.182,115.686,171.223,115.539,171.264,115.498 C171.325,115.437,173.147,115.218,173.541,115.225 C173.603,115.226,174.113,115.286,174.673,115.359 L175.693,115.492 L176.616,115.076 C177.492,114.68,178.673,114.417,178.673,114.618 C178.673,114.669,178.563,114.827,178.429,114.97 C178.216,115.197,178.202,115.269,178.321,115.529 C178.425,115.759,178.427,115.962,178.326,116.411 C178.209,116.933,178.144,117.023,177.713,117.251 C177.144,117.553,176.512,118.165,176.769,118.165 C176.941,118.165,177.469,117.81,177.814,117.463 C177.96,117.315,178.121,117.284,178.481,117.332 C178.822,117.378,179.107,117.33,179.5,117.16 C179.8,117.03,180.092,116.924,180.148,116.924 C180.389,116.924,180.245,117.929,179.913,118.56 C179.727,118.914,179.575,119.321,179.575,119.465 C179.575,119.736,179.104,120.195,178.827,120.195 C178.603,120.195,178.638,120.394,178.875,120.47 C178.986,120.505,179.217,120.8,179.387,121.126 C179.558,121.451,179.76,121.819,179.836,121.943 C179.912,122.067,180.225,122.651,180.532,123.24 C180.838,123.83,181.712,125.136,182.473,126.144 C183.235,127.151,183.985,128.219,184.14,128.515 C184.501,129.206,184.554,130.374,184.282,131.636 C184.075,132.595,183.8,132.994,182.965,133.541 C182.744,133.685,182.358,133.939,182.107,134.105 C181.855,134.27,181.556,134.406,181.443,134.406 C181.329,134.406,181.176,134.487,181.103,134.586 C180.895,134.872,180.218,134.803,179.379,134.411 C178.396,133.951,178.104,133.662,177.408,132.457 C176.753,131.322,176.42,131.002,175.419,130.547 C175.025,130.367,174.599,130.124,174.472,130.006 C174.302,129.847,174.189,129.819,174.04,129.899 C173.738,130.061,173.485,130.03,173.485,129.831 C173.485,129.702,173.55,129.674,173.725,129.73 C173.886,129.781,173.939,129.765,173.887,129.681 C173.73,129.427,173.274,129.552,172.988,129.927 C172.719,130.28,172.713,130.319,172.865,130.745 C172.952,130.99,173.026,131.325,173.029,131.488 C173.033,131.748,173.235,132.197,173.958,133.56 C174.605,134.778,174.644,134.953,174.742,137.056 C174.805,138.414,174.894,139.229,175.009,139.517 C175.188,139.965,176.085,141.349,177.24,142.961 C177.612,143.479,178.139,144.418,178.412,145.048 C178.684,145.677,178.964,146.304,179.032,146.441 C179.211,146.798,179.048,151.13,178.836,151.636 C178.75,151.843,178.374,152.356,178,152.777 C177.424,153.424,177.319,153.608,177.319,153.966 C177.319,154.294,177.37,154.403,177.544,154.449 C177.667,154.481,177.743,154.548,177.713,154.597 C177.655,154.69,177.825,154.839,179.058,155.779 C179.465,156.089,179.799,156.377,179.8,156.418 C179.8,156.46,179.949,156.527,180.131,156.566 C180.313,156.606,180.509,156.699,180.567,156.773 C180.625,156.846,180.705,157.49,180.745,158.204 C180.808,159.326,180.849,159.527,181.052,159.695 C181.284,159.889,181.28,159.896,180.543,160.64 C180.135,161.052,179.801,161.456,179.801,161.537 C179.801,161.618,179.734,161.751,179.652,161.833 C179.481,162.004,177.883,164.963,177.883,165.109 C177.883,165.162,177.712,165.723,177.502,166.357 C177.293,166.99,177.058,167.825,176.98,168.212 C176.766,169.272,176.734,169.296,175.442,169.366 C174.523,169.415,174.268,169.47,173.967,169.685 C173.537,169.992,172.808,170.855,172.808,171.057 C172.808,171.135,172.71,171.384,172.59,171.609 C172.014,172.695,171.568,175.059,171.568,177.025 L171.568,178.467 L172.073,179.465 C172.35,180.014,172.723,180.644,172.901,180.866 C173.213,181.254,174.162,182.901,174.162,183.054 C174.162,183.095,173.073,183.129,171.742,183.129 C169.335,183.129,169.321,183.127,169.05,182.857 C168.791,182.598,168.779,182.522,168.791,181.203 C168.8,180.268,168.763,179.808,168.677,179.779 C168.607,179.755,168.336,179.544,168.074,179.309 L167.599,178.883 L167.731,177.989 C167.804,177.497,167.936,176.947,168.024,176.767 C168.112,176.587,168.184,176.295,168.184,176.119 C168.184,175.942,168.229,175.798,168.283,175.798 C168.426,175.798,168.601,175.011,168.746,173.711 C168.891,172.419,168.86,171.687,168.643,171.293 C168.528,171.085,168.507,170.675,168.557,169.602 C168.624,168.135,168.786,167.434,169.341,166.196 C169.577,165.67,169.649,165.256,169.761,163.772 C169.88,162.196,169.873,161.88,169.71,161.136 C169.609,160.671,169.484,159.542,169.433,158.627 C169.322,156.625,169.293,156.569,168.415,156.672 C167.959,156.726,167.444,156.931,166.494,157.438 C163.922,158.808,162.825,159.244,161.03,159.61 C160.002,159.82,157.384,160.001,155.314,160.005 C154.532,160.007,153.656,160.04,153.369,160.08 C152.874,160.148,152.845,160.171,152.844,160.503 C152.843,161.074,152.081,163.837,151.787,164.339 C151.418,164.967,150.321,165.994,149.556,166.425 C149.21,166.62,148.735,166.967,148.5,167.195 C147.979,167.701,147.181,169.349,147.165,169.952 C147.155,170.326,147.231,170.459,147.766,171.001 C148.846,172.094,149.926,172.765,151.943,173.596 C155.534,175.075,155.668,175.174,155.941,176.556 C156.084,177.276,156.309,177.884,156.766,178.787 L157.394,180.027 L157.446,181.352 L157.497,182.678 L155.794,182.678 L154.091,182.678 L153.873,182.255 C153.754,182.022,153.422,181.484,153.136,181.059 C152.705,180.419,152.621,180.21,152.646,179.842 C152.67,179.486,152.728,179.385,152.933,179.333 C153.199,179.266,153.973,178.41,153.973,178.183 C153.973,178.112,153.899,178.054,153.808,178.054 C153.717,178.054,153.588,177.952,153.522,177.828 C153.431,177.657,153.286,177.602,152.926,177.602 C152.506,177.602,152.358,177.521,151.661,176.916 C150.741,176.116,150.109,175.722,149.407,175.511 C149.129,175.427,148.686,175.233,148.421,175.079 C147.675,174.645,145.963,173.921,144.764,173.531 C144.022,173.289,143.553,173.063,143.282,172.815 L142.886,172.451 L143.153,171.446 C143.498,170.145,143.534,168.338,143.224,167.864 C143.114,167.695,142.971,167.59,142.907,167.629 C142.843,167.669,142.452,167.743,142.038,167.794 C141.349,167.878,141.25,167.925,140.875,168.346 C140.649,168.598,140.431,168.805,140.391,168.805 C140.35,168.805,140.021,169.046,139.661,169.341 C139.3,169.636,138.851,169.96,138.662,170.062 C138.031,170.404,138.066,170.709,139.036,173.26 C139.201,173.694,139.403,174.348,139.485,174.713 C139.583,175.148,139.748,175.498,139.963,175.728 C140.143,175.922,140.411,176.283,140.558,176.531 C140.705,176.779,141.158,177.482,141.563,178.094 C141.968,178.705,142.416,179.399,142.558,179.637 C142.745,179.949,143.074,180.216,143.742,180.597 C144.77,181.184,145.295,181.627,145.69,182.243 C145.835,182.469,146.19,182.944,146.479,183.299 L147.004,183.944 L146.347,184.608 L145.691,185.272 L143.707,185.272 L141.724,185.272 L141.251,184.601 Z M144.894,184.642 C145.31,184.576,145.673,184.115,145.585,183.765 C145.48,183.348,144.922,182.698,144.472,182.47 C143.994,182.227,143.323,182.292,142.59,182.65 C142.255,182.814,142.182,182.914,142.158,183.242 C142.123,183.715,142.522,184.474,142.907,184.666 C143.152,184.788,144.051,184.777,144.894,184.642 Z M172.486,182.286 C172.55,182.221,171.615,180.239,171.48,180.156 C171.354,180.078,170.44,180.312,170.44,180.422 C170.44,180.469,170.649,180.92,170.904,181.424 L171.369,182.339 L171.901,182.339 C172.193,182.339,172.456,182.315,172.486,182.286 Z M156.003,182.114 C156.003,182.052,155.837,181.811,155.634,181.578 C154.96,180.807,154.926,180.699,155.496,181.147 C156.383,181.844,156.342,181.821,156.342,181.624 C156.342,181.526,156.032,181.188,155.654,180.873 C155.125,180.433,154.91,180.318,154.724,180.375 C154.365,180.485,154.365,180.492,154.717,180.955 C155.483,181.961,156.003,182.43,156.003,182.114 Z M141.347,181.942 C141.534,181.845,141.68,181.678,141.68,181.561 C141.68,181.446,141.756,181.289,141.849,181.211 C142.096,181.006,142.057,180.521,141.724,179.69 C141.374,178.816,140.931,178.392,140.37,178.392 C139.893,178.392,139.086,178.785,139.086,179.017 C139.086,179.184,139.157,179.225,140.035,179.574 L140.477,179.75 L140.168,180.072 C139.884,180.369,139.869,180.429,139.977,180.831 C140.097,181.275,140.703,182.114,140.904,182.114 C140.965,182.114,141.164,182.036,141.347,181.942 Z M156.092,179.435 C155.531,178.332,155.417,177.98,155.36,177.178 C155.292,176.219,155.067,175.838,154.404,175.564 C154.104,175.439,154.027,175.458,153.6,175.758 C153.115,176.099,152.96,176.408,153.168,176.617 C153.234,176.682,153.653,176.791,154.1,176.859 C154.548,176.927,154.931,177.034,154.952,177.097 C154.973,177.16,154.83,177.387,154.634,177.601 L154.279,177.99 L154.549,178.499 C154.722,178.826,154.981,179.1,155.27,179.262 C155.707,179.508,156.179,179.607,156.092,179.435 Z M139.763,177.358 C140.308,177.306,140.286,177.014,139.726,176.876 C139.387,176.792,139.274,176.804,139.194,176.932 C139.108,177.07,139.055,177.072,138.848,176.944 C138.644,176.817,138.589,176.817,138.508,176.944 C138.391,177.128,138.39,177.172,138.495,177.337 C138.596,177.495,139.099,177.587,139.255,177.476 C139.318,177.432,139.546,177.378,139.763,177.358 Z M139.606,176.059 C139.86,175.962,139.726,175.75,139.358,175.67 C138.342,175.45,137.82,175.614,138.004,176.094 C138.063,176.248,138.184,176.265,138.757,176.2 C139.132,176.158,139.514,176.095,139.606,176.059 Z M152.571,175.795 C152.856,175.687,152.863,175.666,152.691,175.476 C152.413,175.169,152.458,174.973,152.792,175.036 C153.105,175.096,153.275,174.941,153.094,174.761 C152.956,174.623,152.216,174.834,151.915,175.096 C151.686,175.297,151.66,175.582,151.853,175.775 C152.018,175.941,152.176,175.945,152.571,175.795 Z M139.142,174.614 C139.142,174.441,139.023,174.357,138.635,174.256 C137.872,174.058,137.175,174.07,137.093,174.283 C136.954,174.647,137.587,174.892,138.578,174.858 C139.061,174.842,139.142,174.807,139.142,174.614 Z M138.169,173.584 C138.953,173.428,138.356,172.824,137.237,172.642 C136.564,172.532,136.153,172.593,136.153,172.803 C136.153,173.047,136.703,173.462,137.138,173.547 C137.733,173.662,137.774,173.663,138.169,173.584 Z M138.163,171.886 C138.143,171.782,137.893,171.559,137.607,171.392 C136.999,171.034,136.541,170.867,136.649,171.041 C136.693,171.113,136.592,171.155,136.387,171.149 C136.203,171.144,135.923,171.225,135.765,171.329 C135.2,171.699,135.438,171.882,136.604,171.973 C138.177,172.095,138.203,172.094,138.163,171.886 Z M120.6,170.614 C121.261,170.244,122.074,169.834,122.408,169.702 C123.107,169.427,123.896,168.863,124.098,168.495 C124.31,168.107,124.167,168.094,123.669,168.455 C123.42,168.635,122.858,168.933,122.419,169.117 C121.36,169.563,118.884,171.286,119.303,171.286 C119.356,171.286,119.939,170.984,120.6,170.614 Z M136.153,170.776 C136.246,170.698,136.5,170.598,136.717,170.552 C137.302,170.43,137.732,170.178,137.732,169.958 C137.732,169.698,137.101,169.209,136.238,168.801 C135.52,168.461,135.295,168.414,134.978,168.535 C134.488,168.724,134.931,169.243,136.007,169.74 L136.548,169.989 L135.817,170.024 C135.133,170.056,134.687,170.248,134.687,170.512 C134.687,170.563,134.874,170.7,135.101,170.817 C135.527,171.035,135.857,171.022,136.153,170.776 Z M171.212,169.809 C171.443,169.729,171.568,169.61,171.568,169.471 C171.568,169.353,171.517,169.256,171.455,169.256 C171.251,169.256,171.336,168.639,171.68,167.621 C172.004,166.665,172.092,166.211,171.956,166.211 C171.921,166.211,171.665,166.268,171.387,166.339 C170.986,166.439,170.818,166.562,170.573,166.931 C170.036,167.739,169.876,168.208,169.876,168.969 C169.876,169.652,169.892,169.695,170.186,169.802 C170.603,169.954,170.793,169.956,171.212,169.809 Z M173.09,169.286 C173.32,168.91,174.082,168.128,174.218,168.128 C174.295,168.128,174.597,168.234,174.889,168.363 C175.402,168.59,175.425,168.591,175.575,168.392 C175.66,168.278,175.764,167.956,175.806,167.677 C176.01,166.304,176.021,166.271,176.336,166.12 C176.756,165.919,176.74,165.523,176.296,165.15 C176.105,164.989,175.902,164.858,175.845,164.858 C175.787,164.858,175.741,164.81,175.741,164.751 C175.741,164.693,176.025,164.654,176.374,164.667 C176.865,164.684,177.035,164.645,177.132,164.495 C177.235,164.336,177.188,164.229,176.872,163.903 L176.486,163.504 L176.945,163.504 C177.641,163.504,177.752,163.272,177.262,162.841 C176.874,162.501,176.496,162.403,176.236,162.576 C175.889,162.805,175.451,164.007,175.18,165.474 C174.936,166.794,174.831,166.918,173.803,167.099 C173.161,167.212,173.081,167.204,172.863,166.999 C172.732,166.876,172.566,166.775,172.494,166.775 C172.269,166.775,172.042,167.369,171.914,168.292 C171.804,169.083,171.812,169.203,171.986,169.395 C172.137,169.562,172.27,169.595,172.579,169.54 C172.798,169.502,173.028,169.387,173.09,169.286 Z M174.895,167.113 C174.856,167.051,174.879,167.001,174.944,167.001 C175.01,167.001,175.064,167.051,175.064,167.113 C175.064,167.175,175.041,167.226,175.014,167.226 C174.987,167.226,174.933,167.175,174.895,167.113 Z M139.615,168.57 C139.901,168.463,140.12,168.114,140.008,167.941 C139.966,167.876,139.68,167.712,139.373,167.577 C139.066,167.442,138.439,167.021,137.98,166.642 C137.09,165.905,137.13,165.908,136.77,166.572 C136.508,167.054,136.563,167.371,136.944,167.588 C137.505,167.907,137.373,168.055,136.604,167.968 C135.757,167.872,135.716,168.039,136.52,168.309 C137.899,168.77,138.859,168.851,139.615,168.57 Z M118.108,167.79 C118.108,167.724,117.77,167.684,117.29,167.692 C116.634,167.704,116.55,167.723,116.867,167.79 C117.467,167.917,118.108,167.917,118.108,167.79 Z M116.162,167.597 C115.992,167.571,115.713,167.571,115.542,167.597 C115.371,167.622,115.511,167.644,115.852,167.644 C116.193,167.644,116.333,167.622,116.162,167.597 Z M142.74,166.814 C143.201,166.594,143.224,166.539,142.949,166.302 C142.686,166.077,142.523,166.024,141.281,165.765 C140.7,165.644,139.78,165.36,139.236,165.135 C138.611,164.877,138.066,164.726,137.751,164.726 C137.155,164.726,136.951,164.878,137.179,165.152 C137.359,165.369,139.264,166.324,139.516,166.324 C139.607,166.324,139.738,166.401,139.806,166.495 C139.991,166.746,141.32,167.107,141.865,167.054 C142.123,167.029,142.516,166.921,142.74,166.814 Z M173.887,165.873 C173.912,165.873,174.064,165.612,174.226,165.293 C174.387,164.974,174.712,164.429,174.946,164.081 C175.587,163.13,176.101,161.687,176.12,160.788 C176.139,159.867,176.003,159.67,175.348,159.67 L174.87,159.67 L174.802,160.262 C174.76,160.622,174.554,161.207,174.275,161.756 C173.816,162.662,173.552,163.636,173.416,164.935 C173.331,165.738,173.406,166.04,173.664,165.941 C173.762,165.903,173.862,165.873,173.887,165.873 Z M144.89,165.128 C145.115,164.903,145.514,164.131,145.514,163.922 C145.514,163.761,145.224,163.597,144.443,163.317 C144.195,163.228,143.11,163.055,142.033,162.933 C140.955,162.811,139.392,162.585,138.557,162.431 C136.804,162.107,136.266,162.079,136.266,162.31 C136.266,162.398,136.469,162.725,136.716,163.038 C137.044,163.453,137.281,163.637,137.59,163.715 C140.545,164.469,141.706,164.693,143.315,164.818 C143.811,164.857,144.154,164.911,144.076,164.939 C143.999,164.967,143.935,165.061,143.935,165.149 C143.935,165.374,144.66,165.358,144.89,165.128 Z M145.739,163.138 C145.737,162.955,144.47,162.115,143.567,161.697 C142.685,161.289,142.803,161.282,144.127,161.664 L145.176,161.967 L145.412,161.715 C145.541,161.576,145.619,161.391,145.585,161.303 C145.475,161.015,144.153,160.127,143.558,159.942 C143.154,159.816,142.254,159.735,140.608,159.675 L138.24,159.588 L137.176,159.168 C136.324,158.832,136.02,158.762,135.653,158.815 C135.286,158.869,135.052,158.815,134.482,158.544 L133.77,158.206 L133.806,158.512 C133.835,158.766,134.017,158.922,134.856,159.415 C135.415,159.742,136.249,160.127,136.71,160.27 C137.878,160.63,137.874,160.796,136.698,160.805 C135.692,160.814,135.215,160.918,135.468,161.074 C135.547,161.123,136.787,161.259,138.223,161.377 C142.03,161.687,143.207,161.956,145.063,162.939 C145.799,163.33,145.74,163.312,145.739,163.138 Z M178.543,161.981 C178.66,161.871,178.666,161.785,178.568,161.601 C178.378,161.247,177.853,161.023,177.212,161.023 C176.691,161.023,176.643,161.045,176.643,161.285 C176.643,161.993,177.998,162.49,178.543,161.981 Z M145.514,159.749 C145.514,158.816,145.513,158.812,145.091,158.401 C144.389,157.717,143.579,157.429,141.192,157.012 C138.752,156.587,137.976,156.371,136.274,155.64 C134.724,154.976,133.197,154.458,133.1,154.566 C133.059,154.613,132.99,154.795,132.949,154.971 C132.885,155.241,132.936,155.351,133.268,155.664 C133.485,155.869,133.931,156.193,134.259,156.384 L134.856,156.732 L134.039,156.735 C132.415,156.74,133.239,157.132,136.266,157.795 C137.538,158.073,138.959,158.332,139.424,158.369 C140.9,158.488,142.056,158.678,142.665,158.903 C142.989,159.023,143.699,159.472,144.243,159.903 C144.786,160.333,145.294,160.685,145.372,160.685 C145.475,160.685,145.514,160.426,145.514,159.749 Z M179.237,160.589 C179.237,160.325,178.231,159.769,177.389,159.568 C177.086,159.496,176.809,159.466,176.774,159.501 C176.64,159.635,177.162,160.386,177.487,160.528 C177.863,160.692,179.237,160.74,179.237,160.589 Z M152.097,159.613 C152.061,159.52,152.012,159.444,151.987,159.444 C151.963,159.444,151.943,159.52,151.943,159.613 C151.943,159.706,151.992,159.783,152.052,159.783 C152.112,159.783,152.132,159.706,152.097,159.613 Z M179.736,159.228 C179.924,159.02,179.921,159.005,179.669,158.865 C179.511,158.778,179.002,158.718,178.398,158.715 L177.389,158.711 L177.399,159.021 C177.405,159.192,177.415,159.357,177.421,159.388 C177.427,159.419,177.907,159.444,178.486,159.444 C179.382,159.444,179.57,159.412,179.736,159.228 Z M177.477,158.141 C179.395,157.774,179.462,157.752,179.462,157.477 C179.462,156.994,179.097,156.809,178.292,156.885 C176.959,157.009,175.741,157.594,175.741,158.11 C175.741,158.374,176.217,158.383,177.477,158.141 Z M145.966,157.74 C145.966,157.672,146.037,157.643,146.124,157.676 C146.307,157.747,146.581,157.471,146.693,157.103 C146.81,156.719,146.348,155.898,145.571,155.108 C144.854,154.38,143.721,153.727,141.962,153.03 C141.465,152.834,140.653,152.445,140.157,152.167 C139.661,151.889,138.747,151.399,138.127,151.077 C137.042,150.515,136.959,150.491,135.925,150.445 C135.103,150.408,134.747,150.44,134.411,150.581 C133.827,150.825,133.964,150.94,135.178,151.226 C135.958,151.41,136.397,151.605,137.366,152.198 C139.129,153.277,139.489,153.444,140.552,153.677 L141.511,153.887 L140.839,153.975 C140.018,154.082,138.068,153.976,136.999,153.767 C136.128,153.596,134.918,153.12,133.07,152.219 C131.726,151.564,131.684,151.567,131.428,152.338 C131.339,152.604,131.334,152.744,131.414,152.77 C131.478,152.792,131.497,152.863,131.456,152.93 C131.413,152.999,131.434,153.017,131.507,152.973 C131.575,152.931,132.336,153.249,133.198,153.681 C135.611,154.889,136.015,155.029,137.499,155.169 C138.216,155.237,139.066,155.262,139.387,155.225 C140.063,155.148,141.264,155.359,142.422,155.758 C142.991,155.955,143.572,156.296,144.452,156.949 C145.643,157.835,145.966,158.003,145.966,157.74 Z M149.091,157.527 C149.123,157.403,149.195,157.301,149.249,157.301 C149.44,157.301,149.335,157.016,148.92,156.408 C148.591,155.925,148.278,155.658,147.438,155.143 C146.465,154.546,145.804,154.267,145.673,154.398 C145.645,154.426,145.958,154.812,146.368,155.255 C146.845,155.77,147.202,156.061,147.358,156.062 C147.51,156.063,147.551,156.096,147.467,156.149 C147.291,156.261,147.98,157.392,148.35,157.597 C148.738,157.812,149.023,157.785,149.091,157.527 Z M175.787,157.321 C176.102,157.084,176.767,156.745,177.263,156.569 C177.759,156.392,178.189,156.228,178.219,156.204 C178.323,156.119,177.934,155.951,177.63,155.949 C177.363,155.948,177.319,155.902,177.319,155.621 C177.319,155.035,177.032,155.116,176.106,155.962 C175.626,156.401,175.044,156.894,174.813,157.059 C174.379,157.367,174.282,157.578,174.528,157.678 C174.889,157.823,175.257,157.719,175.787,157.321 Z M151.02,157.178 C150.774,156.471,150.203,155.797,149.478,155.356 C149.083,155.116,148.732,154.949,148.697,154.983 C148.662,155.018,149.048,155.472,149.555,155.991 C150.062,156.51,150.477,156.983,150.477,157.041 C150.477,157.211,150.933,157.65,151.041,157.583 C151.097,157.549,151.088,157.371,151.02,157.178 Z M153.346,157.167 C153.494,156.873,153.502,156.736,153.396,156.406 C152.984,155.133,151.785,153.546,150.66,152.783 C150.245,152.503,149.337,152.142,147.633,151.581 C146.272,151.132,144.485,150.445,143.58,150.022 C142.69,149.606,141.39,149.077,140.692,148.848 C139.994,148.618,139.461,148.39,139.508,148.341 C139.555,148.292,138.857,148.278,137.958,148.309 C136.772,148.351,136.076,148.434,135.425,148.612 C134.405,148.891,132.77,149.501,132.77,149.603 C132.77,149.64,132.847,149.756,132.942,149.86 C133.102,150.038,133.182,150.03,134.154,149.742 C136.667,148.997,137.675,149.174,140.89,150.929 C141.749,151.398,143.543,152.21,145.007,152.793 C147.794,153.902,149.744,154.805,150.643,155.405 C150.952,155.61,151.45,156.107,151.75,156.509 C152.239,157.165,152.655,157.491,153.034,157.518 C153.107,157.523,153.248,157.365,153.346,157.167 Z M154.876,157.074 C154.876,157.034,155.022,157.023,155.2,157.049 C155.947,157.159,156.12,156.062,155.539,154.901 C155.003,153.83,153.759,151.796,153.366,151.346 C152.905,150.821,151.688,150.032,150.05,149.2 C148.637,148.481,147.929,148.245,145.796,147.784 C145.052,147.624,143.547,147.212,142.453,146.87 C140.487,146.256,140.446,146.248,139.056,146.248 C137.384,146.248,135.987,146.552,134.716,147.193 C133.447,147.832,133.493,147.947,134.899,147.654 C135.356,147.558,135.751,147.5,135.775,147.524 C135.799,147.548,135.424,147.681,134.943,147.819 C133.732,148.166,133.764,148.153,133.831,148.261 C133.908,148.386,134.654,148.262,136.21,147.865 C137.349,147.574,137.62,147.549,139.537,147.549 C141.582,147.549,141.657,147.558,143.3,147.977 C144.419,148.262,145.544,148.651,146.684,149.146 C147.622,149.554,148.585,149.959,148.822,150.044 C150.464,150.639,152.773,152.207,153.175,153.002 C153.452,153.549,154.382,156.441,154.483,157.07 C154.558,157.53,154.577,157.554,154.72,157.358 C154.806,157.241,154.876,157.113,154.876,157.074 Z M157.965,157.01 C158.112,156.627,158.026,155.356,157.81,154.714 C157.471,153.707,157.157,153.206,155.829,151.549 C155.454,151.08,154.975,150.394,154.765,150.024 C154.555,149.653,153.903,148.843,153.316,148.222 C152.464,147.322,152.065,146.996,151.335,146.603 C149.951,145.858,148.705,145.414,146.413,144.845 C145.267,144.562,143.949,144.218,143.484,144.082 C142.885,143.907,142.247,143.823,141.298,143.794 C139.681,143.745,139.351,143.907,140.673,144.1 C141.184,144.174,142.393,144.464,143.36,144.742 C144.328,145.021,145.729,145.395,146.473,145.574 C148.984,146.178,151.28,147.103,152.048,147.819 C152.251,148.01,152.459,148.166,152.509,148.166 C152.905,148.166,155.019,151.411,155.411,152.621 C155.552,153.055,155.793,153.639,155.946,153.918 C156.508,154.942,156.792,155.564,156.908,156.032 C156.979,156.319,157.092,156.512,157.189,156.512 C157.278,156.512,157.43,156.664,157.526,156.85 C157.72,157.226,157.862,157.278,157.965,157.01 Z M174.252,157.03 C174.419,156.942,175,156.416,175.543,155.86 C176.596,154.781,176.787,154.369,176.23,154.369 C176,154.369,175.647,154.653,174.692,155.607 C173.642,156.657,173.475,156.872,173.596,157.017 C173.772,157.229,173.866,157.231,174.252,157.03 Z M159.615,156.903 C159.719,156.779,159.741,156.443,159.696,155.685 C159.618,154.387,159.238,153.204,158.47,151.873 C158.111,151.25,157.643,150.133,157.171,148.772 C156.154,145.839,155.785,145.166,154.444,143.799 C153.351,142.684,152.712,142.257,151.94,142.126 C151.553,142.06,151.559,142.07,152.414,142.897 C153.51,143.958,154.454,145.089,154.316,145.174 C153.989,145.376,150.997,144.511,149.857,143.884 C148.969,143.397,147.598,143.189,144.825,143.121 C143.244,143.082,142.315,143.103,142.179,143.178 C141.945,143.31,141.725,143.271,144.877,143.651 C146.176,143.807,147.032,143.972,147.583,144.173 C148.027,144.335,149.482,144.808,150.815,145.224 C152.149,145.64,153.418,146.073,153.635,146.188 C154.569,146.679,156.062,148.385,156.451,149.406 C156.534,149.623,156.931,150.512,157.332,151.38 C158.271,153.409,158.444,153.922,158.719,155.497 C158.844,156.21,158.967,156.857,158.994,156.935 C159.06,157.131,159.443,157.111,159.615,156.903 Z M173.684,155.869 C173.949,155.654,174.235,155.343,174.321,155.178 C174.407,155.012,174.66,154.605,174.883,154.273 C175.417,153.48,175.418,153.241,174.889,153.241 C174.251,153.241,173.886,153.513,173.185,154.508 C172.825,155.021,172.407,155.555,172.257,155.695 C172.106,155.835,172.004,155.962,172.029,155.977 C172.855,156.465,172.957,156.458,173.684,155.869 Z M160.923,155.99 C161.161,155.042,160.634,152.539,159.999,151.604 C159.494,150.86,159.387,150.548,159.046,148.82 C158.378,145.437,158.185,145.046,156.292,143.235 C154.806,141.814,153.53,140.877,153.235,140.99 C152.984,141.087,153.047,141.194,153.635,141.679 C153.914,141.909,154.678,142.595,155.333,143.203 C156.97,144.723,157.409,145.601,157.925,148.391 C158.118,149.437,158.325,150.062,158.995,151.622 C159.452,152.685,160.019,154.169,160.255,154.92 C160.491,155.671,160.721,156.285,160.766,156.286 C160.812,156.286,160.882,156.153,160.923,155.99 Z M171.793,155.182 C172.26,154.832,172.375,154.684,173.005,153.613 C173.269,153.166,173.662,152.658,173.879,152.485 C174.18,152.245,174.274,152.085,174.274,151.815 C174.274,151.382,174.064,151.28,173.486,151.436 C173.101,151.54,172.949,151.714,171.936,153.214 C171.318,154.128,170.755,155.047,170.684,155.255 L170.556,155.634 L170.977,155.556 C171.209,155.513,171.576,155.345,171.793,155.182 Z M162.494,154.464 C162.451,154.02,162.317,153.348,162.198,152.97 C162.031,152.438,161.997,152.103,162.05,151.493 C162.184,149.949,161.822,148.058,160.886,145.402 C160.378,143.963,160.354,143.922,159.568,143.143 C158.751,142.336,157.924,141.75,156.248,140.792 C155.287,140.242,154.434,139.885,154.331,139.988 C154.229,140.09,154.787,140.613,156.001,141.554 C157.57,142.77,158.515,143.666,159.102,144.495 C160.073,145.864,160.408,146.774,160.688,148.795 C160.827,149.806,161.878,153.753,162.374,155.13 C162.509,155.505,162.566,155.19,162.494,154.464 Z M170.451,154.26 C170.947,153.823,171.135,153.559,171.329,153.026 C171.48,152.612,171.861,151.99,172.31,151.425 C173.164,150.349,173.299,150.123,173.215,149.905 C173.088,149.574,172.71,149.769,171.943,150.562 C171.099,151.437,170.101,152.728,170.101,152.949 C170.101,153.022,169.925,153.359,169.71,153.697 C168.945,154.898,169.365,155.217,170.451,154.26 Z M168.592,153.26 C169.088,152.939,169.391,152.627,169.766,152.048 C170.043,151.618,170.655,150.81,171.126,150.252 C172.334,148.818,172.48,148.501,171.934,148.508 C171.492,148.514,171.243,148.68,170.276,149.612 C169.353,150.501,168.473,151.669,167.948,152.702 C167.382,153.814,167.533,153.945,168.592,153.26 Z M176.246,152.332 C176.142,151.907,175.917,151.341,175.746,151.075 C175.303,150.386,174.509,149.519,174.321,149.519 C174.233,149.519,174.162,149.537,174.162,149.56 C174.162,149.681,176.018,153.218,176.175,153.395 C176.355,153.599,176.362,153.598,176.398,153.355 C176.419,153.218,176.351,152.757,176.246,152.332 Z M167.124,152.74 C167.278,152.403,167.455,151.806,167.517,151.415 C167.582,151.005,167.759,150.491,167.936,150.201 C168.217,149.743,168.361,149.646,169.579,149.105 C171.014,148.468,171.229,148.336,171.229,148.095 C171.229,147.883,170.86,147.9,169.97,148.155 C168.243,148.649,167.464,149.19,167.007,150.213 C166.049,152.36,165.91,153.354,166.567,153.354 C166.792,153.354,166.895,153.24,167.124,152.74 Z M164.956,152.536 C165.404,151.949,165.662,151.217,165.742,150.309 C165.83,149.32,166.314,148.233,166.894,147.724 C167.262,147.4,167.474,147.348,169.002,147.199 C169.42,147.158,169.763,147.082,169.763,147.03 C169.763,146.868,170.53,146.782,170.881,146.905 C171.065,146.969,171.555,147.281,171.969,147.599 C172.384,147.916,172.748,148.151,172.778,148.12 C172.809,148.09,172.723,147.835,172.587,147.555 C172.306,146.974,171.22,146.126,170.316,145.783 C169.796,145.585,169.721,145.584,168.611,145.766 L167.451,145.956 L166.767,146.638 C166.391,147.013,165.995,147.447,165.888,147.602 C165.697,147.877,165.694,147.862,165.75,146.955 C165.812,145.964,166.01,145.431,166.393,145.226 C166.692,145.066,169.657,144.859,170.306,144.953 C170.691,145.009,170.767,145.055,170.669,145.172 C170.524,145.347,170.473,145.323,172.228,145.919 C172.933,146.158,173.727,146.481,173.993,146.638 C174.837,147.132,175.763,148.007,176.526,149.031 C176.933,149.577,177.347,150.04,177.446,150.059 C177.736,150.115,177.945,149.205,177.768,148.655 C177.579,148.065,176.487,146.56,175.787,145.924 C174.729,144.963,173.031,144.324,170.608,143.973 C169.762,143.851,169.611,143.857,169.254,144.027 C169.033,144.132,168.131,144.324,167.25,144.454 C165.801,144.667,165.622,144.718,165.397,144.986 C165.017,145.438,164.913,146.178,164.913,148.439 C164.913,150.262,164.887,150.566,164.687,151.017 C164.563,151.298,164.428,151.837,164.389,152.215 C164.328,152.799,164.344,152.903,164.497,152.903 C164.595,152.903,164.802,152.738,164.956,152.536 Z M164.249,151.251 C164.314,150.899,164.332,150.302,164.289,149.924 C164.203,149.166,163.462,146.88,163.122,146.322 C163.003,146.126,162.794,145.56,162.658,145.064 C162.335,143.893,161.901,143.086,160.974,141.937 C160.196,140.972,159.323,140.28,158.541,140.009 C158.247,139.907,158.1,139.792,158.12,139.68 C158.144,139.543,157.821,139.444,156.561,139.202 C155.687,139.034,154.949,138.919,154.923,138.945 C154.826,139.042,156.429,140.041,157.962,140.839 C160.322,142.067,161.322,143.12,161.926,145.008 C162.035,145.349,162.327,146.136,162.574,146.756 C163.012,147.857,163.026,147.932,163.137,149.914 C163.231,151.58,163.293,152.025,163.481,152.395 L163.71,152.846 L163.92,152.369 C164.036,152.106,164.184,151.603,164.249,151.251 Z M176.69,150.8 C176.337,149.58,175.534,148.537,174.142,147.488 C173.281,146.839,172.921,146.675,172.921,146.933 C172.921,146.999,173.495,147.697,174.197,148.484 C174.899,149.27,175.767,150.285,176.125,150.739 C176.484,151.193,176.801,151.541,176.83,151.513 C176.858,151.484,176.796,151.163,176.69,150.8 Z M133.672,148.391 C133.672,148.329,133.621,148.278,133.559,148.278 C133.497,148.278,133.447,148.329,133.447,148.391 C133.447,148.453,133.497,148.504,133.559,148.504 C133.621,148.504,133.672,148.453,133.672,148.391 Z M147.996,146.937 C147.996,146.802,145.542,145.807,143.935,145.291 C142.451,144.814,140.025,144.521,139.428,144.746 C139.253,144.812,139.049,144.829,138.976,144.784 C138.811,144.682,137.046,145.17,136.5,145.469 L136.097,145.69 L137.225,145.626 C138.769,145.538,140.188,145.701,142.187,146.196 C143.118,146.427,144.387,146.706,145.007,146.817 C146.208,147.033,147.996,147.104,147.996,146.937 Z M177.992,146.22 C177.986,145.84,177.777,145.528,176.975,144.708 C175.095,142.784,173.846,142.306,168.917,141.625 C166.782,141.33,165.801,141.115,165.212,140.814 C164.956,140.684,164.035,140.071,163.166,139.453 C162.297,138.835,161.201,138.135,160.73,137.898 C159.447,137.252,157.834,136.9,156.889,137.059 C156.321,137.155,156.382,137.2,157.743,137.68 C159.364,138.252,160.266,138.718,162.064,139.914 C163.01,140.542,164.086,141.209,164.456,141.396 C165.492,141.919,166.975,142.311,168.093,142.358 C168.633,142.381,169.166,142.446,169.277,142.503 C169.389,142.561,169.659,142.641,169.876,142.681 C170.914,142.875,173.297,143.61,174.105,143.985 C174.601,144.216,175.312,144.658,175.684,144.969 C177.474,146.461,178.001,146.746,177.992,146.22 Z M164.821,144.214 C164.85,144.126,166.593,143.799,167.187,143.771 C167.227,143.769,167.205,143.649,167.137,143.506 C167.048,143.317,166.918,143.244,166.668,143.242 C166.137,143.238,164.841,142.807,163.842,142.301 C163.224,141.988,162.584,141.522,161.812,140.821 C159.783,138.982,158.512,138.177,157.13,137.854 C156.038,137.6,155.09,137.972,156.144,138.242 C156.774,138.403,158.324,139.015,158.823,139.3 C159.631,139.761,160.515,140.521,162.125,142.135 C164.177,144.194,164.694,144.593,164.821,144.214 Z M164.06,143.301 C163.822,143.048,163.792,142.98,163.955,143.061 C164.079,143.123,164.458,143.239,164.798,143.319 C165.286,143.433,165.369,143.482,165.193,143.551 C164.73,143.732,164.395,143.658,164.06,143.301 Z M152.451,143.707 C152.265,143.554,151.774,143.196,151.361,142.91 L150.61,142.391 L148.901,142.474 C147.96,142.519,147.232,142.594,147.283,142.64 C147.334,142.686,148.111,142.86,149.011,143.028 C149.91,143.195,151.077,143.476,151.605,143.652 C152.795,144.048,152.872,144.053,152.451,143.707 Z M175.167,141.556 C174.612,140.887,172.508,139.991,169.801,139.27 C168.88,139.024,167.793,138.698,167.385,138.545 C166.492,138.208,163.541,136.921,162.601,136.458 C161.216,135.775,158.117,134.993,157.467,135.163 C157.065,135.268,157.263,135.572,157.839,135.735 C158.135,135.818,158.346,135.935,158.309,135.995 C158.272,136.055,158.284,136.092,158.335,136.079 C158.629,136.002,161.355,137.063,163.447,138.069 C165.679,139.142,168.44,140.176,169.763,140.433 C169.98,140.476,170.306,140.568,170.487,140.638 C170.921,140.806,174.705,141.706,175.049,141.723 C175.283,141.735,175.298,141.714,175.167,141.556 Z M173.932,139.998 C173.841,139.91,173.446,139.677,173.054,139.479 C172.662,139.282,172.365,139.097,172.394,139.068 C172.423,139.039,172.762,139.174,173.147,139.368 C173.531,139.563,173.875,139.692,173.911,139.657 C173.947,139.621,173.84,139.45,173.674,139.277 C173.508,139.103,173.371,138.913,173.371,138.855 C173.369,138.714,171.212,137.584,169.932,137.053 C168.631,136.515,167.523,136.164,166.041,135.825 C164.741,135.527,163.892,135.226,162.418,134.542 C160.976,133.873,159.742,133.472,159.36,133.548 C158.978,133.625,158.666,133.903,158.741,134.099 C158.77,134.175,159.443,134.437,160.235,134.682 C161.028,134.927,161.838,135.237,162.036,135.371 C162.76,135.863,173.441,140.137,173.988,140.155 C174.048,140.156,174.023,140.086,173.932,139.998 Z M173.688,136.865 C174.11,136.443,173.643,135.918,172.157,135.141 C170.703,134.381,169.388,133.959,167.056,133.503 C164.594,133.022,163.754,132.801,163.56,132.583 C163.341,132.338,161.592,131.437,160.868,131.197 C160.155,130.96,159.122,130.997,159.072,131.262 C159.012,131.578,159.641,132.083,160.28,132.232 C160.605,132.307,161.337,132.58,161.906,132.837 C165.48,134.452,165.588,134.49,168.41,135.135 C169.678,135.426,170.42,135.665,171.116,136.008 C171.939,136.413,173.292,136.975,173.491,136.994 C173.525,136.997,173.613,136.939,173.688,136.865 Z M157.681,134.281 C158.085,134.14,158.346,133.771,158.167,133.592 C158.025,133.45,156.852,133.169,156.392,133.167 C155.694,133.164,155.536,133.811,156.144,134.182 C156.553,134.431,157.142,134.469,157.681,134.281 Z M180.296,132.509 C180.386,132.363,180.051,131.795,179.604,131.335 C179.379,131.103,179.217,130.893,179.244,130.867 C179.343,130.773,180.934,130.571,181.57,130.572 L182.226,130.572 L182.231,131.023 C182.234,131.271,182.303,131.537,182.383,131.614 C182.503,131.73,182.522,131.595,182.488,130.873 C182.451,130.096,182.413,129.964,182.167,129.767 L181.887,129.543 L182.254,129.615 C182.751,129.713,182.737,129.486,182.215,128.948 C181.4,128.109,180.284,127.673,180.025,128.092 C179.915,128.269,178.56,128.402,178.56,128.235 C178.56,128.056,179.04,127.891,180.155,127.686 C181.171,127.5,181.61,127.266,181.382,127.034 C181.329,126.98,180.719,126.956,180.025,126.98 C178.993,127.015,178.739,127.058,178.622,127.218 C178.543,127.326,178.437,127.413,178.385,127.413 C178.333,127.413,178.152,127.546,177.983,127.708 C177.501,128.17,177.338,127.98,177.782,127.474 C178.231,126.963,178.787,126.696,179.801,126.504 C180.204,126.428,180.552,126.35,180.574,126.332 C180.672,126.251,180.105,125.609,179.934,125.607 C179.83,125.606,179.541,125.532,179.293,125.443 C178.566,125.181,177.739,125.226,177.062,125.565 C176.175,126.01,175.909,126.32,175.505,127.384 C175.392,127.682,175.393,127.683,175.622,127.475 C175.876,127.246,175.918,127.308,175.737,127.646 C175.605,127.892,175.733,127.937,175.954,127.724 C176.074,127.609,176.093,127.707,176.061,128.259 C176.039,128.653,176.07,128.945,176.135,128.957 C176.197,128.968,176.378,128.562,176.538,128.055 C176.86,127.026,177.074,126.624,177.3,126.624 C177.383,126.624,177.434,126.662,177.413,126.708 C177.392,126.755,177.217,127.097,177.024,127.47 C176.831,127.842,176.61,128.419,176.531,128.751 C176.375,129.413,176.446,129.551,176.944,129.555 C177.078,129.555,177.207,129.614,177.231,129.685 C177.262,129.779,177.348,129.774,177.548,129.667 C177.699,129.587,178.382,129.478,179.065,129.425 C179.749,129.373,180.626,129.298,181.013,129.26 C181.519,129.21,181.718,129.228,181.718,129.324 C181.718,129.397,181.675,129.43,181.623,129.398 C181.57,129.365,181.11,129.439,180.601,129.56 C180.091,129.682,179.502,129.782,179.292,129.782 C178.894,129.782,178.481,130.078,178.239,130.535 C178.077,130.843,178.188,131.155,178.444,131.112 C178.75,131.06,179.158,131.332,179.457,131.788 C179.969,132.567,180.159,132.73,180.296,132.509 Z M176.981,129.059 C176.981,128.83,177.362,128.203,177.501,128.203 C177.76,128.203,177.679,128.479,177.319,128.823 C177.133,129.001,176.981,129.107,176.981,129.059 Z M171.398,130.96 C170.964,130.559,170.228,129.98,169.763,129.674 C168.978,129.158,168.751,129.077,166.61,128.541 C164.676,128.057,163.362,127.645,163.112,127.444 C163.083,127.42,163.133,127.354,163.225,127.296 C163.316,127.238,163.335,127.19,163.268,127.189 C163.2,127.189,162.719,126.932,162.2,126.62 C161.68,126.307,160.989,125.975,160.665,125.88 C160.237,125.756,160.093,125.665,160.138,125.546 C160.179,125.438,160.125,125.383,159.977,125.383 C159.853,125.383,159.564,125.305,159.334,125.208 C158.813,124.991,157.931,125.032,157.775,125.281 C157.453,125.794,158.098,126.463,159.059,126.615 C159.377,126.666,159.676,126.77,159.723,126.847 C159.84,127.036,160.007,126.778,160.007,126.409 C160.007,126.026,160.26,125.985,160.422,126.341 C160.519,126.555,160.524,126.695,160.44,126.831 C160.253,127.129,160.455,127.49,161.035,127.892 C161.326,128.094,161.759,128.42,161.998,128.617 C162.563,129.083,162.675,129.115,165.928,129.733 C168.822,130.283,169.899,130.606,171.116,131.287 C171.52,131.512,171.926,131.695,172.019,131.693 C172.112,131.69,171.833,131.361,171.398,130.96 Z M158.83,131.313 C158.756,131.224,158.712,131.066,158.731,130.961 C158.751,130.856,158.69,130.731,158.597,130.683 C157.539,130.134,156.889,129.882,156.611,129.914 C156.266,129.953,156.274,129.918,156.371,130.906 C156.406,131.267,156.991,131.453,158.132,131.465 C158.84,131.472,158.943,131.45,158.83,131.313 Z M159.528,130.722 C159.45,130.691,159.323,130.691,159.246,130.722 C159.168,130.753,159.232,130.779,159.387,130.779 C159.542,130.779,159.605,130.753,159.528,130.722 Z M173.816,128.034 C173.886,127.724,174.133,127.089,174.363,126.624 C174.779,125.783,174.782,125.769,174.78,124.368 C174.778,122.589,174.481,121.53,173.791,120.839 C173.55,120.599,173.333,120.422,173.309,120.446 C173.285,120.47,173.45,120.917,173.676,121.439 C174.26,122.791,174.291,123.547,173.844,125.507 C173.455,127.211,173.302,128.488,173.431,128.957 L173.518,129.274 L173.603,128.936 C173.649,128.75,173.745,128.344,173.816,128.034 Z M171.116,129.003 C171.116,128.845,169.461,127.338,168.658,126.765 C168.262,126.482,167.252,125.956,166.414,125.595 C165.576,125.235,164.401,124.641,163.802,124.275 C162.134,123.255,162.265,123.297,161.805,123.648 C161.465,123.907,161.417,123.999,161.477,124.273 C161.527,124.499,161.503,124.595,161.398,124.597 C161.315,124.599,161.348,124.658,161.473,124.729 C161.597,124.799,161.902,125.019,162.15,125.217 C162.398,125.416,163.033,125.833,163.56,126.145 C164.497,126.7,165.341,126.971,167.488,127.406 C168.186,127.547,169.439,128.116,170.327,128.695 C170.975,129.117,171.116,129.173,171.116,129.003 Z M172.132,128.091 C171.994,127.359,172.001,127.237,172.23,126.427 C172.677,124.851,172.707,124.67,172.63,124.036 C172.533,123.242,172.176,122.064,171.983,121.904 C171.877,121.816,171.72,121.818,171.423,121.909 C171.074,122.016,171.037,122.056,171.186,122.164 C171.303,122.25,171.397,122.605,171.465,123.218 C171.569,124.148,171.55,124.308,171.17,125.609 C170.958,126.337,171.004,127.32,171.275,127.845 C171.501,128.282,172.14,129.021,172.221,128.94 C172.254,128.908,172.214,128.525,172.132,128.091 Z M174.601,128.231 C175.212,127.031,176.154,125.562,176.46,125.334 C176.709,125.148,176.998,125.097,178.085,125.048 C179.057,125.004,179.399,124.951,179.378,124.847 C179.342,124.668,179.626,124.666,179.91,124.843 C180.302,125.088,180.294,124.836,179.887,124.172 C179.668,123.815,179.284,123.113,179.034,122.614 C178.46,121.466,177.981,120.98,178.391,121.961 C178.674,122.638,178.588,122.776,178.191,122.282 C177.991,122.034,177.594,121.577,177.308,121.267 C177.021,120.956,176.722,120.579,176.643,120.428 C176.402,119.967,175.716,119.054,175.656,119.115 C175.539,119.231,176.397,120.835,176.864,121.375 C177.139,121.692,177.292,121.952,177.218,121.977 C177.022,122.043,175.966,121.767,175.966,121.65 C175.966,121.594,176.046,121.549,176.144,121.549 C176.297,121.549,176.291,121.496,176.097,121.182 C175.973,120.98,175.769,120.542,175.642,120.209 C175.516,119.875,175.277,119.406,175.11,119.166 L174.808,118.729 L175.133,118.258 C175.312,117.999,175.908,117.286,176.458,116.673 C177.008,116.06,177.429,115.531,177.395,115.497 C177.331,115.432,175.141,117.563,174.77,118.052 C174.512,118.392,173.169,119.518,173.022,119.518 C172.965,119.518,172.82,119.353,172.702,119.152 C172.424,118.681,172.156,118.412,171.75,118.2 C171.432,118.035,171.426,118.037,171.484,118.295 C171.548,118.582,171.94,119.579,172.219,120.167 C172.443,120.64,172.597,120.64,172.462,120.168 C172.307,119.627,172.328,119.592,172.654,119.849 C172.984,120.108,173.668,120.18,173.528,119.941 C173.483,119.864,173.562,119.902,173.704,120.026 C174.032,120.313,174.61,121.312,174.612,121.595 C174.613,121.882,175.231,122.832,175.639,123.176 C176.057,123.528,176.05,123.579,175.587,123.579 L175.207,123.579 L175.15,124.622 C175.105,125.438,174.991,125.971,174.627,127.068 C174.001,128.955,173.991,129.431,174.601,128.231 Z M175.912,124.372 C175.752,124.063,175.754,124.03,175.949,123.926 C176.065,123.864,176.701,123.778,177.363,123.736 C178.472,123.664,178.586,123.676,178.817,123.885 C178.955,124.01,179.169,124.168,179.293,124.237 C179.471,124.335,179.289,124.362,178.437,124.365 C177.812,124.367,177.121,124.439,176.802,124.536 C176.082,124.754,176.112,124.76,175.912,124.372 Z M176.788,123.158 C176.392,123.122,176.239,123.031,175.869,122.611 C175.625,122.334,175.391,121.969,175.348,121.8 C175.224,121.302,174.516,120.222,174.139,119.953 L173.79,119.705 L174.159,119.375 C174.517,119.055,174.534,119.051,174.732,119.254 C174.929,119.455,175.545,120.882,175.759,121.633 C175.817,121.835,175.938,122,176.028,122 C176.228,122,176.248,122.219,176.051,122.242 C175.973,122.251,176.286,122.293,176.745,122.335 C177.486,122.403,177.609,122.448,177.84,122.737 C178.225,123.22,178.087,123.275,176.788,123.158 Z M182.771,128.231 C182.393,127.324,182.054,126.769,181.514,126.173 C181.205,125.832,180.927,125.578,180.895,125.609 C180.863,125.64,181.112,126.04,181.449,126.498 C181.785,126.957,182.218,127.629,182.412,127.993 C182.804,128.729,183.045,128.888,182.771,128.231 Z M173.279,126.68 C173.75,124.955,173.802,124,173.494,122.771 C173.354,122.21,173.281,121.671,173.323,121.504 C173.379,121.281,173.346,121.194,173.187,121.135 C173.071,121.092,172.942,121.004,172.899,120.94 C172.704,120.647,172.685,121.055,172.85,122.021 C173.177,123.944,173.195,124.862,172.933,126.207 C172.687,127.468,172.634,128.216,172.78,128.364 C172.826,128.411,172.882,128.331,172.903,128.185 C172.924,128.04,173.093,127.363,173.279,126.68 Z M170.547,127.232 C170.393,126.83,170.494,125.927,170.788,125.071 C171.083,124.214,171.188,123.022,171,122.668 C170.92,122.517,170.545,121.981,170.168,121.476 C169.79,120.97,169.242,120.171,168.951,119.699 C168.629,119.18,168.345,118.842,168.23,118.842 C167.923,118.842,168.103,119.814,168.633,121.023 C168.987,121.831,169.232,122.208,169.709,122.679 C170.384,123.346,170.416,123.463,170.207,124.504 C170.018,125.44,169.999,125.475,169.811,125.221 C169.723,125.1,169.65,124.837,169.65,124.636 C169.65,124.149,169.472,123.705,169.159,123.415 C169.019,123.285,168.709,122.672,168.471,122.053 C168.234,121.434,167.914,120.712,167.761,120.447 C167.281,119.614,166.685,119.37,166.568,119.956 C166.482,120.389,167.329,122.557,167.928,123.435 C168.172,123.793,168.433,124.2,168.508,124.34 C168.738,124.772,168.383,124.65,167.746,124.077 C167.139,123.531,166.583,122.532,166.442,121.734 C166.313,121.009,165.703,119.924,165.703,120.421 C165.703,120.483,165.627,120.533,165.534,120.533 C165.322,120.533,165.322,120.478,165.533,120.156 C165.684,119.925,165.678,119.834,165.467,119.234 C165.338,118.868,165.153,118.415,165.056,118.227 C164.959,118.039,164.849,117.772,164.812,117.634 C164.745,117.385,164.736,117.387,164.029,117.802 L163.314,118.221 L163.392,118.729 C163.435,119.008,163.48,119.321,163.493,119.424 C163.531,119.725,163.739,119.91,164.402,120.235 C164.744,120.402,165.016,120.576,165.005,120.621 C164.995,120.666,165.044,120.83,165.114,120.985 C165.427,121.676,165.928,122.935,165.928,123.03 C165.928,123.185,165.637,123.003,164.747,122.291 C164.314,121.945,163.921,121.661,163.873,121.661 C163.825,121.661,163.785,121.787,163.785,121.94 C163.785,122.141,163.738,122.2,163.616,122.153 C162.995,121.915,164.288,123.364,165.169,123.894 C165.508,124.098,166.288,124.444,166.901,124.663 C167.513,124.882,168.269,125.192,168.579,125.352 C168.889,125.511,169.32,125.673,169.537,125.711 C169.924,125.78,169.933,125.794,169.989,126.411 C170.04,126.983,170.196,127.336,170.493,127.548 C170.666,127.672,170.681,127.583,170.547,127.232 Z M180.759,124.707 C180.721,124.644,180.642,124.594,180.584,124.594 C180.525,124.594,180.477,124.644,180.477,124.707 C180.477,124.769,180.557,124.819,180.653,124.819 C180.75,124.819,180.798,124.769,180.759,124.707 Z M161.514,123.561 C161.634,123.238,161.549,122.839,161.32,122.646 C161.02,122.392,159.954,121.983,159.691,122.021 C159.547,122.042,159.405,122.179,159.342,122.358 C159.249,122.623,159.282,122.698,159.613,122.978 C159.985,123.292,160.997,123.791,161.28,123.8 C161.359,123.802,161.465,123.695,161.514,123.561 Z M163.189,121.762 C163.277,121.674,163.28,121.539,163.199,121.308 C163.117,121.071,163.122,120.935,163.22,120.817 C163.328,120.687,163.286,120.532,163.006,120.043 C162.813,119.707,162.584,119.372,162.495,119.298 C162.278,119.118,161.941,119.303,161.68,119.745 C161.571,119.931,161.454,120.083,161.421,120.084 C161.388,120.085,161.291,120.13,161.206,120.184 C160.972,120.332,161.682,121.615,162.078,121.76 C162.49,121.911,163.039,121.912,163.189,121.762 Z M171.004,121.3 C171.004,120.921,170.552,119.513,170.216,118.842 C170.045,118.501,169.819,117.79,169.715,117.263 C169.518,116.267,169.357,116.022,168.899,116.022 C168.589,116.022,168.41,116.324,168.41,116.847 C168.41,117.606,168.542,117.958,168.906,118.174 C169.269,118.388,170.257,120.109,170.552,121.041 C170.631,121.289,170.717,121.531,170.744,121.579 C170.831,121.73,171.004,121.544,171.004,121.3 Z M167.733,118.637 C167.733,118.462,167.658,118.066,167.566,117.758 C167.431,117.302,167.3,117.127,166.867,116.822 L166.335,116.446 L166.065,116.76 C165.833,117.03,165.806,117.145,165.871,117.591 C165.973,118.296,166.172,118.564,166.741,118.765 C167.515,119.039,167.733,119.011,167.733,118.637 Z M173.712,118.08 C173.972,117.786,174.257,117.405,174.345,117.235 C174.505,116.925,174.505,116.924,174.116,116.924 C173.902,116.924,173.645,117.006,173.546,117.105 C173.171,117.48,172.863,118.616,173.137,118.616 C173.194,118.616,173.453,118.375,173.712,118.08 Z M179.471,150.938 C179.466,150.819,179.493,150.753,179.531,150.79 C179.568,150.828,179.572,150.925,179.539,151.007 C179.503,151.096,179.477,151.07,179.471,150.938 Z"/>
		<path fill="#8e792c" stroke="#000" d="M142.857,185.714 L142.857,185.714"/>
	</g>
</svg>
