<?xml version="1.0" encoding="utf-8"?>
<!DOCTYPE svg PUBLIC "-//W3C//DTD SVG 1.1//EN" "http://www.w3.org/Graphics/SVG/1.1/DTD/svg11.dtd">
<svg version="1.1" id="Layer_1" xmlns="http://www.w3.org/2000/svg" xmlns:xlink="http://www.w3.org/1999/xlink" x="0px" y="0px"
	 width="470px" height="134px" viewBox="0 0 470 134" enable-background="new 0 0 470 134" xml:space="preserve">
<path fill-rule="evenodd" clip-rule="evenodd" d="M457,50h12v11h-12V50z M458,58.5l2.5-2.5l1.5,1.5l3.5-3.5l2.5,2.5V51h-10V58.5z
	 M460.5,55c-0.829,0-1.5-0.671-1.5-1.5s0.671-1.5,1.5-1.5s1.5,0.671,1.5,1.5S461.329,55,460.5,55z M468,37h-2v-1h2V37z M467,25h2v10
	h-2V25z M458,36h3v1h-3V36z M459,35V25h1v10H459z M465,25h1v10h-1V25z M464,36h1v1h-1V36z M459,4h9v9h-9V4z M466.167,12h0.667V5
	h-0.667V12z M464.167,12h0.667V5h-0.667V12z M462.167,12h0.667V5h-0.667V12z M460.167,12h0.667V5h-0.667V12z M462,37v-1h1v1H462z
	 M462,25h2v10h-2V25z M458,2h3V0h1h3h1v2h3v1h-11V2z M462,2h3V1h-3V2z M458,35h-1V25h1V35z M442,59h-9v-7h9v3.111l3-2.625v6.028
	l-3-2.625V59z M440,37h-1v-1h1v-1h-1v-1h1v-2h-2v-1h3v1v2h2v1h-1v1h3v1h-4H440z M433,37v-5h2v-1h1v1h2v5H433z M437,33h-3v3h3V33z
	 M436,35h-1v-1h1V35z M444,34h1v1h-1V34z M442,33v-3h-2v-3h-1v-2h1h5v5h-2v1h2v2h-2H442z M444,29v-3h-3v3H444z M443,28h-1v-1h1V28z
	 M442.432,9.017l1.518,1.519l-1.414,1.414l-1.519-1.519c-0.315,0.186-0.654,0.333-1.017,0.428V13h-2v-2.142
	c-0.363-0.094-0.703-0.242-1.017-0.427l-1.519,1.518l-1.414-1.414l1.519-1.519c-0.186-0.314-0.333-0.654-0.428-1.017H433V6h2.142
	c0.094-0.362,0.242-0.702,0.428-1.017l-1.519-1.519l1.414-1.414l1.519,1.518c0.314-0.185,0.654-0.333,1.017-0.427V1h2v2.142
	c0.363,0.094,0.703,0.242,1.017,0.427l1.519-1.518l1.414,1.414l-1.519,1.519c0.186,0.314,0.333,0.654,0.428,1.017H445v2h-2.142
	C442.765,8.363,442.617,8.703,442.432,9.017z M439,5c-1.104,0-2,0.896-2,2s0.896,2,2,2s2-0.896,2-2S440.104,5,439,5z
	 M420.409,132.001h-10.842c-0.191,0-0.346-0.188-0.346-0.42l-1.217-3.59h13.994l-1.242,3.59
	C420.755,131.813,420.599,132.001,420.409,132.001z M410,82h11v2h-11V82z M415.5,75l5.5,6h-11L415.5,75z M419,57.5l-2-2l2-2V55h2v1
	h-2V57.5z M416,61V50h1v5.5V61H416z M419,1h2v12h-2V1z M416,27.05c2.247,0.252,4,2.136,4,4.45s-1.753,4.198-4,4.45v-1
	c1.694-0.245,3-1.688,3-3.45s-1.306-3.205-3-3.45V27.05z M416,29.05c1.141,0.232,2,1.24,2,2.45s-0.859,2.218-2,2.45v-1.051
	c0.58-0.208,1-0.748,1-1.399s-0.42-1.191-1-1.399V29.05z M416,5h2v8h-2V5z M410.09,122.355l0.4-0.98
	c0.084-0.207,0.309-0.376,0.5-0.376h2.187c0.19,0,0.415,0.17,0.498,0.377l0.395,0.979h6.339c0.19,0,0.346,0.189,0.346,0.419v4.218
	H409.22v-4.218c0-0.23,0.155-0.419,0.346-0.419H410.09z M409,102h4v-4h3v4h4v3h-4v4h-3v-4h-4V102z M409,59h6v2h-6V59z M410,33v-3h2
	l3-3v9l-3-3H410z M413,8h2v5h-2V8z M410,10h2v3h-2V10z M409,50h2v2h-2V50z M409,58v-2h4v2H409z M409,53h5v2h-5V53z M396.779,132.003
	h-11.559c-0.203,0-0.369-0.188-0.369-0.42l-0.854-7.678h14.005l-0.854,7.678C397.148,131.815,396.982,132.003,396.779,132.003z
	 M384.852,122.773c0-0.231,0.166-0.419,0.369-0.419h0.559l0.426-0.981c0.09-0.207,0.33-0.376,0.533-0.376h2.332
	c0.203,0,0.442,0.17,0.531,0.377l0.421,0.98h6.758c0.203,0,0.369,0.188,0.369,0.419v0.158h-12.296V122.773z M395.5,103H391v-4.5
	l1.5,1.5l3-3l1.5,1.5l-3,3L395.5,103z M389.5,106l-3,3l-1.5-1.5l3-3l-1.5-1.5h4.5v4.5L389.5,106z M391,59h6v2h-6V59z M386,33v-3h2
	l3-3v9l-3-3H386z M389,55.5V50h1v11h-1V55.5z M387,56h-2v-1h2v-1.5l2,2l-2,2V56z M391,56h4v2h-4V56z M396,55h-5v-2h5V55z M393,52h-2
	v-2h2V52z M392,33.95v-1.051c0.58-0.208,1-0.748,1-1.399s-0.42-1.191-1-1.399V29.05c1.141,0.232,2,1.24,2,2.45
	S393.141,33.718,392,33.95z M396,74v11h-2v-4.583L389,85V74l5,4.583V74H396z M391,13c-3.313,0-6-2.687-6-6
	c0-2.609,1.675-4.806,4-5.633v2.188c-1.19,0.693-2,1.969-2,3.445c0,2.209,1.791,4,4,4s4-1.791,4-4c0-1.477-0.81-2.752-2-3.445V1.367
	c2.325,0.827,4,3.024,4,5.633C397,10.313,394.313,13,391,13z M390,1h2v5h-2V1z M372,80.417L367,85v-4.583L362,85V74l5,4.583V74
	l5,4.583V74h2v11h-2V80.417z M364,59h9v2h-9V59z M364,56h9v2h-9V56z M364,53h9v2h-9V53z M364,50h9v2h-9V50z M372,34l-1.5-1.5L369,34
	l-1-1l1.5-1.5L368,30l1-1l1.5,1.5L372,29l1,1l-1.5,1.5L373,33L372,34z M369.308,11.154c-0.502-0.502-0.999-1.271-1.353-1.874
	c-0.706,0.459-1.544,0.731-2.449,0.731c-2.489,0-4.506-2.017-4.506-4.506S363.017,1,365.506,1c2.488,0,4.506,2.017,4.506,4.506
	c0,0.905-0.272,1.744-0.731,2.449c0.603,0.354,1.372,0.851,1.874,1.353c0.923,0.923,1.846,1.846,1.846,1.846L371.154,13
	C371.154,13,370.212,12.058,369.308,11.154z M365.505,2.508c-1.655,0-2.997,1.342-2.997,2.997c0,1.656,1.342,2.998,2.997,2.998
	c1.656,0,2.998-1.342,2.998-2.998C368.503,3.85,367.161,2.508,365.505,2.508z M364,5h3v1h-3V5z M345,129h2v-4h-4l-2-2h6h2v2v4h2
	l-3,3L345,129z M344,104.5c-5-1-7,3.5-7,3.5c0-7.333,7-7.5,7-7.5v-3l5,5l-5,5V104.5z M343,80.417L338,85V74l5,4.583V74l6,5.5l-6,5.5
	V80.417z M337,59h12v2h-12V59z M337,56h12v2h-12V56z M337,53h12v2h-12V53z M337,50h12v2h-12V50z M338,28.838
	c0.027-0.127,0.065-0.254,0.104-0.376c0.049-0.143,0.104-0.285,0.158-0.422c0.06-0.143,0.126-0.274,0.202-0.397
	c0.011-0.02,0.022-0.035,0.033-0.051c0.033-0.041,0.049-0.086,0.055-0.147c0.006-0.041,0.017-0.086,0.027-0.122
	c0.005-0.01,0.005-0.02,0.017-0.03c0.033-0.061,0.076-0.122,0.12-0.178c0.087-0.112,0.18-0.224,0.273-0.326
	c0.098-0.106,0.196-0.208,0.3-0.305c0.109-0.092,0.219-0.183,0.333-0.27c0.12-0.086,0.24-0.167,0.36-0.244
	c0.126-0.082,0.251-0.163,0.366-0.245c0.121-0.081,0.246-0.157,0.377-0.229c0.011,0,0.017-0.005,0.017-0.005
	c0.131-0.076,0.273-0.137,0.426-0.188c0.038-0.015,0.077-0.025,0.109-0.041c0.158-0.051,0.317-0.102,0.486-0.143
	c0.158-0.041,0.333-0.071,0.519-0.086c0.191-0.021,0.388-0.031,0.585-0.041c0.202-0.01,0.398-0.01,0.595,0.01
	c0.186,0.016,0.366,0.041,0.536,0.077c0.175,0.03,0.344,0.071,0.503,0.117c0.158,0.046,0.311,0.097,0.453,0.158
	c0.148,0.056,0.29,0.122,0.421,0.188c0.065,0.041,0.137,0.077,0.197,0.117c0.131,0.071,0.251,0.158,0.366,0.244
	c0.115,0.082,0.224,0.178,0.328,0.275c0.104,0.102,0.208,0.198,0.312,0.29c0.109,0.097,0.208,0.193,0.306,0.295
	c0.104,0.102,0.197,0.208,0.279,0.321c0.093,0.117,0.175,0.229,0.257,0.346c0.011,0.021,0.021,0.036,0.033,0.051
	c0.082,0.122,0.153,0.244,0.224,0.376c0.033,0.066,0.065,0.137,0.087,0.213c-0.027,0.051-0.033,0.097-0.011,0.147
	c0.022,0.046,0.044,0.092,0.066,0.138c0.027,0.071,0.049,0.147,0.065,0.234c0,0.005-0.005,0.005-0.005,0.01
	c-0.033,0.056-0.071,0.112-0.104,0.167c0.099,0.066,0.164,0.163,0.197,0.295c0.005,0.015,0.011,0.03,0.011,0.051
	c0,0.041,0.006,0.071,0.017,0.097c-0.005,0.061-0.011,0.142-0.027,0.239c-0.005,0.021-0.011,0.046-0.017,0.071
	c-0.027,0.117-0.065,0.224-0.115,0.326c-0.033,0.066-0.06,0.142-0.076,0.219c-0.005,0.015-0.011,0.036-0.011,0.056
	c-0.016,0.082-0.033,0.163-0.06,0.234c-0.043,0.138-0.093,0.265-0.147,0.387c0.022,0.076,0.044,0.152,0.06,0.229
	c0.011,0.025,0.017,0.051,0.022,0.076c0.005,0.036,0.011,0.082,0.017,0.127c0,0.01,0,0.01,0,0.01
	c0.021,0.056,0.027,0.122,0.016,0.199c0,0.005-0.005,0.015-0.005,0.02c-0.017,0.036-0.027,0.076-0.033,0.127
	c0,0.045-0.005,0.091-0.011,0.137c-0.011,0.086-0.021,0.163-0.038,0.229c-0.005,0.02-0.011,0.041-0.016,0.056
	c-0.033,0.163-0.071,0.315-0.115,0.468c-0.049,0.153-0.098,0.3-0.158,0.438c-0.06,0.138-0.12,0.275-0.18,0.412
	c-0.033,0.066-0.077,0.127-0.126,0.178c-0.065,0.066-0.098,0.148-0.115,0.254c-0.005,0.051-0.011,0.092-0.016,0.117
	c-0.006,0.025-0.011,0.056-0.011,0.082c-0.016,0.081-0.049,0.152-0.087,0.213c-0.071,0.097-0.153,0.178-0.257,0.249
	c0,0.061-0.011,0.117-0.027,0.173c0,0.01,0,0.021,0,0.031c0.005,0.025,0.005,0.051,0.011,0.071c0.005,0.015,0,0.03-0.011,0.046
	c-0.005,0.01-0.005,0.025-0.005,0.041c0.005,0.01,0.005,0.015,0.005,0.025c0.005,0,0,0.005,0,0.005
	c-0.016,0.031-0.022,0.062-0.011,0.082c0.005,0.015,0,0.041-0.017,0.071v0.005c0.011,0.031,0.005,0.056-0.011,0.087
	c0,0,0,0.005,0,0.015c0.011,0.015,0.005,0.041,0,0.076c-0.005,0.021-0.005,0.036-0.005,0.051c0,0.005-0.006,0.01-0.006,0.021
	c-0.011,0.02-0.016,0.051-0.011,0.086c0,0.005-0.005,0.005-0.005,0.01c-0.022,0.005-0.038,0.02-0.055,0.03
	c-0.005,0.188-0.022,0.361-0.044,0.514c0,0.005-0.005,0.025-0.011,0.056c-0.005,0.046-0.011,0.086-0.016,0.127
	c-0.011,0.031-0.017,0.071-0.022,0.122c0,0.005,0,0.015,0,0.031c0,0.045-0.005,0.086-0.005,0.117
	c-0.011,0.051-0.011,0.092-0.011,0.127c0.005,0.193,0.033,0.361,0.082,0.503c0.011,0.036,0.027,0.071,0.038,0.102
	c-0.06,0-0.12,0-0.18,0c0,0-0.005,0-0.011,0c-0.005-0.025-0.017-0.051-0.027-0.081c-0.044-0.147-0.077-0.305-0.093-0.483
	c0-0.005,0-0.005,0-0.01c-0.011-0.041-0.011-0.086-0.011-0.137c0.011-0.188,0.027-0.366,0.055-0.534
	c0.017-0.086,0.027-0.178,0.033-0.264c0-0.051,0.005-0.097,0.011-0.143c0.006-0.051,0.011-0.092,0.006-0.127
	c-0.044,0-0.06-0.025-0.049-0.066c0.005-0.005,0-0.015-0.005-0.025c-0.011-0.031-0.011-0.056,0-0.082
	c0.011-0.02,0.005-0.041-0.011-0.061c-0.005-0.005-0.005-0.005-0.005-0.005c0.005-0.015,0.011-0.031,0.005-0.046
	c0-0.015,0-0.03-0.011-0.051c0-0.005,0-0.01,0.005-0.01c0.022-0.015,0.022-0.03,0-0.051c-0.011-0.005-0.011-0.015-0.011-0.025
	c0.005-0.015,0.011-0.036,0.005-0.056c0-0.015,0-0.02,0-0.036c-0.005-0.02-0.005-0.041-0.011-0.066
	c-0.005-0.041-0.005-0.086,0.011-0.127c-0.055,0-0.093,0.005-0.115,0.005c-0.082,0.005-0.142-0.01-0.18-0.036
	c-0.06,0.021-0.131,0.036-0.202,0.046c-0.077,0.005-0.153,0.005-0.224-0.005c-0.049-0.005-0.082-0.02-0.109-0.045
	c-0.017-0.015-0.033-0.021-0.06-0.025c-0.099-0.005-0.18-0.031-0.24-0.077c-0.011-0.005-0.022-0.015-0.039-0.02
	c-0.137-0.066-0.219-0.183-0.246-0.346c-0.017-0.091-0.022-0.183-0.027-0.274c-0.006-0.056-0.006-0.092-0.006-0.122
	c-0.005-0.076-0.005-0.158-0.011-0.234c0-0.005,0-0.005,0-0.01c0.011-0.076,0.017-0.158,0.017-0.249c0-0.092,0-0.184,0-0.285
	c0-0.081,0-0.147,0.005-0.198c0.005-0.046,0.005-0.107,0.005-0.188c-0.005-0.087-0.005-0.168-0.005-0.244
	c-0.005-0.025-0.005-0.046,0-0.071c0-0.046,0-0.092,0-0.137c-0.005-0.026-0.005-0.041-0.005-0.046
	c0.011-0.137,0.011-0.27,0.011-0.407c0-0.102,0-0.193,0-0.275c0.005-0.046,0-0.086,0-0.117c0-0.036,0-0.081,0-0.132
	c0.005-0.051,0.011-0.097,0.017-0.138c0-0.005,0-0.005,0-0.01c0.011-0.031,0.011-0.071,0.011-0.117c0-0.005,0-0.005,0-0.01
	c0.005-0.051,0.005-0.097,0.011-0.147c0.005-0.041,0.005-0.086,0.011-0.127c0.011-0.168,0.022-0.341,0.033-0.534
	c0-0.01,0.005-0.021,0.005-0.03c0.011-0.051,0.011-0.087,0.017-0.117c0-0.097,0.011-0.193,0.027-0.275
	c0.005-0.041,0.016-0.076,0.033-0.112c0.011-0.041,0.033-0.076,0.055-0.102c0.038-0.061,0.093-0.107,0.164-0.143
	c0.137-0.071,0.317-0.091,0.541-0.071c0.093,0.005,0.175,0.025,0.251,0.051c0.027-0.031,0.077-0.041,0.142-0.041
	c0.06,0.005,0.109,0.015,0.147,0.031c0.006,0.005,0.011,0.005,0.017,0.015c0.011,0.021,0.027,0.036,0.049,0.051
	c0.043,0.031,0.076,0.066,0.098,0.112c0.038,0.066,0.071,0.138,0.093,0.214c0,0.005,0,0.01,0,0.015
	c0.022,0.086,0.044,0.163,0.082,0.224c0.033,0.01,0.06,0.016,0.093,0.016c0.06,0.005,0.109,0.015,0.147,0.041
	c0.055,0.036,0.115,0.066,0.169,0.102c0.022-0.015,0.039-0.036,0.06-0.056c0.082-0.112,0.164-0.229,0.251-0.346
	c0.006-0.01,0.006-0.015,0.006-0.02c0-0.005,0-0.01,0-0.016c-0.049-0.03-0.093-0.061-0.137-0.096c-0.005,0-0.011-0.005-0.011-0.01
	c-0.005-0.01-0.005-0.021,0-0.031c0.027-0.051,0.049-0.097,0.082-0.142c0.017-0.026,0.022-0.046,0.017-0.061
	c-0.005-0.01-0.017-0.016-0.027-0.026c-0.011-0.005-0.017-0.015-0.011-0.03c0.017-0.041,0.033-0.082,0.044-0.122
	c0.027-0.066,0.055-0.132,0.082-0.193c0.011-0.02,0.022-0.036,0.033-0.045c0.049-0.056,0.104-0.107,0.159-0.153
	c-0.011-0.066-0.039-0.122-0.077-0.163c-0.011,0-0.022,0-0.033,0c-0.011-0.005-0.027-0.01-0.044-0.016
	c-0.016-0.005-0.033,0-0.06,0.021c-0.038,0.025-0.087,0.036-0.153,0.036c-0.022-0.005-0.039-0.021-0.055-0.031
	c-0.049-0.045-0.087-0.091-0.12-0.147c-0.039-0.061-0.082-0.122-0.121-0.183c-0.011-0.025-0.011-0.051,0-0.081
	c0.011-0.021,0.006-0.041-0.011-0.071c-0.016-0.005-0.027-0.01-0.038-0.021c-0.011-0.01-0.027-0.02-0.044-0.025
	c-0.027-0.01-0.043-0.03-0.06-0.056c-0.027-0.051-0.065-0.097-0.109-0.132c0-0.005,0-0.005-0.005-0.01c0-0.005,0-0.005-0.005-0.01
	c-0.011-0.015-0.011-0.036-0.005-0.056c0.011-0.031,0.005-0.051-0.006-0.071c-0.011-0.021-0.033-0.031-0.054-0.036
	c-0.017-0.005-0.033-0.005-0.044-0.015c-0.071-0.056-0.142-0.122-0.208-0.188c-0.006-0.005-0.011-0.01-0.017-0.015
	c0-0.005,0-0.01,0-0.015c0-0.046-0.011-0.086-0.038-0.107c-0.011-0.005-0.017-0.005-0.022-0.005c-0.027-0.01-0.055-0.02-0.082-0.025
	c-0.033-0.015-0.06-0.03-0.082-0.051c-0.043-0.045-0.087-0.086-0.142-0.117c-0.005-0.005-0.011-0.01-0.011-0.016
	c-0.005-0.005-0.005-0.01-0.005-0.015c0-0.051-0.022-0.081-0.06-0.097c-0.017-0.01-0.044-0.015-0.071-0.015
	c-0.027,0.005-0.055-0.005-0.087-0.025c-0.043-0.041-0.093-0.071-0.147-0.097c-0.017-0.01-0.033-0.025-0.038-0.041
	c-0.017-0.031-0.033-0.056-0.06-0.077c-0.006-0.02-0.022-0.025-0.055-0.025c-0.022,0.005-0.044,0-0.071-0.005
	c-0.065-0.015-0.137-0.036-0.191-0.066c-0.06-0.031-0.104-0.077-0.136-0.132c-0.017-0.01-0.039-0.015-0.066-0.01
	c-0.027,0-0.049,0.005-0.071,0.005c-0.033,0-0.065-0.005-0.087-0.01c-0.065-0.026-0.126-0.051-0.181-0.077
	c-0.005-0.005-0.011-0.01-0.011-0.01c-0.016-0.036-0.043-0.061-0.082-0.076c-0.022-0.005-0.049,0-0.087,0.01
	c-0.033,0.015-0.065,0.015-0.098,0.005c-0.06-0.015-0.126-0.03-0.186-0.045c-0.021-0.005-0.033-0.01-0.043-0.021
	c-0.022-0.031-0.049-0.051-0.099-0.056c-0.016-0.015-0.033-0.02-0.055-0.01c-0.049,0.025-0.114,0.03-0.186,0.015
	c-0.005,0-0.005,0-0.011,0c-0.049,0-0.093-0.01-0.126-0.021c-0.043-0.02-0.098-0.041-0.153-0.056c-0.022-0.005-0.044,0-0.049,0.01
	c-0.005,0.005-0.011,0.005-0.011,0.01c-0.066,0.021-0.142,0.031-0.235,0.031c-0.043-0.005-0.076-0.01-0.104-0.021
	c-0.033-0.015-0.066-0.03-0.109-0.041c-0.044,0-0.077,0.01-0.104,0.03c-0.011,0.005-0.021,0.01-0.033,0.016
	c-0.087,0.01-0.175,0.02-0.251,0.035c-0.005,0-0.005,0-0.011-0.005c-0.043-0.03-0.098-0.046-0.169-0.046
	c-0.005,0.005-0.005,0.005-0.011,0.01c-0.039,0.036-0.087,0.056-0.147,0.066c-0.066,0.016-0.131,0.026-0.191,0.046
	c-0.005,0-0.005-0.005-0.011-0.005c-0.043-0.036-0.093-0.046-0.158-0.025c-0.017,0-0.022,0.005-0.027,0.015
	c-0.011,0.01-0.011,0.015-0.017,0.025c-0.011,0.01-0.016,0.015-0.021,0.021c-0.087,0.036-0.175,0.066-0.268,0.097l-0.005-0.005
	c-0.049-0.03-0.098-0.03-0.153-0.005c-0.017,0.005-0.033,0.02-0.039,0.041c-0.016,0.031-0.038,0.051-0.065,0.061
	c-0.055,0.021-0.109,0.046-0.153,0.071c-0.005,0-0.005,0.005-0.011,0.005c-0.005,0.016-0.016,0.021-0.038,0.016
	c-0.049-0.01-0.098-0.005-0.137,0.005c-0.005-0.005-0.005,0-0.005,0c-0.033,0.036-0.06,0.071-0.082,0.117h-0.005
	c-0.06,0.051-0.12,0.091-0.191,0.127v0.005c-0.076-0.01-0.131,0-0.175,0.025c-0.011,0.025-0.016,0.051-0.022,0.086
	c0,0.005-0.005,0.005-0.005,0.01c-0.055,0.062-0.12,0.117-0.191,0.158c-0.005,0.005-0.011,0.005-0.011,0.01
	c-0.005,0.005-0.005,0.005-0.011,0.005c-0.066-0.005-0.115,0.005-0.137,0.036c-0.005,0.005-0.005,0.005-0.005,0.01
	c-0.006,0.036-0.011,0.061-0.022,0.086c-0.049,0.071-0.104,0.138-0.164,0.199c-0.005,0.005-0.011,0.005-0.016,0.005
	c-0.044,0.01-0.087,0.021-0.126,0.036c0,0-0.005,0.005-0.011,0.01c0,0-0.005,0.005-0.005,0.01c-0.011,0.025-0.022,0.056-0.022,0.097
	c0,0.02-0.005,0.045-0.011,0.071c-0.049,0.051-0.099,0.107-0.137,0.168c-0.044,0.056-0.093,0.102-0.164,0.137
	c-0.038,0-0.071-0.005-0.093-0.025c-0.022-0.015-0.044-0.03-0.066-0.051c-0.043-0.041-0.104-0.051-0.18-0.03l-0.005-0.005h-0.011
	c-0.087,0.107-0.164,0.229-0.229,0.366c-0.017,0.036-0.033,0.066-0.049,0.107c-0.027,0.066-0.055,0.137-0.077,0.208
	c-0.005,0.015-0.011,0.025-0.016,0.036c-0.033,0.061-0.061,0.127-0.082,0.198c-0.006,0.021-0.011,0.041-0.022,0.061
	c-0.005,0.025-0.011,0.046-0.005,0.051c0.011,0.016,0.027,0.021,0.043,0.025c0.011,0.005,0.022,0.005,0.027,0.01
	c0.142,0.061,0.268,0.137,0.366,0.239c0.055,0.045,0.109,0.097,0.169,0.143c0,0,0,0.005-0.005,0.005c0,0.005,0,0.01,0,0.01
	c0.005,0.01,0.011,0.025,0.016,0.041c0.017,0.066,0.039,0.132,0.06,0.188c0,0.005-0.005,0.016,0,0.016
	c0.006,0.03,0,0.056-0.033,0.076c-0.005,0-0.011,0.005-0.016,0.01c-0.017,0.015-0.039,0.021-0.055,0.03
	c-0.044,0.016-0.055,0.041-0.038,0.076c0,0,0,0.005,0,0.01c-0.017,0.051-0.049,0.086-0.099,0.107
	c-0.005,0.005-0.005,0.005-0.011,0.01c-0.006,0.005-0.006,0.01-0.006,0.01c0.022,0.061,0.061,0.117,0.104,0.163
	c0.022,0.015,0.038,0.041,0.055,0.061c0.033,0.036,0.065,0.082,0.093,0.122c0.022,0.036,0.049,0.061,0.082,0.076
	c0.005,0,0.005,0,0.005,0c0.077-0.051,0.153-0.106,0.229-0.158h0.006c0.18-0.03,0.355-0.056,0.53-0.086
	c0.017-0.02,0.017-0.051,0.011-0.091c-0.022-0.163-0.039-0.341-0.049-0.529c0-0.015,0.011-0.02,0.021-0.025
	c0.055-0.015,0.121-0.02,0.191-0.025c0.011,0,0.017,0.005,0.017,0.021c0,0.03,0.011,0.036,0.033,0.015
	c0.005,0,0.011-0.005,0.011-0.005c0.033-0.015,0.055-0.036,0.082-0.056c0.049-0.041,0.115-0.071,0.191-0.086
	c0.087-0.021,0.18-0.025,0.29-0.021c0.191,0.01,0.333,0.071,0.432,0.173c0.011,0.015,0.027,0.03,0.038,0.041
	c0.049,0.056,0.093,0.117,0.121,0.188c0.027,0.071,0.06,0.147,0.082,0.224c0.027,0.076,0.049,0.142,0.071,0.219
	c0.022,0.081,0.044,0.158,0.065,0.239c0.011,0.041,0.022,0.082,0.033,0.127c0.049,0.137,0.082,0.295,0.104,0.458
	c0.011,0.092,0.027,0.173,0.044,0.254c0.005,0,0.005,0,0.005,0.005c0.022,0.071,0.038,0.158,0.049,0.25
	c0.005,0.025,0.011,0.056,0.016,0.106c0,0.01,0,0.021,0.005,0.031c0.011,0.092,0.027,0.173,0.039,0.254
	c0.005,0.041,0.016,0.081,0.027,0.117c0.005,0.036,0.011,0.077,0.016,0.122c0.005,0.061,0.011,0.117,0.022,0.173
	c0.027,0.173,0.055,0.331,0.071,0.473c0,0.016,0,0.025,0,0.036c0.011,0.097,0.022,0.183,0.033,0.254c0,0.03,0.005,0.051,0.005,0.056
	c0.011,0.036,0.016,0.081,0.022,0.127c0.005,0.091,0.016,0.183,0.021,0.28c0.006,0.066,0.011,0.158,0.011,0.264
	c0.005,0.092,0,0.168-0.005,0.219c0,0.026-0.006,0.051-0.011,0.077s-0.011,0.056-0.005,0.091c0.011,0.086,0,0.173-0.033,0.254
	c-0.005,0.005-0.005,0.015-0.017,0.025c-0.033,0.066-0.082,0.117-0.137,0.163c-0.06,0.041-0.125,0.082-0.196,0.117
	c-0.137,0.061-0.301,0.107-0.486,0.127c-0.071,0.01-0.126,0.005-0.164-0.015c-0.033,0.021-0.065,0.036-0.109,0.046
	c-0.044,0.005-0.093,0.015-0.147,0.02c-0.087,0.005-0.18,0.01-0.284,0c-0.065-0.025-0.125-0.056-0.18-0.086
	c-0.061-0.035-0.121-0.071-0.175-0.102c-0.131-0.076-0.241-0.173-0.328-0.285c0-0.005-0.005-0.015-0.005-0.021
	c0-0.076-0.005-0.147-0.005-0.224c-0.011-0.01-0.017-0.016-0.022-0.025c-0.005-0.005-0.011-0.01-0.011-0.01
	c-0.093-0.107-0.18-0.224-0.262-0.341c-0.043-0.061-0.082-0.117-0.125-0.178c-0.005-0.005-0.005-0.005-0.011-0.01
	c-0.033-0.066-0.071-0.132-0.109-0.193c-0.077-0.122-0.148-0.254-0.208-0.392c-0.06-0.132-0.12-0.275-0.175-0.412
	c-0.055-0.147-0.109-0.295-0.153-0.448c-0.005-0.02-0.011-0.045-0.011-0.076c0-0.051,0-0.091,0-0.127
	c-0.016,0.005-0.021,0.005-0.021-0.005c0.005-0.01,0.005-0.015,0-0.02c0,0-0.005-0.005-0.011-0.005
	c-0.028-0.02-0.049-0.041-0.066-0.066c-0.005-0.036-0.011-0.066-0.016-0.102c-0.006-0.035,0-0.071,0.016-0.096l0.005-0.005
	c-0.005-0.005-0.005-0.01,0-0.03c0.005,0,0.005-0.005,0.011-0.005c0.016-0.025,0.027-0.046,0.027-0.066
	c0-0.036-0.006-0.061-0.017-0.086s-0.011-0.056,0.005-0.082c0.005-0.01,0.005-0.01,0-0.015c-0.005-0.005-0.005-0.025,0-0.046
	c0.017-0.076,0.033-0.152,0.049-0.229c0.005-0.005,0.005-0.01,0.011-0.01c0.017-0.02,0.027-0.045,0.033-0.076
	c0.011-0.041,0.022-0.076,0.033-0.117c-0.017-0.021-0.033-0.041-0.049-0.061c-0.017-0.025-0.038-0.051-0.055-0.077
	c-0.077-0.112-0.164-0.229-0.246-0.346c-0.087-0.112-0.164-0.234-0.24-0.361c-0.071-0.127-0.115-0.28-0.137-0.458
	c-0.005-0.071,0.005-0.152,0.033-0.234c0.027-0.076,0.066-0.137,0.115-0.193c-0.005,0-0.011,0-0.011,0
	C338.093,28.966,338.049,28.905,338,28.838z M345.308,11.154c-0.502-0.502-0.999-1.271-1.353-1.874
	c-0.706,0.459-1.544,0.731-2.449,0.731c-2.489,0-4.506-2.017-4.506-4.506S339.017,1,341.506,1c2.488,0,4.506,2.017,4.506,4.506
	c0,0.905-0.272,1.744-0.731,2.449c0.603,0.354,1.372,0.851,1.874,1.353c0.923,0.923,1.846,1.846,1.846,1.846L347.154,13
	C347.154,13,346.212,12.058,345.308,11.154z M341.505,2.508c-1.655,0-2.997,1.342-2.997,2.997c0,1.656,1.342,2.998,2.997,2.998
	c1.656,0,2.998-1.342,2.998-2.998C344.503,3.85,343.161,2.508,341.505,2.508z M342,7h-1V6h-1V5h1V4h1v1h1v1h-1V7z M341,126h-2v4h4
	l2,2h-6h-2v-6h-2l3-3L341,126z M313,125.5l2.5-2.5l4,4l4-4l2.5,2.5l-6.5,6.5L313,125.5z M315,75h9v9h-9V75z M314,104h3v-7h3v7h3
	l-4.5,6L314,104z M313,59h12v2h-12V59z M316,56h9v2h-9V56z M314,53h11v2h-11V53z M318,50h7v2h-7V50z M316.821,32.185
	c-0.53,0.179-0.815,0.033-0.815,0.033v-5.1c0,0,4.994-0.983,4.994-0.118c0,0.188-0.45,0.864,0.095,0.804
	c0.963-0.105,2.771-0.171,2.771-0.171s0.314,0.6-0.04,1.701C323.472,30.434,324,32,324,32s-4.198,1.062-3.881,0.152
	C320.494,31.075,318.167,31.729,316.821,32.185z M315,27v10l-1,0.001L314,27C314,26,315,26,315,27z M322.5,13l-3-3l-3,3l-2.5-2.5
	l3-3l-3-3l2.5-2.5l3,3l3-3l2.5,2.5l-3,3l3,3L322.5,13z M295.5,127l-4,4l-2.5-2.5l6.5-6.5l6.5,6.5l-2.5,2.5L295.5,127z
	 M289.019,8.541L291.472,6l2.06,2.05L299.475,2l2.497,2.5l-8.438,8.5L289.019,8.541z M291,30v-3c0-1,1-2,2-2s1.96,0,3,0c1,0,2,1,2,2
	v3c1,0,2,1,2,2v3.849c0,0.635-0.25,1.151-1,1.151h-9c-0.75,0-1-0.516-1-1.151V32C289,31,290,30,291,30z M293,30h3v-2c0-1,0-1-1-1
	s0,0-1,0s-1,0-1,1V30z M271,105h-7v-3h7v-3l6,4.5l-6,4.5V105z M267,74l9,5.5l-9,5.5V74z M265,59h12v2h-12V59z M266,25h11v12h-11V25z
	 M267,36h9v-9h-9V36z M270,34h5v1h-5V34z M270,32h5v1h-5V32z M270,30h5v1h-5V30z M270,28h5v1h-5V28z M268,34h1v1h-1V34z M268,32h1v1
	h-1V32z M268,30h1v1h-1V30z M268,28h1v1h-1V28z M269,10h8v3h-8V10z M269,6h8v3h-8V6z M269,2h8v3h-8V2z M265,50h7v2h-7V50z M265,58
	v-2h9v2H265z M265,53h11v2h-11V53z M265,10h3v3h-3V10z M265,6h3v3h-3V6z M265,2h3v3h-3V2z M252,61h-10v1l-2-1.5l2-1.5v1h10v-1l2,1.5
	l-2,1.5V61z M245.688,48.699c-0.131,0-0.288,0.008-0.47,0.023c-0.182,0.015-0.864,0.033-1.019,0.054
	c-0.28,0.041-0.586,0.331-0.917,0.868s-0.572,1.041-0.722,1.51h-0.567V48.01h9.993v3.145h-0.567c-0.15-0.47-0.391-0.973-0.722-1.51
	s-0.637-0.827-0.917-0.868c-0.154-0.021-0.833-0.039-1.014-0.054c-0.182-0.016-0.338-0.023-0.47-0.023h-0.273v8.622
	c0,0.186,0.025,0.35,0.076,0.492s0.149,0.254,0.296,0.337c0.089,0.046,0.228,0.094,0.416,0.144c0.188,0.049,0.888,0.084,1.052,0.104
	v0.604h-5.749v-0.604c0.141-0.016,0.847-0.038,1.051-0.066s0.342-0.063,0.416-0.104c0.151-0.083,0.251-0.194,0.302-0.333
	c0.05-0.14,0.075-0.305,0.075-0.496v-8.699H245.688z M247,37c-1.657,0-3.157-0.671-4.243-1.757L241,37v-5h5l-2.892,2.892
	l1.063-1.063C244.896,34.552,245.896,35,247,35c2.209,0,4-1.791,4-4h2C253,34.313,250.313,37,247,37z M249.829,28.171
	C249.104,27.448,248.104,27,247,27c-2.209,0-4,1.791-4,4h-2c0-3.313,2.687-6,6-6c1.657,0,3.157,0.671,4.243,1.757L253,25v5h-5
	L249.829,28.171z M249,10h3v3h-3V10z M249,6h3v3h-3V6z M249,2h3v3h-3V2z M245,10h3v3h-3V10z M245,6h3v3h-3V6z M245,2h3v3h-3V2z
	 M241,10h3v3h-3V10z M241,6h3v3h-3V6z M241,2h3v3h-3V2z M229.167,51.133c-0.126-0.148-0.268-0.288-0.425-0.42
	c-0.162-0.138-0.338-0.258-0.53-0.362c-0.192-0.103-0.376-0.163-0.555-0.177c-0.167-0.012-0.377-0.021-0.631-0.027
	c-0.254-0.006-0.488-0.009-0.704-0.009h-0.469v8.879c0,0.186,0.038,0.356,0.113,0.512c0.076,0.155,0.207,0.274,0.396,0.359
	c0.097,0.039,0.3,0.093,0.609,0.161c0.31,0.067,0.55,0.104,0.723,0.11v0.85h-5.41v-0.85c0.151-0.011,0.381-0.034,0.69-0.068
	s0.523-0.076,0.642-0.127c0.177-0.073,0.308-0.179,0.392-0.317c0.083-0.138,0.125-0.323,0.125-0.554v-8.955h-0.468
	c-0.167,0-0.374,0.002-0.622,0.007s-0.484,0.014-0.71,0.029c-0.178,0.012-0.362,0.071-0.553,0.177
	c-0.191,0.106-0.367,0.227-0.529,0.362c-0.162,0.135-0.304,0.278-0.428,0.43c-0.124,0.151-0.21,0.276-0.259,0.375H220v-2.507h9.987
	v2.507h-0.557C229.381,51.41,229.293,51.282,229.167,51.133z M223.05,37.001c-3.318-0.03-6.033-2.737-6.063-6.047
	c-0.03-3.31,2.636-5.969,5.955-5.938c1.655,0.015,3.161,0.696,4.257,1.786l-1.398,1.398c-0.73-0.733-1.735-1.192-2.841-1.203
	c-2.207-0.02-3.979,1.753-3.959,3.959s1.825,4.012,4.032,4.032s3.979-1.753,3.959-3.959c0-0.01-0.002-0.019-0.002-0.028H229v-0.012
	c0,0.025,0.004,0.049,0.004,0.074C229.034,34.372,226.368,37.031,223.05,37.001z M229,25v5h-5L229,25z M223,8h5v5h-5V8z M223,2h5v5
	h-5V2z M217,8h5v5h-5V8z M217,2h5v5h-5V2z M216,51l1.5-2l1.5,2h-1v8h1l-1.5,2l-1.5-2h1v-8H216z M199,109c-3.313,0-6-2.687-6-6
	s2.687-6,6-6s6,2.687,6,6S202.313,109,199,109z M199,99c-2.209,0-4,1.791-4,4s1.791,4,4,4s4-1.791,4-4S201.209,99,199,99z
	 M196,103.5l1.5-1.5l1,1l2.5-2.5l1.5,1.5l-4,4L196,103.5z M195.109,60.453c0.154-0.011,0.375-0.028,0.662-0.051
	c0.287-0.022,0.491-0.056,0.612-0.102c0.215-0.079,0.377-0.187,0.488-0.325s0.185-0.306,0.223-0.503l1.984-8.776
	c0.011-0.051,0.019-0.102,0.025-0.152c0.005-0.051,0.008-0.102,0.008-0.152c0-0.113-0.023-0.211-0.07-0.296
	c-0.047-0.084-0.145-0.161-0.294-0.228c-0.148-0.068-0.351-0.131-0.607-0.19c-0.256-0.059-0.445-0.094-0.566-0.105l0.124-0.558h5.29
	l-0.124,0.558c-0.171,0.006-0.394,0.031-0.67,0.076c-0.275,0.045-0.479,0.087-0.612,0.127c-0.231,0.073-0.397,0.186-0.496,0.338
	s-0.171,0.32-0.215,0.502l-1.99,8.767c-0.011,0.038-0.02,0.083-0.025,0.133c-0.006,0.051-0.008,0.096-0.008,0.135
	c0,0.13,0.027,0.24,0.083,0.33c0.055,0.09,0.154,0.169,0.298,0.237c0.083,0.04,0.265,0.086,0.546,0.14
	c0.281,0.054,0.49,0.086,0.628,0.097l-0.124,0.558h-5.292L195.109,60.453z M195,85V74h2v4.583L202,74v11l-5-4.583V85H195z M199,37
	c-3.313,0-6-2.687-6-6s2.687-6,6-6s6,2.687,6,6S202.313,37,199,37z M199,27c-2.209,0-4,1.791-4,4s1.791,4,4,4s4-1.791,4-4
	S201.209,27,199,27z M198,28.501L201,31l-3,2.499V28.501z M193,2h12v11h-12V2z M203,12h1v-1h-1V12z M203,10h1V9h-1V10z M203,8h1V7
	h-1V8z M203,6h1V5h-1V6z M203,4h1V3h-1V4z M196,12h6V8h-6V12z M196,7h6V3h-6V7z M194,12h1v-1h-1V12z M194,10h1V9h-1V10z M194,8h1V7
	h-1V8z M194,6h1V5h-1V6z M194,4h1V3h-1V4z M181.939,129.614c0,0,0.021,0.076,0.019,0.155c-0.002,0.078-0.028,0.248-0.028,0.209
	s-0.083-0.087-0.083-0.087l-0.011,0.068l-0.065,0.002l-0.002-0.108l-1.961-0.745c0,0-0.002-0.093-0.012-0.095
	c-0.002,0.093,0.004,0.155-0.009,0.163c-0.019-0.006-2.171-0.807-2.218-0.829c-0.021-0.01-0.009-0.089-0.009-0.089l-0.555-0.069
	l-0.002,0.062c0,0-1.167-0.137-1.199-0.12c-0.032,0.017,0.03,1.441-0.025,2.153c-0.056,0.712-0.15,1.096-0.192,1.233
	c-0.039,0.128-0.007,0.157,0.067,0.211c0.074,0.054,1.56,0.976,1.685,1.055c0.122,0.078,0.125,0.114,0.125,0.161
	c0,0.062,0.002,0.471,0.002,0.471l-2.068-0.422c0,0-0.012,0.172-0.042,0.198c-0.03,0.025-0.092,0.016-0.092,0.016
	s-0.042,0.358-0.065,0.381c-0.023,0.023-0.062,0.035-0.062,0.035s-0.092,0.369-0.134,0.379v0c0,0,0,0-0.001,0s0,0-0.001,0v0
	c-0.042-0.01-0.135-0.379-0.135-0.379s-0.039-0.012-0.062-0.035c-0.023-0.023-0.065-0.381-0.065-0.381s-0.062,0.009-0.092-0.016
	c-0.03-0.025-0.042-0.198-0.042-0.198l-2.068,0.422c0,0,0.002-0.409,0.002-0.471c0-0.047,0.002-0.083,0.125-0.161
	c0.125-0.079,1.61-1,1.685-1.055c0.074-0.054,0.105-0.083,0.067-0.211c-0.042-0.137-0.136-0.521-0.192-1.233
	c-0.055-0.712,0.007-2.136-0.025-2.153c-0.032-0.018-1.199,0.12-1.199,0.12l-0.002-0.062l-0.555,0.069c0,0,0.012,0.08-0.009,0.089
	c-0.047,0.021-2.199,0.823-2.218,0.829c-0.014-0.008-0.007-0.07-0.009-0.163c-0.009,0.002-0.012,0.095-0.012,0.095l-1.961,0.745
	l-0.002,0.108l-0.065-0.002l-0.012-0.068c0,0-0.083,0.049-0.083,0.087s-0.025-0.131-0.028-0.209
	c-0.002-0.08,0.019-0.155,0.019-0.155s-0.067,0.018-0.06-0.056c0.004-0.047,0.178-0.262,0.178-0.262s0.013-0.032,0.01-0.055
	c-0.002-0.026,0.036-0.043,0.057-0.059c0.012-0.009-0.001-0.057-0.001-0.057s0.65-0.467,1.776-1.199
	c1.124-0.73,2.455-1.626,2.455-1.626s0-0.052-0.013-0.124c-0.012-0.072-0.021-0.103-0.021-0.103s-0.068-0.018-0.086-0.064
	c-0.014-0.035-0.049-0.287-0.043-0.514s0.021-0.346,0.04-0.382c0.019-0.037,0.081-0.052,0.16-0.062
	c0.083-0.011,0.406-0.004,0.484,0.005c0.074,0.009,0.12,0.018,0.132,0.106s0.015,0.39,0.006,0.514
	c-0.007,0.088-0.034,0.188-0.019,0.193c0.015,0.005,0.283-0.214,0.431-0.302s0.4-0.271,0.431-0.328
	c0.031-0.057,0.034-0.064,0.052-0.013c0.019,0.052,0.016,0.104-0.009,0.139c-0.024,0.036-0.037,0.083-0.012,0.104
	c0.009,0.008,0.083-0.044,0.102-0.075c0.019-0.031,0-0.09,0.013-0.116c0.012-0.026,0.061-0.101,0.059-0.163
	c-0.013-0.369-0.027-0.549-0.031-1.757c-0.003-1.293,0.012-1.679,0.207-2.37c0.177-0.627,0.31-0.751,0.378-0.841
	c0.063-0.083,0.205-0.148,0.264-0.15l0,0c0,0,0,0,0.001,0c0,0,0,0,0.001,0l0,0c0.059,0.001,0.201,0.066,0.264,0.15
	c0.068,0.09,0.201,0.214,0.378,0.841c0.195,0.69,0.21,1.077,0.206,2.37c-0.003,1.208-0.018,1.388-0.031,1.757
	c-0.002,0.062,0.046,0.137,0.059,0.163s-0.006,0.085,0.012,0.116c0.019,0.031,0.093,0.083,0.102,0.075
	c0.024-0.021,0.012-0.067-0.013-0.104c-0.024-0.036-0.027-0.087-0.009-0.139c0.018-0.052,0.021-0.044,0.052,0.013
	c0.031,0.057,0.283,0.24,0.431,0.328s0.416,0.307,0.431,0.302c0.016-0.005-0.012-0.105-0.019-0.193
	c-0.009-0.124-0.006-0.426,0.006-0.514s0.059-0.097,0.132-0.106c0.078-0.009,0.4-0.016,0.484-0.005
	c0.079,0.01,0.142,0.025,0.16,0.062c0.019,0.036,0.034,0.155,0.04,0.382c0.006,0.227-0.029,0.479-0.043,0.514
	c-0.019,0.046-0.086,0.064-0.086,0.064s-0.009,0.031-0.021,0.103c-0.013,0.072-0.013,0.124-0.013,0.124s1.331,0.896,2.455,1.626
	c1.126,0.732,1.776,1.199,1.776,1.199s-0.013,0.048-0.001,0.057c0.021,0.015,0.059,0.032,0.057,0.059
	c-0.002,0.023,0.01,0.055,0.01,0.055s0.174,0.214,0.178,0.262C182.006,129.632,181.939,129.614,181.939,129.614z M168.465,129.071
	l-0.13,0.084l0.011,0.012l0.131-0.084L168.465,129.071z M168.726,128.904l-0.246,0.158l0.012,0.012l0.246-0.158L168.726,128.904z
	 M168.987,128.736l-0.247,0.159l0.012,0.012l0.245-0.158L168.987,128.736z M169.317,128.524l-0.315,0.202l0.01,0.013l0.316-0.203
	L169.317,128.524z M169.621,128.329l-0.289,0.186l0.011,0.012l0.29-0.186L169.621,128.329z M169.929,128.131l-0.292,0.188
	l0.011,0.012l0.292-0.188L169.929,128.131z M170.247,127.927l-0.303,0.195l0.011,0.012l0.305-0.196L170.247,127.927z
	 M170.567,127.721l-0.306,0.196l0.013,0.012l0.304-0.195L170.567,127.721z M170.886,127.517l-0.304,0.195l0.011,0.013l0.302-0.194
	L170.886,127.517z M171.201,127.314l-0.301,0.193l0.009,0.014l0.302-0.194L171.201,127.314z M171.505,127.119l-0.289,0.186
	l0.011,0.013l0.29-0.186L171.505,127.119z M171.808,126.924l-0.289,0.186l0.011,0.012l0.287-0.184L171.808,126.924z
	 M172.166,126.695l-0.343,0.22l0.01,0.013l0.341-0.219L172.166,126.695z M172.259,126.635l-0.079,0.051l0.008,0.014l0.078-0.05
	L172.259,126.635z M172.551,126.447l-0.277,0.178l0.007,0.015l0.281-0.181L172.551,126.447z M177.449,126.447l-0.012,0.012
	l0.282,0.181l0.007-0.015L177.449,126.447z M177.741,126.635l-0.007,0.015l0.078,0.05l0.008-0.014L177.741,126.635z
	 M177.834,126.695l-0.008,0.015l0.341,0.219l0.01-0.013L177.834,126.695z M178.192,126.924l-0.009,0.014l0.287,0.184l0.011-0.012
	L178.192,126.924z M178.495,127.119l-0.011,0.013l0.29,0.186l0.011-0.013L178.495,127.119z M178.799,127.314l-0.011,0.013
	l0.302,0.194l0.009-0.014L178.799,127.314z M179.114,127.517l-0.009,0.013l0.302,0.194l0.011-0.013L179.114,127.517z
	 M179.433,127.721l-0.011,0.013l0.304,0.195l0.013-0.012L179.433,127.721z M179.753,127.927l-0.013,0.011l0.305,0.196l0.011-0.012
	L179.753,127.927z M180.071,128.131l-0.011,0.013l0.292,0.188l0.011-0.012L180.071,128.131z M180.378,128.329l-0.011,0.012
	l0.29,0.186l0.011-0.012L180.378,128.329z M180.683,128.524l-0.011,0.013l0.316,0.203l0.01-0.013L180.683,128.524z M181.013,128.736
	l-0.01,0.013l0.245,0.158l0.011-0.012L181.013,128.736z M181.274,128.904l-0.012,0.012l0.246,0.158l0.012-0.012L181.274,128.904z
	 M181.535,129.071l-0.012,0.012l0.131,0.084l0.011-0.012L181.535,129.071z M175,97c3.313,0,6,2.687,6,6s-2.687,6-6,6s-6-2.687-6-6
	S171.687,97,175,97z M175,107c2.209,0,4-1.791,4-4s-1.791-4-4-4s-4,1.791-4,4S172.791,107,175,107z M176.885,99.799
	c0.434,0.442,0.875,0.882,1.316,1.316c-0.618,0.606-1.261,1.241-1.907,1.885c0.646,0.644,1.289,1.279,1.907,1.885
	c-0.442,0.434-0.882,0.875-1.316,1.316c-0.606-0.618-1.241-1.261-1.885-1.907c-0.644,0.646-1.279,1.289-1.885,1.907
	c-0.434-0.442-0.875-0.882-1.316-1.316c0.618-0.606,1.261-1.241,1.907-1.885c-0.646-0.644-1.289-1.279-1.907-1.885
	c0.442-0.434,0.882-0.875,1.316-1.316c0.606,0.618,1.241,1.261,1.885,1.908C175.644,101.06,176.279,100.417,176.885,99.799z
	 M178.5,80l-2.5,0l0,2.5h2l-3.003,3l-2.997-3h2l0-2.5l-2.5,0v2l-3-3.003l3-2.997v2l2.5,0l0-2.5h-2l3.003-3l2.997,3h-2l0,2.5l2.5,0
	v-2l3,3.003l-3,2.997V80z M169.002,13.006c-0.012-0.558,0-1.133,0-1.559c0.23-0.626,0.071-0.701,0.708-0.954
	c0.699-0.277,1.474-0.598,2.171-0.867c0.199-0.051,0.398-0.102,0.597-0.153c0.237-0.154,0.47-0.664,0.597-0.917l0.283-0.065
	c-0.064-0.334-0.285-0.361-0.377-0.598c-0.036-0.356-0.072-0.714-0.108-1.07c0.001,0.017-0.26-0.045-0.294-0.065
	c-0.369-0.217-0.376-1.098-0.412-1.464c-0.016-0.168,0.127-0.305,0.055-0.612c-0.421-1.798,0.282-3.014,1.197-3.293
	c0.635-0.242,1.82-0.69,2.926-0.051l0.274,0.239l0.444,0.072c0.223,0.121,0.365,0.521,0.365,0.521
	c0.117,0.442,0.129,0.854,0.118,1.308c-0.004,0.175-0.005,0.985,0.025,1.233c0.025,0.205-0.03,0.221,0.057,0.39
	c0.149,0.293,0.1,0.699,0.042,0.995c-0.031,0.162-0.098,0.393-0.199,0.525c-0.112,0.146-0.334,0.147-0.433,0.317
	c-0.142,0.245-0.062,0.589-0.151,0.854c-0.102,0.3-0.36,0.321-0.38,0.713c0.126,0.017,0.253,0.034,0.38,0.051
	c0.127,0.253,0.359,0.764,0.597,0.917c0.199,0.051,0.398,0.102,0.597,0.153c0.697,0.269,1.472,0.59,2.171,0.867
	c0.636,0.252,0.527,0.327,0.758,0.954c0,0.426,0.012,1.001,0,1.559H169.002z M169,31l3-6h6l3,6v6h-12V31z M173,31v2h4v-2h2l-2-4.5
	h-4l-2,4.5H173z M170.686,50.326c-0.063-0.135-0.215-0.254-0.456-0.355c-0.178-0.073-0.384-0.134-0.619-0.182
	s-0.441-0.086-0.619-0.114v-0.659h6.625c1.667,0,2.87,0.226,3.608,0.676c0.739,0.451,1.108,1.116,1.108,1.996
	c0,0.406-0.083,0.762-0.25,1.069s-0.404,0.574-0.713,0.799c-0.281,0.208-0.616,0.389-1.005,0.541
	c-0.39,0.152-0.808,0.279-1.254,0.381v0.161c0.447,0.045,0.911,0.142,1.392,0.292c0.481,0.149,0.899,0.342,1.254,0.579
	c0.366,0.248,0.664,0.56,0.894,0.935c0.229,0.375,0.343,0.816,0.343,1.323c0,0.608-0.13,1.123-0.391,1.543s-0.634,0.751-1.121,0.993
	c-0.516,0.259-1.11,0.443-1.783,0.55c-0.673,0.107-1.465,0.161-2.375,0.161h-6.332v-0.66c0.178-0.017,0.401-0.042,0.67-0.076
	c0.269-0.034,0.458-0.073,0.567-0.118c0.212-0.084,0.356-0.196,0.434-0.334c0.077-0.138,0.116-0.317,0.116-0.537v-8.455
	C170.78,50.63,170.748,50.461,170.686,50.326z M173.83,59.498c0.051,0.209,0.211,0.385,0.481,0.529
	c0.269,0.144,0.596,0.216,0.979,0.216c0.682,0,1.236-0.226,1.663-0.677c0.426-0.452,0.64-1.087,0.64-1.906
	c0-0.835-0.252-1.476-0.756-1.922c-0.504-0.446-1.229-0.669-2.174-0.669c-0.109,0-0.253,0.004-0.434,0.013
	c-0.181,0.008-0.313,0.016-0.399,0.021V59.498z M173.83,54.266h0.447c0.928,0,1.612-0.213,2.053-0.638
	c0.441-0.426,0.662-1.002,0.662-1.729c0-0.666-0.19-1.184-0.571-1.556c-0.381-0.372-0.953-0.558-1.714-0.558
	c-0.109,0-0.25,0.004-0.425,0.013c-0.174,0.009-0.325,0.016-0.451,0.021V54.266z M157.576,6.503l-2.931,1.78
	c-0.048,0.019-0.131,0.153-0.124,0.247c0,0.026,0.004,0.047,0.01,0.062l1.287,3.477c0.038,0.107,0.066,0.209,0.067,0.336
	c-0.001,0.097-0.015,0.228-0.126,0.371c-0.104,0.141-0.316,0.226-0.467,0.226c-0.007,0-0.015,0-0.021,0
	c-0.294-0.015-0.418-0.118-0.568-0.219l-3.036-2.276c-0.024-0.019-0.08-0.041-0.146-0.04c-0.067,0-0.128,0.023-0.151,0.043
	l-2.88,2.258c-0.149,0.104-0.274,0.213-0.576,0.229c-0.159,0.009-0.392-0.084-0.497-0.233c-0.108-0.145-0.121-0.273-0.123-0.372
	c0.001-0.118,0.025-0.214,0.057-0.314l1.145-3.455c0.005-0.015,0.008-0.035,0.008-0.06c0.008-0.1-0.084-0.251-0.137-0.271
	l-2.945-1.787c-0.093-0.057-0.176-0.117-0.255-0.203c-0.075-0.084-0.167-0.206-0.171-0.405c-0.002-0.125,0.053-0.264,0.136-0.353
	c0.082-0.092,0.173-0.142,0.252-0.174c0.159-0.062,0.291-0.07,0.432-0.072l3.655-0.002c0.034,0.001,0.112-0.02,0.177-0.066
	c0.066-0.045,0.109-0.108,0.116-0.14l1.059-3.5c0.034-0.11,0.073-0.21,0.152-0.32c0.073-0.099,0.234-0.261,0.523-0.267
	c0.291,0.006,0.451,0.169,0.523,0.267c0.08,0.109,0.119,0.208,0.153,0.318l1.059,3.503c0.007,0.031,0.05,0.094,0.117,0.139
	c0.064,0.047,0.143,0.068,0.177,0.066l3.654,0.002c0.106,0,0.207,0.007,0.318,0.035c0.108,0.03,0.241,0.075,0.367,0.212
	c0.082,0.09,0.138,0.229,0.135,0.353c-0.004,0.199-0.096,0.32-0.17,0.405C157.753,6.385,157.67,6.446,157.576,6.503z M152.474,6.382
	L151.5,3.199l-0.974,3.183L147.1,6.384l2.787,1.471l-1.055,3.346l2.675-2.073l2.797,2.073l-1.18-3.35l2.776-1.467L152.474,6.382z
	 M157,104l-1.08-0.106c-0.37,2.042-1.983,3.647-4.027,4.017L152,109h-2l0.106-1.08c-2.042-0.37-3.647-1.983-4.017-4.027L145,104v-2
	l1.09,0.107c0.37-2.044,1.974-3.658,4.017-4.027L150,97h2l-0.107,1.09c2.044,0.37,3.658,1.974,4.027,4.017L157,102V104z
	 M154.243,102.271c-0.281-1.252-1.261-2.239-2.514-2.519l-0.219,2.228h-1.02l-0.219-2.224c-1.252,0.281-2.239,1.261-2.52,2.514
	l2.229,0.219v1.02l-2.226,0.219c0.323,1.361,1.508,2.197,2.52,2.484l0.216-2.194h1.02l0.219,2.228
	c1.253-0.28,2.233-1.267,2.514-2.519l-2.224-0.219v-1.02L154.243,102.271z M151,81.5l-3-3l1.5-1.5l1.5,1.5l4.5-4.5l1.5,1.5L151,81.5
	z M151,25c3.313,0,6,2.687,6,6s-2.687,6-6,6s-6-2.687-6-6S147.687,25,151,25z M151,35c2.209,0,4-1.791,4-4s-1.791-4-4-4
	s-4,1.791-4,4S148.791,35,151,35z M151,28l3,3h-2v3h-2v-3h-2L151,28z M149.394,60.405v0.593h-4.379v-0.593
	c0.142-0.011,0.319-0.043,0.533-0.096c0.213-0.053,0.388-0.124,0.524-0.213c0.218-0.15,0.388-0.307,0.508-0.471
	s0.238-0.391,0.353-0.68c0.584-1.485,1.229-3.154,1.934-5.007c0.705-1.852,1.333-3.501,1.885-4.948h0.655l3.876,10.213
	c0.082,0.217,0.175,0.392,0.279,0.525c0.104,0.134,0.249,0.264,0.434,0.392c0.125,0.078,0.29,0.144,0.492,0.196
	s0.372,0.082,0.508,0.087v0.593h-4.833v-0.593c0.426-0.027,0.78-0.083,1.061-0.167c0.281-0.083,0.422-0.187,0.422-0.309
	c0-0.05-0.005-0.111-0.016-0.184c-0.011-0.072-0.027-0.136-0.049-0.192l-0.963-2.653h-4.082c-0.153,0.39-0.277,0.729-0.374,1.018
	c-0.096,0.289-0.182,0.556-0.258,0.801c-0.071,0.239-0.12,0.434-0.148,0.584c-0.027,0.15-0.041,0.272-0.041,0.367
	c0,0.222,0.172,0.395,0.517,0.517C148.575,60.311,148.962,60.383,149.394,60.405z M152.317,56.158l-1.761-4.595l-1.736,4.595
	H152.317z M156,77.5V82c0,1.657-1.343,3-3,3h-5c-1.657,0-3-1.343-3-3v-5c0-1.657,1.343-3,3-3h5c0.439,0,0.854,0.1,1.23,0.27
	L152.5,76H148c-0.552,0-1,0.448-1,1v5c0,0.552,0.448,1,1,1h5c0.552,0,1-0.448,1-1v-2.5L156,77.5z M157.928,133h-13.856L151,121
	L157.928,133z M152.153,126.228c-0.018,0.108-0.047,0.246-0.089,0.421c-0.046,0.187-0.099,0.453-0.164,0.835
	c-0.081,0.474-0.172,1.244-0.292,2.601h-1.207c-0.126-1.368-0.222-2.136-0.307-2.603c-0.069-0.378-0.124-0.643-0.171-0.83
	c-0.037-0.154-0.065-0.291-0.086-0.413c-0.019-0.111-0.016-0.188,0.007-0.237l-3.174,5.498H150c0-0.552,0.448-1,1-1s1,0.448,1,1
	h3.33L151,124l-1.153,1.998c0.045-0.094,0.183-0.168,0.409-0.227c0.216-0.056,0.458-0.083,0.733-0.083
	c0.271,0,0.513,0.027,0.733,0.083c0.232,0.059,0.374,0.135,0.418,0.229C152.165,126.054,152.17,126.129,152.153,126.228z
	 M133.576,6.503l-2.931,1.78c-0.048,0.019-0.131,0.153-0.124,0.247c0,0.026,0.004,0.047,0.01,0.062l1.287,3.477
	c0.038,0.107,0.066,0.209,0.067,0.336c-0.001,0.097-0.015,0.228-0.126,0.371c-0.104,0.141-0.316,0.226-0.467,0.226
	c-0.007,0-0.015,0-0.021,0c-0.294-0.015-0.418-0.118-0.568-0.219l-3.036-2.276c-0.024-0.019-0.08-0.041-0.146-0.04
	c-0.067,0-0.128,0.023-0.151,0.043l-2.88,2.258c-0.149,0.104-0.274,0.213-0.576,0.229c-0.159,0.009-0.392-0.084-0.497-0.233
	c-0.108-0.145-0.121-0.273-0.123-0.372c0.001-0.118,0.025-0.214,0.057-0.314l1.145-3.455c0.005-0.015,0.008-0.035,0.008-0.06
	c0.008-0.1-0.084-0.251-0.137-0.271l-2.945-1.787c-0.093-0.057-0.176-0.117-0.255-0.203c-0.075-0.084-0.167-0.206-0.171-0.405
	c-0.002-0.125,0.053-0.264,0.136-0.353c0.082-0.092,0.173-0.142,0.252-0.174c0.159-0.062,0.291-0.07,0.432-0.072l3.655-0.002
	c0.034,0.001,0.112-0.02,0.177-0.066c0.066-0.045,0.109-0.108,0.116-0.14l1.059-3.5c0.034-0.11,0.073-0.21,0.152-0.32
	c0.073-0.099,0.234-0.261,0.523-0.267c0.291,0.006,0.451,0.169,0.523,0.267c0.08,0.109,0.119,0.208,0.153,0.318l1.059,3.503
	c0.007,0.031,0.05,0.094,0.117,0.139c0.064,0.047,0.143,0.068,0.177,0.066l3.654,0.002c0.106,0,0.207,0.007,0.318,0.035
	c0.108,0.03,0.241,0.075,0.367,0.212c0.082,0.09,0.138,0.229,0.135,0.353c-0.004,0.199-0.096,0.32-0.17,0.405
	C133.753,6.385,133.67,6.446,133.576,6.503z M127,122c0.249,0,0.493,0.022,0.735,0.061L128,121h2l-0.426,1.706l-2.319,9.274L127,133
	h-2l0.328-1.311C122.271,130.608,120,127,120,127S123.134,122,127,122z M126.487,127.052c-0.596-0.491-1.064-1.131-1.296-1.893
	c-0.12,0.256-0.191,0.54-0.191,0.841c0,0.852,0.535,1.574,1.284,1.862L126.487,127.052z M125.692,130.232l0.351-1.402
	c-1.185-0.401-2.042-1.51-2.042-2.83c0-0.554,0.16-1.066,0.422-1.511C123.03,125.524,122.1,127,122.1,127
	S123.622,129.419,125.692,130.232z M103,132c-3.866,0-7-5-7-5s3.134-5,7-5s7,5,7,5S106.866,132,103,132z M101.191,125.159
	c-0.12,0.256-0.191,0.54-0.191,0.841c0,1.104,0.896,2,2,2c0.301,0,0.584-0.071,0.841-0.191
	C102.57,127.422,101.578,126.43,101.191,125.159z M105.578,124.489C105.84,124.934,106,125.446,106,126c0,1.657-1.343,3-3,3
	s-3-1.343-3-3c0-0.554,0.16-1.066,0.422-1.511C99.03,125.524,98.1,127,98.1,127s2.194,3.5,4.9,3.5s4.9-3.5,4.9-3.5
	S106.97,125.524,105.578,124.489z M103,109c-3.313,0-6-2.686-6-6s2.687-6,6-6s6,2.686,6,6S106.313,109,103,109z M102.301,106.727
	c0.186,0.179,0.437,0.267,0.717,0.267c0.002,0,0.004,0,0.007,0c0.293,0.001,0.554-0.084,0.744-0.267
	c0.19-0.179,0.285-0.43,0.283-0.708c0.002-0.277-0.093-0.528-0.284-0.705c-0.19-0.178-0.45-0.261-0.742-0.26
	c-0.282-0.001-0.535,0.084-0.722,0.26c-0.191,0.176-0.286,0.427-0.284,0.705C102.016,106.296,102.111,106.547,102.301,106.727z
	 M105.473,101.853c0.104-0.26,0.153-0.574,0.153-0.942c0.002-0.571-0.205-1.058-0.611-1.404c-0.407-0.349-0.962-0.515-1.638-0.514
	c-0.498,0-1.242,0.091-1.608,0.217c-0.355,0.122-0.96,0.506-1.237,0.696l-0.111,0.165l1.265,0.976l0.165-0.114
	c0.083-0.057,0.178-0.113,0.287-0.169c0.107-0.055,0.219-0.104,0.337-0.146c0.116-0.042,0.231-0.074,0.347-0.097
	c0.114-0.021,0.22-0.032,0.318-0.032c0.324-0.001,0.513,0.073,0.59,0.161c0.1,0.109,0.154,0.25,0.155,0.46
	c-0.001,0.159-0.037,0.281-0.105,0.384c-0.081,0.121-0.184,0.241-0.31,0.356c-0.133,0.123-0.277,0.251-0.431,0.385
	c-0.168,0.146-0.317,0.317-0.446,0.513c-0.133,0.202-0.235,0.437-0.308,0.704c-0.051,0.186-0.075,0.394-0.075,0.622
	c0,0.114,0.006,0.233,0.018,0.358l0.015,0.161h0.161h1.327v-0.177c0-0.271,0.046-0.481,0.125-0.633
	c0.089-0.172,0.197-0.321,0.322-0.451c0.131-0.134,0.277-0.261,0.436-0.38c0.176-0.132,0.338-0.285,0.484-0.457
	C105.249,102.313,105.374,102.1,105.473,101.853z M107.714,76.123l-1.837-1.837c0,0,0.154-0.154,0.735-0.735
	c0.734-0.734,1.102-0.734,1.837,0c0.734,0.735,0.734,1.103,0,1.837C107.868,75.969,107.714,76.123,107.714,76.123z M108,82
	c0,1.657-1.343,3-3,3h-5c-1.657,0-3-1.343-3-3v-5c0-1.657,1.343-3,3-3h4.923l-2.154,2H100c-0.552,0-1,0.448-1,1v5
	c0,0.552,0.448,1,1,1h5c0.552,0,1-0.448,1-1v-2.769l2-2.154V82z M100.367,79.796l1.837,1.837l-2.197,0.36L100.367,79.796z
	 M107.347,76.49l-4.775,4.775l-1.836-1.836l4.775-4.775L107.347,76.49z M107,60l-2,2h-6v-3h-2v-7h2v-3h8v3h2v7h-2V60z M100,61h4v-2
	h2v-2h-6V61z M106,50h-6v3h6V50z M108,55v-1h-2v1H108z M108,37H97v-3h5.5h5.5V37z M107,35h-2v1h2V35z M101,30v-5h3v5h2.5l-4,4l-4-4
	H101z M102.5,13.002l-4.873-4.701c0,0-1.625-1.47-1.625-3.144c0-2.358,1.58-3.159,3.234-3.159s3.264,1.921,3.264,1.921
	s1.609-1.921,3.264-1.921s3.234,0.801,3.234,3.159c0,1.674-1.625,3.144-1.625,3.144L102.5,13.002z M80.5,37h-3H77h-5l4-12h2.5
	l-0.167,2h1.333L79.5,25H82l4,12h-5H80.5z M79.75,28h-1.5L78,31h2L79.75,28z M80.083,32h-2.167l-0.333,4h2.833L80.083,32z M77,7.8
	l2.5,2.492L82,7.8l4,3.2H73L77,7.8z M86,3.8V10l-3.5-2.7L86,3.8z M73,10V3.8l3.5,3.5L73,10z M73.5,3h12l-6,6L73.5,3z
	 M60.982,124.831c0.369,5.383-7.885,8.52-9.648,4.796c1.012-1.344,2.529-2.549,4.324-3.137C58.855,125.442,60,122,60,122
	s-2.521,2.544-3.794,3.162c-1.73,0.84-3.688,2.144-5.127,3.659C51.032,128.566,51,128.297,51,128c0-3.834,2.213-5.628,5.538-5.966
	C58.04,121.881,61,121,61,121S60.778,121.846,60.982,124.831z M50,133h-1c0-1.445,0.852-2.889,2.079-4.18
	c0.056,0.298,0.141,0.566,0.255,0.806C50.493,130.744,50,131.959,50,133z M55,109c-3.313,0-6-2.687-6-6s2.687-6,6-6s6,2.687,6,6
	S58.313,109,55,109z M58.262,101.369l-1.631-1.631L55,101.369l-1.631-1.631l-1.631,1.631L53.369,103l-1.631,1.631l1.631,1.631
	L55,104.631l1.631,1.631l1.631-1.631L56.631,103L58.262,101.369z M55,85c-3.313,0-6-2.687-6-6s2.687-6,6-6s6,2.687,6,6
	S58.313,85,55,85z M55,75c-2.209,0-4,1.791-4,4s1.791,4,4,4V75z M58,61h-8V51c0-1,1-2,2-2h7h1v11h-1V50h-6c-1,0-1,0-1,1h6V61z
	 M55,37c-3.313,0-6-2.687-6-6s2.687-6,6-6s6,2.687,6,6S58.313,37,55,37z M55,27c-2.209,0-4,1.791-4,4s1.791,4,4,4s4-1.791,4-4
	S57.209,27,55,27z M54,31v-3h1v3h2v1h-3V31z M57.308,11.154c-0.502-0.502-0.999-1.271-1.353-1.874
	c-0.706,0.459-1.544,0.731-2.449,0.731C51.017,10.012,49,7.995,49,5.506S51.017,1,53.506,1s4.506,2.017,4.506,4.506
	c0,0.905-0.272,1.744-0.731,2.449c0.603,0.354,1.372,0.851,1.874,1.353C60.077,10.231,61,11.154,61,11.154L59.154,13
	C59.154,13,58.212,12.058,57.308,11.154z M53.505,2.508c-1.655,0-2.997,1.342-2.997,2.997c0,1.656,1.342,2.998,2.997,2.998
	c1.656,0,2.998-1.342,2.998-2.998C56.503,3.85,55.161,2.508,53.505,2.508z M36,127.469h-4.5v-3.468h-1.031v3.468H26V125h-1v-1h1
	c-1-1-1-3,1.5-3c0.737,0,1.269,0.273,1.698,0.616C29.664,121.273,30.263,121,31,121s1.336,0.273,1.802,0.616
	c0.43-0.343,0.961-0.616,1.698-0.616c2.5,0,2.5,2,1.5,3h1v1h-1V127.469z M27.5,122c-1.161,0-1.022,2,0.5,2h1.075
	C28.518,123.127,28.42,122,27.5,122z M34.5,122c-0.92,0-0.902,1.127-1.441,2H33v0.091c0.021-0.03,0.041-0.06,0.059-0.091H34
	C36,124,36,122,34.5,122z M31,109c-3.313,0-6-2.687-6-6s2.687-6,6-6s6,2.687,6,6S34.313,109,31,109z M34,102h-6v2h6V102z M31,72
	c2.761,0,5,2.239,5,5s-5,9-5,9s-5-6.239-5-9S28.239,72,31,72z M31,79c1.104,0,2-0.896,2-2s-0.896-2-2-2s-2,0.896-2,2
	S29.896,79,31,79z M32.748,61.899c-0.136,0.126-0.359,0.126-0.496,0l-5.702-5.265c-0.136-0.126-0.262-0.374-0.279-0.551
	l-0.141-1.463l5.472,5.053c0.24,0.221,0.558,0.343,0.897,0.343c0.338,0,0.657-0.122,0.896-0.342l2.868-2.648l0.633,0.584
	c0.136,0.126,0.136,0.332,0,0.458L32.748,61.899z M32.748,59.074c-0.068,0.063-0.158,0.095-0.248,0.095
	c-0.09,0-0.18-0.032-0.248-0.095l-5.702-5.265c-0.136-0.126-0.262-0.374-0.279-0.551l-0.274-2.855
	c-0.018-0.177,0.081-0.425,0.216-0.551l0.704-0.65C27.043,49.086,27.281,49,27.468,49c0.016,0,0.031,0,0.046,0.002l3.083,0.259
	c0.192,0.016,0.461,0.132,0.597,0.258l5.702,5.265c0.136,0.125,0.136,0.332,0,0.458L32.748,59.074z M28.682,50.283
	c-0.194-0.195-0.449-0.293-0.703-0.293c-0.254,0-0.508,0.098-0.702,0.292c-0.389,0.39-0.388,1.022,0,1.413
	c0.194,0.195,0.448,0.293,0.702,0.293s0.508-0.098,0.702-0.293C29.069,51.305,29.07,50.673,28.682,50.283z M35,28.5V29h-3v-3.5
	L35,28.5z M35,37h-9V25h5v5h4V37z M32.061,10.157c-0.292-0.748,0.339-1.647,1.41-2.01C34.007,7.965,34.553,7.953,35,8.08V4l-6,1.5
	V11c0,0,0.154,1.292-1.479,1.853c-1.054,0.363-2.143,0.051-2.43-0.696c-0.288-0.748,0.333-1.647,1.388-2.01
	c0.536-0.185,1.077-0.191,1.521-0.059V3l8-2v8c0,0,0.191,1.291-1.471,1.853C33.458,11.216,32.353,10.904,32.061,10.157z M11.5,77
	L9,74.5c0,0,0.209-0.209,1-1c1-1,1.5-1,2.5,0s1,1.5,0,2.5C11.709,76.791,11.5,77,11.5,77z M11,37H8v-5H5v5H2v-6.5H0L6.5,24l6.5,6.5
	h-2V37z M8,11.5c1.022,0,3,1,3,1V13H3v-0.5c0,0,1.7-1,3-1C6,11.5,6,8,6,7c0-0.808-5-5.5-5-5.5V1h12v0.5c0,0-5,4.702-5,5.5
	C8,8,8,11.5,8,11.5z M12.364,73.364 M2.002,49.235C2.151,49.086,2.444,48.98,2.654,49l3.363,0.306
	c0.21,0.019,0.503,0.156,0.651,0.305l6.219,6.213c0.148,0.148,0.148,0.392,0,0.541l-4.526,4.522c-0.149,0.148-0.392,0.148-0.541,0
	l-6.219-6.213c-0.149-0.149-0.286-0.441-0.304-0.651l-0.3-3.369c-0.019-0.209,0.088-0.502,0.236-0.65L2.002,49.235z M2.283,51.692
	c0.384,0.391,1.006,0.392,1.39,0c0.384-0.39,0.384-1.024,0-1.415c-0.384-0.391-1.007-0.392-1.391,0
	C1.898,50.668,1.898,51.302,2.283,51.692z M1.5,82L4,84.5l-2.991,0.491L1.5,82z M11,77.5L4.5,84L2,81.5L8.5,75L11,77.5z M7,97
	c3.314,0,6,2.687,6,6s-2.686,6-6,6s-6-2.687-6-6S3.686,97,7,97z M4,104h2v2h2v-2h2v-2H8v-2H6v2H4V104z M7,121c3.314,0,6,2.687,6,6
	s-2.686,6-6,6s-6-2.687-6-6S3.686,121,7,121z M6.311,130.704c0.198,0.197,0.431,0.295,0.698,0.295c0.265,0,0.496-0.099,0.693-0.295
	c0.198-0.197,0.296-0.433,0.296-0.708s-0.099-0.512-0.296-0.713c-0.198-0.2-0.429-0.301-0.693-0.301
	c-0.268,0-0.501,0.101-0.698,0.301c-0.198,0.201-0.296,0.438-0.296,0.713S6.113,130.506,6.311,130.704z M6.086,124.622
	c0.055,0.273,0.115,0.552,0.18,0.837c0.072,0.311,0.155,0.696,0.247,1.154c0.093,0.459,0.191,1.034,0.294,1.724h0.397
	c0.103-0.683,0.201-1.256,0.294-1.721s0.175-0.852,0.247-1.163c0.076-0.329,0.138-0.615,0.188-0.859
	c0.05-0.244,0.075-0.44,0.075-0.588c0-0.278-0.1-0.516-0.299-0.713c-0.199-0.197-0.435-0.295-0.706-0.295
	c-0.275,0-0.51,0.098-0.706,0.295c-0.196,0.197-0.294,0.435-0.294,0.713C6.004,124.144,6.031,124.349,6.086,124.622z M30.469,132H26
	v-3.5h4.469V132z M36,132h-4.5v-3.5H36V132z M75,51c0-2,0-2,2-2c1,0,3,0,4,0c2,0,2,0,2,2s0,10,0,10l-4-4l-4,4C75,61,75,52,75,51z
	 M78.5,85c-2.485,0-4.5-1.451-4.5-4c0-5,4.5-6,4.5-9c0,3,4.5,4,4.5,9C83,83.549,80.985,85,78.5,85z M77,77c-1,1-2,2-2,4c0,1,1,2,1,1
	c0-1.414-0.066-2.934,1-4c1-1,1-3,1-3S78,76,77,77z M79,97c3.313,0,6,2.687,6,6s-2.687,6-6,6s-6-2.687-6-6S75.687,97,79,97z
	 M75,103.5l3,3l5-5l-1.5-1.5l-3.5,3.5l-1.5-1.5L75,103.5z M78,128c-1-1-1-1.697-1-3c0-3,3-5,3-5s-1,2-1,4c0,1,1,2,1,2
	c0.861,0,2,0,1-1s0-2,0-2s3,2,3,5c0,2.761-2.239,5-5,5c-0.158,0-0.846,0.014-1,0c2-1,2-2.662,2-4.5c0-0.2-0.024-0.389-0.038-0.583
	C79,129,79,132,76.024,131.998C74.802,131.086,74,129.642,74,128c0-0.458,1-3,2-4C74,129,77,130,78,128z M127,109
	c-3.313,0-6-2.686-6-6s2.687-6,6-6s6,2.686,6,6S130.313,109,127,109z M128.623,98.763c-0.149-0.159-0.38-0.261-0.673-0.26
	c-0.771,0.003-1.172,0.597-1.173,1.046c0.004,0.522,0.338,0.881,0.874,0.881c0.006,0,0.012,0,0.018,0
	c0.683-0.002,1.172-0.529,1.172-1.085C128.841,99.13,128.772,98.921,128.623,98.763z M128.54,105.177l-0.087,0.071
	c-0.37,0.307-0.94,0.66-1.026,0.669c-0.004-0.011-0.01-0.035-0.009-0.072c0-0.065,0.016-0.169,0.054-0.312l0.804-2.953
	c0.07-0.275,0.108-0.7,0.108-0.903c0-0.187-0.031-0.342-0.109-0.461c-0.076-0.121-0.217-0.196-0.38-0.193
	c-0.568,0.006-1.807,0.696-2.837,1.557L125,102.627l0.286,0.699l0.097-0.065c0.275-0.193,0.832-0.562,0.958-0.603
	c-0.001,0.058-0.021,0.169-0.056,0.328l-0.732,2.85c-0.083,0.312-0.12,0.745-0.12,0.946c0,0.262,0.063,0.445,0.186,0.565
	c0.122,0.12,0.29,0.159,0.452,0.159c0.001,0,0.002,0,0.003,0c0.479-0.006,1.739-0.606,2.76-1.613l0.053-0.053l-0.043-0.06
	L128.54,105.177z M129,80.5v-1.651c-2-1-4,2.151-4,2.151c0-5,4-5,4-5v-1.5l4,3L129,80.5z M127,37c-3.313,0-6-2.687-6-6s2.687-6,6-6
	s6,2.687,6,6S130.313,37,127,37z M127,27c-2.209,0-4,1.791-4,4s1.791,4,4,4s4-1.791,4-4S129.209,27,127,27z M124,31h2v-3h2v3h2l-3,3
	L124,31z M133,58c0,1,0,1-1,1h-9c-1,0-1,0-1-1v-5c0-1,0-1,1-1h1c1,0,1-1,2-1h3c1,0,1,1,2,1h1c1,0,1,0,1,1V58z M127.506,53.008
	c-1.38,0-2.5,1.118-2.5,2.497c0,1.379,1.119,2.498,2.5,2.498s2.5-1.118,2.5-2.498C130.006,54.126,128.887,53.008,127.506,53.008z
	 M131.5,53.125c-0.207,0-0.375,0.167-0.375,0.375s0.167,0.375,0.375,0.375s0.375-0.167,0.375-0.375S131.707,53.125,131.5,53.125z
	 M127.491,56.995c-0.83,0-1.505-0.675-1.505-1.504c0-0.829,0.675-1.503,1.505-1.503c0.831,0,1.506,0.674,1.506,1.503
	C128.997,56.32,128.322,56.995,127.491,56.995z M132,79.5V82c0,1.657-1.343,3-3,3h-5c-1.657,0-3-1.343-3-3v-5c0-1.657,1.343-3,3-3
	h4.5v1c0,0-1.5,0-2.5,1h-2c-0.552,0-1,0.448-1,1v5c0,0.552,0.448,1,1,1h5c0.552,0,1-0.448,1-1v-1L132,79.5z M131.9,127
	c0,0-0.731-1.156-1.865-2.14l0.404-1.617C132.562,124.723,134,127,134,127s-2.456,3.89-5.698,4.792l0.445-1.778
	C130.586,129.063,131.9,127,131.9,127z M195,121h1v1h5v-1h1v1h2v2h-11v-2h2V121z M204,133h-11v-8h11V133z M195,127h-1v1h1V127z
	 M195,129h-1v1h1V129z M195,131h-1v1h1V131z M197,127h-1v1h1V127z M197,129h-1v1h1V129z M197,131h-1v1h1V131z M199,127h-1v1h1V127z
	 M199,129h-1v1h1V129z M199,131h-1v1h1V131z M201,127h-1v1h1V127z M201,129h-1v1h1V129z M201,131h-1v1h1V131z M203,127h-1v1h1V127z
	 M203,129h-1v1h1V129z M203,131h-1v1h1V131z M221.25,124.75l-1.5,1.5L218.5,125H216v-2h3.5L221.25,124.75z M223,109
	c-3.313,0-6-2.687-6-6s2.687-6,6-6s6,2.687,6,6S226.313,109,223,109z M223,99c-2.209,0-4,1.791-4,4c0,0.741,0.215,1.425,0.566,2.02
	l5.454-5.454C224.425,99.215,223.741,99,223,99z M220.98,106.434c0.595,0.351,1.279,0.566,2.02,0.566c2.209,0,4-1.791,4-4
	c0-0.741-0.215-1.425-0.566-2.02L220.98,106.434z M217,85V74h2v4.583L224,74v4.583L229,74v11l-5-4.583V85l-5-4.583V85H217z
	 M219.75,127.75l4-4l0.75-0.75h2.5v-1.5l2.5,2.5l-2.5,2.5V125h-1.5l-6,6H216v-2h2.5L219.75,127.75z M225.5,129h1.5v-1.5l2.5,2.5
	l-2.5,2.5V131h-2.5l-1.75-1.75l1.5-1.5L225.5,129z M242,79.5l6-5.5v4.583L253,74v11l-5-4.583V85L242,79.5z M246,102h7v3h-7v3l-6-4.5
	l6-4.5V102z M253,130h-6l-4,3v-3h-2v-8h12V130z M269,124h-3v-3h3V124z M273,121h3v3h-3V121z M269,128c0,1.104,0.896,2,2,2
	s2-0.896,2-2v-3h3v3c0,2.761-2.239,5-5,5s-5-2.239-5-5v-3h3V128z M299,50v2h-8v-2H299z M301,55h-12v-2h12V55z M299,56v2h-8v-2H299z
	 M294,75v9h-3v-9H294z M298,75v9h-3v-9H298z M293,110v-7h-3l4.5-6l4.5,6h-3v7H293z M301,61h-12v-2h12V61z M363,52h-2v-2h2V52z
	 M363,55h-2v-2h2V55z M363,58h-2v-2h2V58z M362,30h2l3-3v9l-3-3h-2V30z M363,61h-2v-2h2V61z M365.5,103l1.5,1.5l-3,3l1.5,1.5H361
	v-4.5l1.5,1.5L365.5,103z M373,97v4.5l-1.5-1.5l-3,3l-1.5-1.5l3-3l-1.5-1.5H373z M370.5,121h2.5v1h-1.182L370,132h-0.8
	c0.028,0.079,0.05,0.161,0.05,0.25c0,0.414-0.336,0.75-0.75,0.75s-0.75-0.336-0.75-0.75c0-0.089,0.022-0.171,0.05-0.25H365.2
	c0.028,0.079,0.05,0.161,0.05,0.25c0,0.414-0.336,0.75-0.75,0.75s-0.75-0.336-0.75-0.75c0-0.089,0.022-0.171,0.05-0.25H363l-0.222-1
	h5.904l0.364-2h-6.712L361,123h9.136L370.5,121z M438,28h1v1h-1v1h-4v1h-1v-1v-5h5V28z M437,26h-3v3h3V26z M436,28h-1v-1h1V28z
	 M441.5,86l-6.5-6.5l6.5-6.5l2.5,2.5l-4,4l4,4L441.5,86z M444,105h-11v-3h11V105z M436,125l3.5-4l3.5,4h-2v5h2l-3.5,4l-3.5-4h2v-5
	H436z M468,104h-2.586l1.829,1.829l-1.414,1.414L464,105.414V108h-2v-2.586l-1.829,1.829l-1.414-1.414l1.829-1.829H458v-2h2.586
	l-1.829-1.829l1.414-1.414l1.829,1.829V98h2v2.586l1.829-1.829l1.414,1.414L465.414,102H468V104z M461.5,73l6.5,6.5l-6.5,6.5
	l-2.5-2.5l4-4l-4-4L461.5,73z M461,126h5v-2l4,3.5l-4,3.5v-2h-5v2l-4-3.5l4-3.5V126z"/>
</svg>
