<?xml version="1.0" encoding="UTF-8" standalone="no"?>
<!DOCTYPE svg PUBLIC "-//W3C//DTD SVG 1.1//EN" "http://www.w3.org/Graphics/SVG/1.1/DTD/svg11.dtd">
<!--Generated by Intaglio, www.PurgatoryDesign.com-->
<svg xmlns="http://www.w3.org/2000/svg" xmlns:xlink="http://www.w3.org/1999/xlink" version="1.1" viewBox="55,61,367,355" width="100" height="100">
	<g>
		<path fill="none" stroke="#fff" stroke-width="12.1093" d="M317.767,337.591 L323.973,326.398 L339.545,326.822 L356.53,283.295 L344.179,264.666 L336.273,270.059 L324.79,259.474"/>
		<path fill="none" stroke="#fff" stroke-width="9.68741" d="M188.745,405.494 L154.982,334.171"/>
		<path fill="#fff" d="M133.133,256.159 C133.133,256.159,150.977,205.916,184.45,203.859 C258.676,199.29,247.226,179.504,247.226,179.504 L255.812,121.118 C255.812,121.118,279.328,68.8184,312.856,68.8184 C346.39,68.8184,347.005,71.864,347.005,71.864 L375.093,131.009 C375.093,131.009,389.942,173.852,356.408,147.106 C322.875,120.354,347.207,137.859,347.207,137.859 C347.207,137.859,325.738,124.593,325.738,142.427 C325.738,160.262,330.034,155.803,330.034,155.803 L342.559,204.458 C342.559,204.458,386.364,248.984,319.297,266.813 C227.283,291.278,242.4,282.581,215.57,282.581 C188.745,282.581,255.812,309.327,188.745,327.156 C121.678,344.991,162.474,323.896,162.474,323.896 L161.043,306.172 C161.043,306.172,147.917,300.515,138.856,250.831"/>
		<path fill="none" stroke="#fff" stroke-width="9.68741" d="M240.47,363.689 L249.231,398.044"/>
		<path fill="none" stroke="#fff" stroke-width="14.5311" d="M195.186,411.465 L176.577,386.196"/>
		<path d="M187.825,414.815 C190.215,414.71,194.266,414.71,196.825,414.81 C199.388,414.915,197.435,415,192.482,415 C187.534,415,185.436,414.915,187.825,414.815 Z M181.206,410.756 C179.985,408.909,178.981,406.922,178.981,406.337 C178.981,404.895,177.657,403.716,173.774,401.719 L170.512,400.036 L170.512,396.147 C170.512,391.748,169.535,387.964,165.958,378.532 C160.573,364.313,153.789,350.218,147.658,340.502 C145.541,337.147,145.095,336.009,145.095,333.912 C145.095,331.65,145.306,331.206,147.043,329.803 C153.771,324.37,156.606,320.017,157.808,313.296 C158.695,308.309,158.207,307.225,150.658,297.439 C142.809,287.274,141.856,285.836,140.616,282.356 C139.898,280.334,138.818,276.27,138.217,273.329 C136.814,266.434,136.912,266.664,135.476,266.973 C133.222,267.452,129.453,276.974,126.58,289.456 C123.876,301.189,121.627,307.17,117.951,312.378 C116.388,314.595,114.064,318.304,112.796,320.626 C111.059,323.796,108.365,327.107,101.975,333.897 C94.1728,342.195,93.1869,343.054,90.0322,344.292 C88.1403,345.041,85.1028,346.728,83.2907,348.051 C78.6525,351.426,74.2677,353.988,73.5588,353.738 C72.4556,353.349,80.1547,347.337,87.7694,342.649 C94.5671,338.465,96.6281,336.957,95.5483,336.957 C94.3512,336.957,79.0468,344.781,77.906,345.979 C75.5916,348.396,73.3241,349.869,69.606,351.357 C64.4138,353.434,63.6814,352.824,67.9253,349.954 C73.6527,346.074,72.9016,345.45,63.888,346.578 C61.2074,346.918,58.3061,347.103,57.447,346.993 C56.0996,346.828,56.386,346.618,59.4797,345.525 C63.3763,344.142,77.4507,337.052,79.1783,335.604 C80.1547,334.785,80.0702,334.775,78.1173,335.489 C76.953,335.914,74.5682,336.952,72.8218,337.791 C61.6956,343.143,53.0904,345.25,49.7948,343.433 C48.9169,342.954,48.2033,342.345,48.2033,342.08 C48.2033,341.521,50.0389,340.922,51.7759,340.907 C53.8791,340.897,53.0529,339.394,50.0577,337.776 C48.4521,336.917,47.1423,336.044,47.1423,335.844 C47.1423,335.644,49.4662,335.829,52.3064,336.258 C60.6252,337.521,63.2214,337.062,77.0563,331.915 C81.5209,330.252,83.6616,329.074,82.2204,329.074 C80.7228,329.074,76.2629,330.342,76.2629,330.766 C76.2629,331.026,75.4883,331.415,74.5447,331.63 C73.5964,331.845,71.0801,332.619,68.944,333.353 C63.0899,335.365,57.7991,335.584,53.2735,334.002 C51.2595,333.293,49.5178,332.429,49.4052,332.074 C49.1563,331.271,57.2545,330.482,60.9632,330.946 C62.4702,331.136,63.5594,331.051,63.5594,330.736 C63.5594,330.442,62.8927,330.202,62.0806,330.202 C59.9915,330.202,54.5269,328.619,53.0387,327.581 C51.9543,326.832,51.8886,326.602,52.5411,325.908 C53.0951,325.319,55.8602,324.97,63.0383,324.57 C68.3995,324.271,74.8217,323.647,77.3051,323.177 C79.7886,322.708,84.8024,322.129,88.4407,321.889 L95.0601,321.455 L81.9152,321.025 C72.1176,320.706,68.3431,320.386,67.0897,319.762 C65.2869,318.868,66.0756,318.868,90.5627,319.787 C99.0881,320.107,100.243,319.428,92.4123,318.694 C86.6943,318.159,84.3564,317.46,73.0894,312.932 C72.5448,312.717,72.4932,312.532,72.9297,312.363 C73.2772,312.223,75.8357,312.632,78.6102,313.271 C81.3847,313.91,84.793,314.41,86.1826,314.375 C88.4501,314.325,88.1919,314.205,83.6757,313.201 C77.6619,311.868,76.4038,311.06,81.4129,311.749 C85.3376,312.288,93.8207,311.948,101.679,310.94 C108.041,310.121,106.567,309.532,97.7078,309.347 C94.215,309.277,89.5674,309.057,87.3844,308.858 L83.4128,308.493 L86.591,308.104 C88.3374,307.884,92.9851,307.55,96.9144,307.35 C103.553,307.015,112.059,305.832,112.698,305.153 C112.853,304.993,107.872,304.839,101.637,304.804 C95.1258,304.774,90.8584,304.559,91.6189,304.299 C92.3466,304.05,96.6375,303.81,101.149,303.765 C109.116,303.685,109.444,303.635,112.27,302.048 C113.871,301.144,114.782,300.4,114.294,300.385 C113.538,300.36,113.66,299.696,115.172,295.712 C116.139,293.155,118.021,287.873,119.35,283.974 C120.678,280.074,123.462,272.979,125.537,268.206 C127.612,263.438,129.64,258.231,130.054,256.643 C132.377,247.651,135.64,240.556,141.677,231.374 C150.874,217.384,152.836,215.542,164.254,210.155 C167.549,208.597,171.915,206.495,173.953,205.482 C180.76,202.087,190.501,200.169,208.369,198.706 C222.964,197.513,227.772,196.12,234.382,191.177 C239.898,187.058,247.339,176.988,245.677,175.894 C244.883,175.375,245.62,172.759,247.249,170.332 C248.263,168.819,248.569,165.215,247.681,165.21 C246.977,165.21,247.259,163.946,248.113,163.282 C248.855,162.708,248.827,162.484,247.85,161.165 C246.958,159.957,246.822,159.218,247.104,157.051 C247.287,155.598,247.761,154.28,248.155,154.121 C248.611,153.936,248.752,153.352,248.55,152.483 C248.343,151.604,248.456,151.13,248.883,151.13 C249.395,151.13,249.395,150.955,248.878,150.296 C248.357,149.627,248.414,148.653,249.146,145.468 C249.653,143.276,250.108,140.515,250.165,139.332 C250.216,138.149,250.62,136.586,251.057,135.852 C251.62,134.908,251.714,134.109,251.385,133.111 C251.061,132.132,251.212,130.689,251.892,128.368 C252.982,124.628,254.484,123.245,254.052,126.38 C253.761,128.477,254.578,130.525,255.761,130.684 C256.197,130.739,257.625,131.204,258.934,131.713 C261.267,132.622,263.493,132.617,265.507,131.693 C266.216,131.368,266.408,131.423,266.145,131.878 C265.07,133.73,269.389,137.49,274.722,139.347 C276.666,140.021,280.163,141.664,282.496,142.987 C287.75,145.982,291.529,147.176,303.951,149.762 C310.894,151.21,314.964,152.373,317.969,153.776 C320.302,154.864,324.086,156.492,326.386,157.401 C330.32,158.949,330.621,158.989,331.546,158.1 C332.09,157.576,332.531,156.862,332.531,156.507 C332.531,155.179,328.954,152.273,324.856,150.271 C316.518,146.202,309.049,144.005,297.054,142.098 C289.637,140.92,289.21,140.775,284.435,137.884 C279.041,134.614,274.281,132.382,270.596,131.388 C269.098,130.984,267.596,130.04,266.521,128.827 C264.446,126.485,260.873,124.788,257.019,124.303 C255.437,124.104,254.024,123.744,253.883,123.5 C253.47,122.791,254.803,120.159,255.578,120.159 C256.451,120.159,256.493,119.475,255.667,118.602 C255.197,118.102,255.258,117.858,255.93,117.588 C256.535,117.339,256.714,116.829,256.507,115.946 C256.329,115.192,256.657,113.654,257.301,112.236 C257.911,110.903,258.404,109.255,258.404,108.576 C258.404,107.812,258.808,107.228,259.465,107.048 C260.141,106.859,260.521,106.279,260.521,105.431 C260.521,104.697,261.634,102.65,263.037,100.812 C264.422,98.9999,266.028,96.6982,266.61,95.6997 C268.084,93.1783,274.943,84.6106,278.943,80.2969 C281.407,77.6407,282.45,76.8568,282.933,77.2862 C283.417,77.7106,284.52,77.1314,287.017,75.1443 C290.529,72.3483,298.045,68.0495,300.017,67.705 C300.627,67.5952,301.524,67.8597,302.002,68.2842 C302.768,68.9582,302.88,68.9133,302.88,67.9247 C302.88,66.981,303.34,66.7364,305.66,66.4368 C310.218,65.8527,319.767,65.5481,320.016,65.9825 C320.138,66.2022,319.645,68.3141,318.912,70.6757 L317.584,74.9645 L319.748,80.8111 C322.189,87.4016,322.969,90.622,322.987,94.1619 C322.997,95.8644,323.199,96.5285,323.663,96.3637 C324.771,95.9593,324.433,87.3018,323.128,82.7134 C322.513,80.5465,321.847,77.8204,321.649,76.6621 C321.344,74.8397,321.429,74.5501,322.283,74.5501 C322.828,74.5501,323.555,75.0245,323.898,75.6086 C324.236,76.1878,325.245,76.9367,326.137,77.2662 C327.546,77.7855,327.954,77.6856,329.311,76.4724 C330.921,75.0294,332.884,70.5459,332.325,69.5823 C332.146,69.2777,330.809,68.7235,329.349,68.3541 C327.039,67.7649,326.508,67.7999,325.321,68.6236 C324.574,69.1479,323.565,70.3162,323.081,71.2149 C321.771,73.6614,320.664,73.3918,321.175,70.7456 C321.401,69.5873,321.621,68.0694,321.668,67.3754 C321.72,66.6765,321.912,65.9425,322.105,65.7378 C322.391,65.4332,330.945,64.3398,332.794,64.3748 C333.085,64.3798,335.48,64.6794,338.109,65.0438 L342.897,65.7078 L347.23,63.6308 C351.343,61.6537,356.887,60.3406,356.887,61.3441 C356.887,61.5988,356.371,62.3877,355.742,63.1016 C354.742,64.235,354.676,64.5945,355.234,65.8926 C355.723,67.041,355.732,68.0545,355.258,70.2963 C354.709,72.9025,354.404,73.3519,352.38,74.4902 C349.709,75.9981,346.742,79.0536,347.948,79.0536 C348.756,79.0536,351.235,77.2812,352.854,75.5487 C353.54,74.8098,354.296,74.655,355.986,74.8946 C357.587,75.1243,358.924,74.8847,360.769,74.0359 C362.178,73.3868,363.549,72.8576,363.811,72.8576 C364.943,72.8576,364.267,77.8754,362.708,81.0258 C361.835,82.7933,361.121,84.8253,361.121,85.5443 C361.121,86.8974,358.91,89.1891,357.61,89.1891 C356.558,89.1891,356.723,90.1826,357.835,90.5621 C358.356,90.7368,359.441,92.2097,360.239,93.8374 C361.042,95.46,361.99,97.2974,362.347,97.9165 C362.704,98.5356,364.173,101.451,365.614,104.392 C367.051,107.338,371.154,113.859,374.726,118.891 C378.304,123.919,381.825,129.251,382.552,130.729 C384.247,134.179,384.496,140.011,383.219,146.312 C382.247,151.1,380.956,153.092,377.036,155.823 C375.999,156.542,374.187,157.81,373.008,158.639 C371.825,159.463,370.422,160.142,369.891,160.142 C369.356,160.142,368.638,160.546,368.295,161.041 C367.318,162.469,364.14,162.124,360.201,160.167 C355.587,157.87,354.216,156.427,350.948,150.411 C347.873,144.744,346.31,143.146,341.611,140.875 C339.761,139.976,337.761,138.763,337.165,138.174 C336.367,137.38,335.836,137.24,335.137,137.639 C333.719,138.448,332.531,138.293,332.531,137.3 C332.531,136.656,332.837,136.516,333.658,136.795 C334.414,137.05,334.663,136.97,334.419,136.551 C333.682,135.283,331.541,135.907,330.198,137.779 C328.935,139.542,328.907,139.736,329.621,141.863 C330.029,143.086,330.377,144.759,330.391,145.573 C330.409,146.871,331.358,149.113,334.752,155.918 C337.789,161.999,337.972,162.873,338.433,173.373 C338.728,180.153,339.146,184.222,339.686,185.66 C340.526,187.897,344.737,194.807,350.16,202.855 C351.906,205.442,354.38,210.13,355.662,213.275 C356.939,216.416,358.253,219.546,358.572,220.23 C359.413,222.013,358.647,243.642,357.652,246.168 C357.248,247.202,355.483,249.763,353.728,251.865 C351.023,255.095,350.531,256.014,350.531,257.801 C350.531,259.439,350.77,259.983,351.587,260.213 C352.164,260.373,352.521,260.707,352.38,260.952 C352.108,261.416,352.906,262.16,358.694,266.853 C360.605,268.401,362.173,269.839,362.178,270.044 C362.178,270.253,362.877,270.588,363.732,270.783 C364.586,270.982,365.506,271.447,365.779,271.816 C366.051,272.181,366.426,275.396,366.614,278.961 C366.91,284.563,367.102,285.566,368.055,286.405 C369.145,287.374,369.126,287.409,365.666,291.123 C363.75,293.18,362.182,295.197,362.182,295.602 C362.182,296.006,361.868,296.67,361.483,297.08 C360.68,297.933,353.178,312.707,353.178,313.436 C353.178,313.701,352.376,316.502,351.39,319.667 C350.408,322.828,349.305,326.997,348.939,328.929 C347.934,334.221,347.784,334.341,341.719,334.691 C337.404,334.935,336.207,335.21,334.794,336.283 C332.776,337.816,329.353,342.125,329.353,343.133 C329.353,343.523,328.893,344.766,328.33,345.889 C325.626,351.312,323.532,363.115,323.532,372.93 L323.532,380.13 L325.903,385.113 C327.203,387.854,328.954,390.999,329.79,392.108 C331.255,394.045,335.71,402.268,335.71,403.032 C335.71,403.237,330.597,403.407,324.349,403.407 C313.049,403.407,312.983,403.397,311.711,402.049 C310.495,400.755,310.439,400.376,310.495,393.79 C310.537,389.122,310.364,386.826,309.96,386.681 C309.631,386.561,308.359,385.507,307.129,384.334 L304.899,382.207 L305.519,377.744 C305.861,375.287,306.481,372.541,306.894,371.642 C307.307,370.744,307.645,369.286,307.645,368.407 C307.645,367.523,307.857,366.804,308.11,366.804 C308.781,366.804,309.603,362.875,310.284,356.384 C310.965,349.934,310.819,346.279,309.8,344.312 C309.26,343.273,309.162,341.226,309.397,335.869 C309.711,328.544,310.471,325.044,313.077,318.863 C314.185,316.237,314.523,314.17,315.049,306.761 C315.607,298.892,315.575,297.314,314.809,293.6 C314.335,291.278,313.748,285.641,313.509,281.073 C312.988,271.077,312.852,270.798,308.73,271.312 C306.589,271.581,304.171,272.605,299.712,275.136 C287.637,281.976,282.487,284.153,274.06,285.981 C269.234,287.029,256.944,287.933,247.226,287.953 C243.555,287.963,239.442,288.128,238.095,288.327 C235.771,288.667,235.635,288.782,235.63,290.439 C235.626,293.29,232.048,307.085,230.668,309.592 C228.936,312.727,223.786,317.855,220.194,320.007 C218.57,320.98,216.34,322.713,215.237,323.851 C212.791,326.378,209.045,334.606,208.97,337.616 C208.923,339.484,209.28,340.148,211.791,342.854 C216.861,348.311,221.931,351.661,231.4,355.81 C248.259,363.195,248.888,363.689,250.169,370.589 C250.841,374.184,251.897,377.219,254.043,381.728 L256.991,387.919 L257.235,394.534 L257.474,401.155 L249.479,401.155 L241.484,401.155 L240.461,399.043 C239.902,397.88,238.344,395.193,237.001,393.072 C234.978,389.876,234.583,388.833,234.701,386.995 C234.813,385.218,235.086,384.714,236.048,384.454 C237.297,384.119,240.931,379.846,240.931,378.712 C240.931,378.358,240.583,378.068,240.156,378.068 C239.729,378.068,239.123,377.559,238.813,376.94 C238.386,376.086,237.705,375.811,236.015,375.811 C234.044,375.811,233.349,375.407,230.077,372.386 C225.758,368.392,222.791,366.425,219.495,365.371 C218.19,364.952,216.11,363.983,214.866,363.214 C211.364,361.048,203.327,357.433,197.698,355.486 C194.215,354.277,192.013,353.149,190.741,351.911 L188.882,350.093 L190.135,345.076 C191.755,338.58,191.924,329.558,190.468,327.191 C189.952,326.348,189.281,325.823,188.98,326.018 C188.68,326.218,186.844,326.587,184.901,326.842 C181.666,327.261,181.201,327.496,179.441,329.598 C178.38,330.856,177.356,331.89,177.169,331.89 C176.976,331.89,175.432,333.093,173.741,334.566 C172.047,336.039,169.939,337.656,169.052,338.166 C166.089,339.873,166.254,341.396,170.807,354.133 C171.582,356.299,172.53,359.565,172.915,361.387 C173.375,363.559,174.15,365.306,175.159,366.455 C176.004,367.423,177.262,369.226,177.953,370.464 C178.643,371.702,180.769,375.212,182.671,378.268 C184.572,381.318,186.675,384.783,187.342,385.972 C188.22,387.53,189.764,388.863,192.9,390.765 C197.726,393.696,200.191,395.907,202.045,398.983 C202.726,400.111,204.392,402.483,205.749,404.255 L208.214,407.476 L205.13,410.791 L202.05,414.106 L192.736,414.106 L183.426,414.106 L181.206,410.756 Z M198.308,410.961 C200.261,410.631,201.965,408.33,201.552,406.582 C201.059,404.5,198.44,401.255,196.327,400.116 C194.083,398.903,190.933,399.228,187.492,401.015 C185.919,401.834,185.577,402.333,185.464,403.971 C185.3,406.332,187.173,410.122,188.98,411.081 C190.13,411.69,194.351,411.635,198.308,410.961 Z M327.841,399.198 C328.142,398.873,323.753,388.977,323.119,388.563 C322.527,388.174,318.236,389.342,318.236,389.891 C318.236,390.126,319.218,392.378,320.415,394.894 L322.598,399.462 L325.095,399.462 C326.466,399.462,327.701,399.342,327.841,399.198 Z M250.461,398.339 C250.461,398.029,249.681,396.826,248.728,395.663 C245.564,391.813,245.404,391.274,248.08,393.511 C252.244,396.991,252.052,396.876,252.052,395.892 C252.052,395.403,250.597,393.716,248.822,392.143 C246.339,389.946,245.329,389.372,244.456,389.656 C242.771,390.206,242.771,390.241,244.423,392.552 C248.019,397.575,250.461,399.917,250.461,398.339 Z M181.657,397.48 C182.534,396.996,183.22,396.162,183.22,395.578 C183.22,395.004,183.577,394.22,184.013,393.83 C185.173,392.807,184.99,390.385,183.426,386.236 C181.783,381.873,179.704,379.756,177.07,379.756 C174.831,379.756,171.042,381.718,171.042,382.876 C171.042,383.71,171.375,383.915,175.497,385.657 L177.572,386.536 L176.122,388.144 C174.788,389.626,174.718,389.926,175.225,391.933 C175.788,394.15,178.633,398.339,179.577,398.339 C179.863,398.339,180.797,397.949,181.657,397.48 Z M250.878,384.963 C248.245,379.456,247.71,377.699,247.442,373.694 C247.123,368.906,246.066,367.004,242.954,365.636 C241.546,365.012,241.184,365.107,239.179,366.605 C236.903,368.307,236.175,369.85,237.151,370.893 C237.461,371.218,239.428,371.762,241.527,372.102 C243.63,372.441,245.428,372.975,245.526,373.29 C245.625,373.605,244.954,374.738,244.034,375.806 L242.367,377.749 L243.635,380.29 C244.447,381.923,245.663,383.291,247.019,384.099 C249.071,385.328,251.287,385.822,250.878,384.963 Z M174.22,374.593 C176.779,374.333,176.676,372.876,174.047,372.187 C172.455,371.767,171.925,371.827,171.549,372.466 C171.145,373.155,170.897,373.165,169.925,372.526 C168.967,371.892,168.709,371.892,168.329,372.526 C167.779,373.445,167.775,373.664,168.268,374.488 C168.742,375.277,171.103,375.737,171.835,375.182 C172.131,374.963,173.202,374.693,174.22,374.593 Z M173.483,368.107 C174.676,367.623,174.047,366.565,172.319,366.165 C167.549,365.067,165.099,365.886,165.963,368.282 C166.24,369.051,166.808,369.136,169.498,368.811 C171.258,368.602,173.051,368.287,173.483,368.107 Z M234.349,366.789 C235.687,366.25,235.72,366.145,234.912,365.197 C233.607,363.664,233.818,362.685,235.386,363 C236.856,363.299,237.654,362.525,236.804,361.627 C236.156,360.938,232.682,361.991,231.269,363.299 C230.194,364.303,230.072,365.726,230.978,366.689 C231.753,367.518,232.494,367.538,234.349,366.789 Z M171.305,360.893 C171.305,360.029,170.746,359.61,168.925,359.105 C165.343,358.117,162.071,358.177,161.686,359.24 C161.033,361.058,164.005,362.281,168.657,362.111 C170.925,362.031,171.305,361.857,171.305,360.893 Z M166.737,355.75 C170.418,354.971,167.615,351.956,162.362,351.047 C159.202,350.498,157.273,350.802,157.273,351.851 C157.273,353.069,159.855,355.141,161.897,355.565 C164.69,356.14,164.883,356.145,166.737,355.75 Z M166.709,347.272 C166.615,346.753,165.441,345.64,164.099,344.806 C161.244,343.019,159.094,342.185,159.601,343.054 C159.808,343.413,159.334,343.623,158.371,343.593 C157.508,343.568,156.193,343.972,155.451,344.491 C152.799,346.339,153.916,347.253,159.39,347.707 C166.775,348.316,166.897,348.311,166.709,347.272 Z M84.2578,340.922 C87.3609,339.074,91.1776,337.027,92.7456,336.368 C96.0272,334.995,99.7312,332.179,100.68,330.342 C101.675,328.405,101.003,328.34,98.6655,330.142 C97.4966,331.041,94.8582,332.529,92.7973,333.447 C87.8257,335.674,76.2019,344.277,78.1689,344.277 C78.4178,344.277,81.1547,342.769,84.2578,340.922 Z M157.273,341.73 C157.709,341.341,158.902,340.842,159.921,340.612 C162.667,340.003,164.686,338.745,164.686,337.646 C164.686,336.348,161.723,333.907,157.672,331.87 C154.301,330.172,153.245,329.937,151.757,330.542 C149.456,331.485,151.536,334.076,156.587,336.558 L159.127,337.801 L155.695,337.976 C152.484,338.136,150.391,339.094,150.391,340.412 C150.391,340.667,151.268,341.351,152.334,341.935 C154.334,343.024,155.883,342.959,157.273,341.73 Z M321.861,336.902 C322.945,336.503,323.532,335.909,323.532,335.215 C323.532,334.626,323.292,334.141,323.001,334.141 C322.044,334.141,322.443,331.061,324.058,325.978 C325.579,321.205,325.992,318.938,325.353,318.938 C325.189,318.938,323.987,319.223,322.682,319.577 C320.8,320.077,320.011,320.691,318.861,322.533 C316.34,326.567,315.589,328.909,315.589,332.708 C315.589,336.118,315.664,336.333,317.044,336.867 C319.002,337.626,319.894,337.636,321.861,336.902 Z M330.677,334.291 C331.757,332.414,335.334,328.51,335.973,328.51 C336.334,328.51,337.752,329.039,339.123,329.683 C341.531,330.816,341.639,330.821,342.343,329.828 C342.742,329.258,343.23,327.651,343.428,326.258 C344.385,319.403,344.437,319.238,345.916,318.484 C347.887,317.48,347.812,315.503,345.728,313.641 C344.831,312.837,343.878,312.183,343.611,312.183 C343.338,312.183,343.122,311.943,343.122,311.649 C343.122,311.359,344.456,311.164,346.094,311.229 C348.399,311.314,349.197,311.12,349.653,310.371 C350.136,309.577,349.916,309.043,348.432,307.415 L346.62,305.423 L348.775,305.423 C352.042,305.423,352.563,304.264,350.263,302.112 C348.441,300.415,346.667,299.926,345.446,300.789 C343.817,301.933,341.761,307.934,340.489,315.259 C339.343,321.849,338.85,322.468,334.024,323.372 C331.01,323.936,330.635,323.896,329.611,322.873 C328.996,322.259,328.217,321.754,327.879,321.754 C326.823,321.754,325.757,324.72,325.156,329.328 C324.64,333.278,324.677,333.877,325.494,334.835 C326.203,335.669,326.828,335.834,328.278,335.559 C329.306,335.37,330.386,334.795,330.677,334.291 Z M339.151,323.442 C338.968,323.132,339.076,322.883,339.381,322.883 C339.691,322.883,339.944,323.132,339.944,323.442 C339.944,323.751,339.836,324.006,339.71,324.006 C339.583,324.006,339.329,323.751,339.151,323.442 Z M173.526,330.716 C174.868,330.182,175.896,328.44,175.37,327.576 C175.173,327.251,173.831,326.432,172.389,325.758 C170.948,325.084,168.005,322.982,165.85,321.09 C161.672,317.41,161.859,317.425,160.169,320.741 C158.939,323.147,159.198,324.73,160.986,325.813 C163.62,327.406,163,328.145,159.39,327.711 C155.414,327.231,155.221,328.065,158.996,329.413 C165.47,331.715,169.976,332.119,173.526,330.716 Z M72.5589,326.822 C72.5589,326.492,70.9721,326.293,68.7187,326.333 C65.6391,326.393,65.2447,326.487,66.7329,326.822 C69.5497,327.456,72.5589,327.456,72.5589,326.822 Z M63.4232,325.858 C62.6251,325.728,61.3153,325.728,60.5126,325.858 C59.7098,325.983,60.367,326.093,61.9679,326.093 C63.5687,326.093,64.226,325.983,63.4232,325.858 Z M188.196,321.949 C190.36,320.85,190.468,320.576,189.177,319.393 C187.943,318.269,187.177,318.005,181.347,316.711 C178.619,316.107,174.3,314.689,171.746,313.566 C168.812,312.278,166.254,311.524,164.775,311.524 C161.977,311.524,161.019,312.283,162.09,313.651 C162.934,314.734,171.878,319.502,173.061,319.502 C173.488,319.502,174.103,319.887,174.422,320.356 C175.291,321.609,181.53,323.412,184.088,323.147 C185.3,323.022,187.145,322.483,188.196,321.949 Z M334.419,317.251 C334.536,317.251,335.25,315.948,336.01,314.355 C336.766,312.762,338.292,310.041,339.39,308.304 C342.4,303.555,344.812,296.351,344.902,291.862 C344.991,287.264,344.352,286.28,341.277,286.28 L339.033,286.28 L338.714,289.236 C338.517,291.033,337.55,293.954,336.24,296.695 C334.085,301.219,332.846,306.082,332.208,312.567 C331.808,316.577,332.161,318.084,333.372,317.59 C333.832,317.4,334.301,317.251,334.419,317.251 Z M198.29,313.531 C199.346,312.408,201.219,308.553,201.219,307.51 C201.219,306.706,199.857,305.887,196.191,304.489 C195.027,304.045,189.933,303.181,184.877,302.572 C179.816,301.963,172.479,300.834,168.559,300.065 C160.329,298.448,157.803,298.308,157.803,299.461 C157.803,299.901,158.756,301.533,159.916,303.096 C161.456,305.168,162.568,306.087,164.019,306.476 C177.891,310.241,183.342,311.359,190.896,311.983 C193.224,312.178,194.834,312.448,194.468,312.587 C194.107,312.727,193.806,313.197,193.806,313.636 C193.806,314.759,197.21,314.679,198.29,313.531 Z M202.275,303.595 C202.266,302.682,196.318,298.488,192.079,296.401 C187.938,294.364,188.492,294.329,194.708,296.236 L199.632,297.749 L200.74,296.491 C201.346,295.797,201.712,294.873,201.552,294.434 C201.036,292.996,194.83,288.562,192.036,287.638 C190.14,287.009,185.915,286.605,178.187,286.305 L167.07,285.871 L162.075,283.774 C158.076,282.096,156.648,281.747,154.926,282.011 C153.203,282.281,152.104,282.011,149.428,280.658 L146.086,278.971 L146.255,280.499 C146.391,281.767,147.245,282.546,151.184,285.007 C153.808,286.64,157.723,288.562,159.888,289.276 C165.371,291.073,165.352,291.902,159.831,291.947 C155.109,291.992,152.869,292.511,154.057,293.29 C154.428,293.535,160.249,294.214,166.991,294.803 C184.863,296.351,190.389,297.694,199.102,302.602 C202.557,304.554,202.28,304.464,202.275,303.595 Z M356.277,297.819 C356.826,297.269,356.854,296.84,356.394,295.921 C355.502,294.154,353.037,293.036,350.028,293.036 C347.582,293.036,347.357,293.145,347.357,294.344 C347.357,297.879,353.718,300.36,356.277,297.819 Z M201.219,286.675 C201.219,282.016,201.214,281.996,199.233,279.944 C195.938,276.529,192.135,275.091,180.929,273.009 C169.474,270.887,165.831,269.809,157.841,266.159 C150.564,262.844,143.396,260.258,142.94,260.797 C142.748,261.032,142.424,261.94,142.231,262.819 C141.931,264.167,142.17,264.716,143.729,266.279 C144.748,267.303,146.841,268.92,148.381,269.874 L151.184,271.611 L147.348,271.626 C139.724,271.651,143.593,273.609,157.803,276.919 C163.775,278.307,170.446,279.6,172.629,279.785 C179.558,280.379,184.985,281.327,187.844,282.451 C189.365,283.05,192.698,285.292,195.252,287.444 C197.801,289.59,200.186,291.348,200.552,291.348 C201.036,291.348,201.219,290.055,201.219,286.675 Z M359.535,290.869 C359.535,289.551,354.812,286.775,350.859,285.771 C349.437,285.412,348.136,285.262,347.972,285.437 C347.343,286.105,349.793,289.855,351.319,290.564 C353.084,291.383,359.535,291.623,359.535,290.869 Z M232.123,285.996 C231.954,285.531,231.724,285.152,231.607,285.152 C231.494,285.152,231.4,285.531,231.4,285.996 C231.4,286.46,231.631,286.844,231.912,286.844 C232.194,286.844,232.288,286.46,232.123,285.996 Z M361.877,284.073 C362.76,283.035,362.746,282.96,361.563,282.261 C360.821,281.827,358.432,281.527,355.596,281.512 L350.859,281.492 L350.906,283.04 C350.934,283.894,350.981,284.717,351.009,284.872 C351.038,285.027,353.291,285.152,356.009,285.152 C360.215,285.152,361.098,284.992,361.877,284.073 Z M351.272,278.646 C360.277,276.814,360.591,276.704,360.591,275.331 C360.591,272.92,358.878,271.996,355.098,272.375 C348.84,272.994,343.122,275.915,343.122,278.492 C343.122,279.81,345.357,279.854,351.272,278.646 Z M203.341,276.644 C203.341,276.305,203.674,276.16,204.083,276.325 C204.942,276.679,206.228,275.301,206.754,273.464 C207.303,271.546,205.134,267.447,201.487,263.503 C198.121,259.868,192.801,256.608,184.544,253.128 C182.211,252.149,178.399,250.207,176.07,248.819 C173.741,247.431,169.451,244.985,166.54,243.377 C161.446,240.571,161.057,240.451,156.202,240.222 C152.344,240.037,150.672,240.197,149.095,240.901 C146.353,242.119,146.996,242.693,152.696,244.121 C156.357,245.04,158.418,246.013,162.967,248.974 C171.244,254.361,172.934,255.195,177.924,256.358 L182.426,257.407 L179.272,257.846 C175.417,258.38,166.263,257.851,161.244,256.808 C157.156,255.954,151.475,253.577,142.799,249.079 C136.49,245.809,136.293,245.824,135.091,249.673 C134.673,251.001,134.65,251.7,135.025,251.83 C135.326,251.94,135.415,252.294,135.222,252.629 C135.02,252.973,135.119,253.063,135.462,252.843 C135.781,252.634,139.354,254.221,143.4,256.378 C154.728,262.41,156.625,263.109,163.592,263.808 C166.958,264.147,170.948,264.272,172.455,264.087 C175.629,263.703,181.267,264.756,186.703,266.748 C189.374,267.732,192.102,269.435,196.233,272.695 C201.825,277.118,203.341,277.957,203.341,276.644 Z M218.012,275.581 C218.162,274.962,218.5,274.452,218.753,274.452 C219.65,274.452,219.157,273.029,217.209,269.994 C215.664,267.582,214.195,266.249,210.251,263.678 C205.683,260.697,202.58,259.304,201.965,259.958 C201.834,260.098,203.303,262.025,205.228,264.237 C207.467,266.808,209.143,268.261,209.876,268.266 C210.589,268.271,210.782,268.436,210.387,268.701 C209.561,269.26,212.796,274.907,214.533,275.93 C216.354,277.004,217.692,276.869,218.012,275.581 Z M343.338,274.552 C344.817,273.369,347.939,271.676,350.268,270.798 C352.596,269.914,354.615,269.095,354.756,268.975 C355.244,268.551,353.418,267.712,351.991,267.702 C350.737,267.697,350.531,267.467,350.531,266.064 C350.531,263.139,349.183,263.543,344.836,267.767 C342.583,269.959,339.85,272.42,338.766,273.244 C336.728,274.782,336.273,275.835,337.428,276.335 C339.123,277.059,340.85,276.539,343.338,274.552 Z M227.067,273.838 C225.913,270.308,223.232,266.943,219.828,264.741 C217.974,263.543,216.326,262.709,216.162,262.879 C215.998,263.054,217.81,265.32,220.19,267.912 C222.57,270.503,224.518,272.865,224.518,273.154 C224.518,274.003,226.659,276.195,227.166,275.86 C227.429,275.69,227.387,274.802,227.067,273.838 Z M237.987,273.783 C238.682,272.315,238.719,271.631,238.222,269.984 C236.288,263.628,230.659,255.704,225.377,251.895 C223.429,250.497,219.166,248.694,211.167,245.893 C204.777,243.652,196.388,240.222,192.14,238.11 C187.961,236.033,181.858,233.391,178.582,232.248 C175.305,231.1,172.803,229.961,173.023,229.717 C173.244,229.472,169.967,229.402,165.747,229.557 C160.179,229.767,156.911,230.181,153.855,231.07 C149.067,232.463,141.391,235.508,141.391,236.018 C141.391,236.202,141.753,236.782,142.199,237.301 C142.95,238.19,143.325,238.15,147.888,236.712 C159.686,232.992,164.418,233.876,179.511,242.638 C183.544,244.98,191.966,249.034,198.839,251.945 C211.923,257.482,221.077,261.99,225.298,264.986 C226.748,266.009,229.086,268.491,230.494,270.498 C232.79,273.773,234.743,275.401,236.522,275.536 C236.865,275.561,237.527,274.772,237.987,273.783 Z M245.17,273.319 C245.17,273.119,245.855,273.064,246.691,273.194 C250.198,273.743,251.01,268.266,248.282,262.47 C245.766,257.122,239.926,246.967,238.081,244.72 C235.917,242.099,230.203,238.16,222.514,234.006 C215.88,230.416,212.556,229.237,202.543,226.936 C199.05,226.137,191.985,224.08,186.849,222.372 C177.619,219.307,177.427,219.267,170.901,219.267 C163.052,219.267,156.494,220.785,150.527,223.985 C144.569,227.175,144.785,227.75,151.386,226.287 C153.531,225.807,155.386,225.518,155.498,225.638 C155.611,225.757,153.85,226.421,151.592,227.11 C145.907,228.843,146.057,228.778,146.372,229.317 C146.733,229.941,150.236,229.322,157.54,227.34 C162.888,225.887,164.16,225.762,173.159,225.762 C182.76,225.762,183.112,225.807,190.825,227.899 C196.078,229.322,201.36,231.264,206.712,233.736 C211.115,235.773,215.636,237.795,216.749,238.22 C224.457,241.19,235.297,249.019,237.184,252.988 C238.485,255.719,242.851,270.158,243.325,273.299 C243.677,275.596,243.766,275.716,244.437,274.737 C244.841,274.153,245.17,273.514,245.17,273.319 Z M259.671,272.999 C260.361,271.087,259.958,264.741,258.944,261.536 C257.352,256.508,255.878,254.007,249.644,245.734 C247.883,243.392,245.635,239.967,244.649,238.12 C243.663,236.267,240.602,232.223,237.846,229.123 C233.846,224.629,231.973,223.001,228.546,221.039 C222.049,217.32,216.199,215.103,205.439,212.262 C200.059,210.849,193.872,209.131,191.689,208.452 C188.877,207.579,185.882,207.159,181.427,207.014 C173.835,206.77,172.286,207.579,178.492,208.542 C180.891,208.912,186.567,210.36,191.107,211.748 C195.651,213.141,202.228,215.008,205.721,215.902 C217.509,218.917,228.288,223.536,231.893,227.11 C232.846,228.064,233.823,228.843,234.058,228.843 C235.917,228.843,245.841,245.045,247.681,251.086 C248.343,253.253,249.475,256.169,250.193,257.562 C252.831,262.674,254.165,265.78,254.709,268.116 C255.042,269.549,255.573,270.513,256.028,270.513 C256.446,270.513,257.16,271.272,257.61,272.201 C258.521,274.078,259.188,274.337,259.671,272.999 Z M336.132,273.099 C336.916,272.66,339.644,270.034,342.193,267.258 C347.136,261.87,348.033,259.813,345.418,259.813 C344.338,259.813,342.681,261.231,338.198,265.994 C333.268,271.237,332.485,272.31,333.052,273.034 C333.879,274.093,334.32,274.103,336.132,273.099 Z M267.417,272.465 C267.906,271.846,268.009,270.168,267.798,266.384 C267.431,259.903,265.648,253.997,262.042,247.351 C260.357,244.241,258.16,238.664,255.944,231.869 C251.169,217.225,249.437,213.865,243.142,207.039 C238.01,201.472,235.011,199.34,231.386,198.686 C229.57,198.357,229.598,198.407,233.612,202.536 C238.757,207.833,243.189,213.48,242.541,213.904 C241.006,214.913,226.959,210.594,221.608,207.464 C217.439,205.032,211.003,203.994,197.984,203.654 C190.562,203.46,186.201,203.564,185.562,203.939 C184.464,204.598,183.431,204.403,198.228,206.3 C204.327,207.079,208.345,207.903,210.932,208.907 C213.016,209.716,219.847,212.077,226.105,214.154 C232.368,216.231,238.325,218.393,239.344,218.967 C243.728,221.419,250.737,229.936,252.564,235.034 C252.953,236.117,254.817,240.556,256.7,244.89 C261.108,255.02,261.92,257.582,263.211,265.445 C263.798,269.005,264.375,272.235,264.502,272.625 C264.812,273.604,266.61,273.504,267.417,272.465 Z M333.466,267.303 C334.71,266.229,336.052,264.676,336.456,263.853 C336.86,263.024,338.048,260.992,339.094,259.334 C341.601,255.375,341.606,254.181,339.123,254.181 C336.128,254.181,334.414,255.54,331.123,260.507 C329.433,263.069,327.471,265.735,326.766,266.434 C326.058,267.133,325.579,267.767,325.696,267.842 C329.574,270.278,330.053,270.243,333.466,267.303 Z M273.558,267.907 C274.675,263.174,272.201,250.677,269.22,246.008 C266.849,242.294,266.347,240.736,264.746,232.108 C261.61,215.218,260.704,213.265,251.817,204.223 C244.841,197.129,238.851,192.45,237.466,193.015 C236.288,193.499,236.583,194.033,239.344,196.455 C240.654,197.603,244.24,201.028,247.315,204.064 C255,211.653,257.061,216.036,259.484,229.966 C260.39,235.189,261.361,238.309,264.507,246.098 C266.652,251.405,269.314,258.815,270.422,262.564 C271.53,266.314,272.61,269.38,272.821,269.385 C273.037,269.385,273.365,268.721,273.558,267.907 Z M324.588,263.873 C326.781,262.125,327.32,261.386,330.278,256.039 C331.517,253.807,333.362,251.271,334.381,250.407 C335.794,249.209,336.235,248.41,336.235,247.062 C336.235,244.9,335.25,244.391,332.536,245.169 C330.729,245.689,330.015,246.557,325.26,254.047 C322.358,258.61,319.715,263.198,319.382,264.237 L318.781,266.129 L320.757,265.74 C321.847,265.525,323.569,264.686,324.588,263.873 Z M280.933,260.288 C280.731,258.071,280.102,254.716,279.544,252.828 C278.76,250.172,278.6,248.5,278.849,245.454 C279.478,237.745,277.778,228.304,273.384,215.043 C270.999,207.858,270.887,207.653,267.197,203.764 C263.361,199.735,259.479,196.809,251.611,192.026 C247.099,189.28,243.095,187.497,242.611,188.012 C242.132,188.521,244.752,191.132,250.451,195.831 C257.817,201.902,262.253,206.375,265.009,210.514 C269.568,217.35,271.14,221.893,272.455,231.983 C273.107,237.031,278.041,256.738,280.37,263.613 C281.004,265.485,281.271,263.912,280.933,260.288 Z M318.288,259.269 C320.617,257.087,321.499,255.769,322.41,253.108 C323.119,251.041,324.907,247.936,327.015,245.115 C331.024,239.742,331.658,238.614,331.264,237.525 C330.668,235.873,328.893,236.846,325.292,240.806 C321.33,245.174,316.645,251.62,316.645,252.724 C316.645,253.088,315.819,254.771,314.809,256.458 C311.218,262.455,313.19,264.047,318.288,259.269 Z M309.561,254.276 C311.889,252.674,313.312,251.116,315.072,248.225 C316.373,246.078,319.246,242.044,321.457,239.258 C327.128,232.098,327.813,230.516,325.25,230.55 C323.175,230.581,322.006,231.409,317.466,236.063 C313.133,240.501,309.002,246.333,306.537,251.49 C303.88,257.042,304.589,257.696,309.561,254.276 Z M345.493,249.643 C345.005,247.521,343.949,244.695,343.146,243.367 C341.066,239.927,337.339,235.598,336.456,235.598 C336.043,235.598,335.71,235.688,335.71,235.803 C335.71,236.407,344.423,254.067,345.16,254.95 C346.005,255.969,346.038,255.964,346.207,254.751 C346.305,254.067,345.986,251.765,345.493,249.643 Z M302.669,251.68 C303.392,249.997,304.223,247.017,304.514,245.065 C304.819,243.018,305.65,240.451,306.481,239.003 C307.8,236.717,308.476,236.232,314.194,233.531 C320.931,230.351,321.94,229.692,321.94,228.488 C321.94,227.43,320.208,227.515,316.03,228.788 C307.922,231.255,304.265,233.956,302.12,239.063 C297.622,249.783,296.97,254.746,300.054,254.746 C301.111,254.746,301.594,254.177,302.669,251.68 Z M292.491,250.662 C294.594,247.731,295.806,244.076,296.181,239.543 C296.594,234.605,298.866,229.177,301.589,226.636 C303.317,225.018,304.312,224.759,311.486,224.015 C313.448,223.81,315.058,223.431,315.058,223.171 C315.058,222.362,318.659,221.933,320.307,222.547 C321.171,222.867,323.471,224.424,325.414,226.012 C327.363,227.595,329.072,228.768,329.212,228.613 C329.358,228.464,328.954,227.19,328.316,225.792 C326.997,222.892,321.898,218.658,317.654,216.945 C315.213,215.957,314.861,215.952,309.65,216.86 L304.204,217.809 L300.993,221.214 C299.228,223.086,297.369,225.253,296.867,226.027 C295.97,227.4,295.956,227.325,296.219,222.797 C296.51,217.849,297.439,215.188,299.237,214.164 C300.641,213.365,314.561,212.332,317.607,212.801 C319.415,213.081,319.772,213.31,319.311,213.894 C318.631,214.768,318.391,214.648,326.63,217.624 C329.94,218.817,333.668,220.43,334.916,221.214 C338.879,223.68,343.226,228.049,346.808,233.162 C348.718,235.888,350.662,238.199,351.127,238.294 C352.488,238.574,353.469,234.031,352.638,231.284 C351.751,228.339,346.625,220.825,343.338,217.649 C338.372,212.851,330.4,209.661,319.025,207.908 C315.053,207.299,314.345,207.329,312.669,208.178 C311.631,208.702,307.397,209.661,303.261,210.31 C296.458,211.373,295.618,211.628,294.562,212.966 C292.778,215.223,292.289,218.917,292.289,230.206 C292.289,239.308,292.167,240.826,291.228,243.077 C290.646,244.48,290.012,247.172,289.829,249.059 C289.543,251.975,289.618,252.494,290.336,252.494 C290.797,252.494,291.768,251.67,292.491,250.662 Z M289.172,244.246 C289.477,242.488,289.562,239.508,289.36,237.62 C288.956,233.836,285.478,222.422,283.881,219.636 C283.323,218.658,282.342,215.832,281.703,213.355 C280.187,207.509,278.149,203.479,273.797,197.743 C270.145,192.925,266.047,189.47,262.375,188.117 C260.995,187.607,260.305,187.033,260.399,186.474 C260.512,185.79,258.995,185.296,253.08,184.087 C248.977,183.249,245.512,182.674,245.39,182.804 C244.935,183.289,252.46,188.276,259.657,192.261 C270.737,198.392,275.431,203.649,278.267,213.076 C278.778,214.778,280.149,218.708,281.309,221.803 C283.365,227.3,283.431,227.675,283.952,237.57 C284.393,245.888,284.684,248.11,285.567,249.958 L286.642,252.209 L287.628,249.828 C288.172,248.515,288.867,246.003,289.172,244.246 Z M347.578,241.994 C345.92,235.903,342.151,230.695,335.616,225.458 C331.574,222.218,329.884,221.399,329.884,222.687 C329.884,223.016,332.578,226.501,335.874,230.431 C339.17,234.355,343.245,239.423,344.925,241.689 C346.611,243.956,348.099,245.694,348.235,245.554 C348.366,245.409,348.075,243.806,347.578,241.994 Z M145.626,229.966 C145.626,229.657,145.386,229.402,145.095,229.402 C144.804,229.402,144.569,229.657,144.569,229.966 C144.569,230.276,144.804,230.531,145.095,230.531 C145.386,230.531,145.626,230.276,145.626,229.966 Z M212.871,222.707 C212.871,222.033,201.35,217.065,193.806,214.489 C186.839,212.107,175.45,210.644,172.648,211.768 C171.826,212.097,170.868,212.182,170.526,211.957 C169.751,211.448,161.465,213.885,158.902,215.377 L157.01,216.481 L162.305,216.161 C169.554,215.722,176.216,216.536,185.6,219.007 C189.971,220.16,195.928,221.553,198.839,222.108 C204.477,223.186,212.871,223.541,212.871,222.707 Z M353.69,219.127 C353.662,217.23,352.681,215.672,348.916,211.578 C340.09,201.972,334.226,199.585,311.087,196.185 C301.064,194.712,296.458,193.639,293.693,192.136 C292.491,191.487,288.168,188.426,284.088,185.341 C280.008,182.255,274.863,178.76,272.652,177.577 C266.629,174.351,259.056,172.594,254.62,173.388 C251.953,173.867,252.24,174.092,258.629,176.488 C266.239,179.344,270.474,181.671,278.914,187.642 C283.356,190.778,288.407,194.108,290.144,195.042 C295.008,197.653,301.97,199.61,307.218,199.845 C309.753,199.96,312.255,200.284,312.777,200.569 C313.302,200.858,314.57,201.258,315.589,201.457 C320.462,202.426,331.649,206.096,335.442,207.968 C337.771,209.121,341.108,211.328,342.855,212.881 C351.258,220.33,353.732,221.753,353.69,219.127 Z M291.857,209.111 C291.994,208.672,300.176,207.039,302.965,206.9 C303.153,206.89,303.049,206.29,302.73,205.576 C302.312,204.633,301.702,204.268,300.528,204.258 C298.036,204.238,291.951,202.087,287.261,199.56 C284.36,197.997,281.356,195.671,277.731,192.171 C268.206,182.989,262.239,178.97,255.751,177.357 C250.625,176.089,246.174,177.946,251.122,179.294 C254.08,180.098,261.357,183.154,263.699,184.577 C267.492,186.878,271.643,190.673,279.201,198.731 C288.834,209.012,291.261,211.004,291.857,209.111 Z M288.285,204.553 C287.168,203.29,287.027,202.95,287.792,203.355 C288.374,203.664,290.153,204.243,291.75,204.643 C294.04,205.212,294.43,205.457,293.604,205.801 C291.43,206.705,289.858,206.335,288.285,204.553 Z M233.785,206.58 C232.912,205.816,230.607,204.029,228.668,202.601 L225.143,200.01 L217.12,200.424 C212.702,200.649,209.284,201.023,209.524,201.253 C209.763,201.482,213.411,202.351,217.636,203.19 C221.856,204.024,227.335,205.427,229.814,206.305 C235.4,208.283,235.762,208.308,233.785,206.58 Z M340.428,195.84 C337.822,192.5,327.945,188.027,315.237,184.427 C310.913,183.199,305.81,181.571,303.894,180.807 C299.702,179.125,285.848,172.699,281.435,170.387 C274.933,166.977,260.385,163.073,257.333,163.921 C255.446,164.446,256.376,165.964,259.08,166.777 C260.469,167.192,261.46,167.776,261.286,168.075 C261.113,168.375,261.169,168.56,261.408,168.495 C262.789,168.11,275.586,173.408,285.407,178.431 C295.885,183.788,308.847,188.95,315.058,190.234 C316.077,190.448,317.607,190.908,318.457,191.257 C320.495,192.096,338.259,196.589,339.874,196.674 C340.972,196.734,341.043,196.629,340.428,195.84 Z M334.63,188.062 C334.203,187.622,332.348,186.459,330.508,185.47 C328.668,184.487,327.273,183.563,327.41,183.418 C327.546,183.274,329.137,183.948,330.945,184.916 C332.747,185.89,334.362,186.534,334.531,186.359 C334.7,186.179,334.198,185.326,333.419,184.462 C332.639,183.593,331.996,182.644,331.996,182.355 C331.987,181.651,321.861,176.009,315.852,173.358 C309.744,170.672,304.542,168.919,297.585,167.227 C291.482,165.739,287.496,164.236,280.576,160.821 C273.807,157.481,268.014,155.479,266.22,155.858 C264.427,156.243,262.962,157.631,263.314,158.609 C263.451,158.989,266.61,160.297,270.328,161.52 C274.051,162.743,277.853,164.291,278.783,164.96 C282.182,167.416,332.325,188.756,334.893,188.846 C335.174,188.851,335.057,188.501,334.63,188.062 Z M333.484,172.419 C335.466,170.312,333.273,167.691,326.297,163.812 C319.471,160.017,313.298,157.91,302.35,155.633 C290.792,153.232,286.848,152.128,285.938,151.04 C284.909,149.817,276.699,145.318,273.3,144.12 C269.952,142.937,265.103,143.121,264.868,144.444 C264.587,146.022,267.539,148.544,270.539,149.288 C272.065,149.662,275.502,151.025,278.173,152.308 C294.951,160.372,295.458,160.561,308.706,163.782 C314.659,165.235,318.143,166.428,321.41,168.14 C325.274,170.162,331.625,172.968,332.56,173.063 C332.719,173.078,333.132,172.789,333.484,172.419 Z M258.338,159.518 C260.235,158.814,261.46,156.971,260.62,156.078 C259.953,155.369,254.446,153.966,252.287,153.956 C249.01,153.941,248.268,157.171,251.122,159.024 C253.043,160.267,255.808,160.456,258.338,159.518 Z M364.506,150.671 C364.929,149.942,363.356,147.106,361.258,144.809 C360.201,143.651,359.441,142.602,359.568,142.472 C360.032,142.003,367.501,140.994,370.487,140.999 L373.567,140.999 L373.59,143.251 C373.604,144.489,373.928,145.818,374.304,146.202 C374.867,146.781,374.957,146.107,374.797,142.502 C374.623,138.623,374.445,137.964,373.29,136.98 L371.975,135.862 L373.698,136.221 C376.032,136.711,375.966,135.577,373.515,132.891 C369.689,128.702,364.45,126.525,363.234,128.617 C362.718,129.501,356.357,130.165,356.357,129.331 C356.357,128.438,358.61,127.614,363.844,126.59 C368.614,125.662,370.675,124.493,369.605,123.335 C369.356,123.065,366.492,122.945,363.234,123.065 C358.389,123.24,357.197,123.455,356.648,124.254 C356.277,124.793,355.779,125.227,355.535,125.227 C355.291,125.227,354.441,125.891,353.648,126.7 C351.385,129.007,350.62,128.058,352.704,125.532 C354.812,122.98,357.422,121.647,362.182,120.689 C364.074,120.309,365.708,119.92,365.811,119.83 C366.271,119.426,363.61,116.22,362.807,116.21 C362.319,116.205,360.962,115.836,359.798,115.391 C356.385,114.083,352.502,114.308,349.324,116 C345.16,118.222,343.911,119.77,342.015,125.082 C341.484,126.57,341.489,126.575,342.564,125.537 C343.756,124.393,343.953,124.703,343.104,126.391 C342.484,127.619,343.085,127.843,344.122,126.78 C344.686,126.206,344.775,126.695,344.625,129.451 C344.521,131.418,344.667,132.876,344.972,132.936 C345.263,132.991,346.113,130.964,346.864,128.433 C348.376,123.295,349.38,121.288,350.441,121.288 C350.831,121.288,351.07,121.478,350.972,121.707 C350.873,121.942,350.052,123.649,349.146,125.512 C348.24,127.369,347.202,130.25,346.831,131.908 C346.099,135.213,346.432,135.902,348.77,135.922 C349.399,135.922,350.005,136.216,350.117,136.571 C350.263,137.04,350.667,137.015,351.606,136.481 C352.314,136.082,355.521,135.537,358.727,135.273 C361.938,135.013,366.056,134.639,367.872,134.449 C370.248,134.199,371.182,134.289,371.182,134.768 C371.182,135.133,370.98,135.298,370.736,135.138 C370.487,134.973,368.328,135.343,365.938,135.947 C363.544,136.556,360.779,137.055,359.793,137.055 C357.924,137.055,355.986,138.533,354.85,140.815 C354.089,142.353,354.61,143.91,355.812,143.696 C357.248,143.436,359.164,144.794,360.568,147.071 C362.971,150.96,363.863,151.774,364.506,150.671 Z M348.944,133.445 C348.944,132.302,350.732,129.172,351.385,129.172 C352.601,129.172,352.221,130.55,350.531,132.267 C349.657,133.156,348.944,133.685,348.944,133.445 Z M322.734,142.937 C320.696,140.935,317.241,138.044,315.058,136.516 C311.373,133.94,310.307,133.535,300.256,130.859 C291.177,128.443,285.008,126.385,283.834,125.382 C283.698,125.262,283.933,124.933,284.365,124.643 C284.792,124.353,284.881,124.114,284.567,124.109 C284.247,124.109,281.989,122.826,279.553,121.268 C277.112,119.705,273.868,118.048,272.347,117.573 C270.337,116.954,269.661,116.5,269.873,115.906 C270.065,115.366,269.812,115.092,269.117,115.092 C268.535,115.092,267.178,114.702,266.098,114.218 C263.652,113.135,259.512,113.339,258.779,114.582 C257.268,117.144,260.296,120.484,264.807,121.243 C266.3,121.498,267.704,122.017,267.924,122.401 C268.474,123.345,269.258,122.057,269.258,120.214 C269.258,118.302,270.445,118.097,271.206,119.875 C271.661,120.943,271.685,121.642,271.29,122.321 C270.413,123.809,271.361,125.612,274.084,127.619 C275.45,128.627,277.483,130.255,278.605,131.239 C281.257,133.565,281.783,133.725,297.054,136.811 C310.641,139.557,315.697,141.169,321.41,144.569 C323.307,145.693,325.213,146.606,325.649,146.596 C326.086,146.581,324.776,144.939,322.734,142.937 Z M263.732,144.699 C263.385,144.255,263.178,143.466,263.267,142.942 C263.361,142.417,263.075,141.793,262.638,141.554 C257.671,138.813,254.62,137.554,253.315,137.714 C251.695,137.909,251.733,137.734,252.188,142.667 C252.352,144.469,255.099,145.398,260.455,145.458 C263.779,145.493,264.263,145.383,263.732,144.699 Z M267.009,141.748 C266.643,141.594,266.047,141.594,265.685,141.748 C265.319,141.903,265.619,142.033,266.347,142.033 C267.075,142.033,267.37,141.903,267.009,141.748 Z M334.085,128.328 C334.414,126.78,335.574,123.609,336.653,121.288 C338.606,117.089,338.62,117.019,338.611,110.024 C338.602,101.142,337.207,95.8545,333.968,92.4044 C332.837,91.2061,331.818,90.3224,331.705,90.4422 C331.593,90.5621,332.367,92.7939,333.428,95.4001 C336.17,102.15,336.315,105.925,334.217,115.711 C332.391,124.219,331.672,130.594,332.278,132.936 L332.686,134.519 L333.085,132.831 C333.301,131.903,333.752,129.875,334.085,128.328 Z M321.41,133.166 C321.41,132.377,313.64,124.853,309.871,121.992 C308.012,120.579,303.27,117.953,299.336,116.15 C295.402,114.353,289.886,111.387,287.074,109.56 C279.243,104.467,279.858,104.677,277.699,106.429 C276.102,107.722,275.877,108.182,276.159,109.55 C276.393,110.678,276.281,111.157,275.788,111.167 C275.398,111.177,275.553,111.472,276.14,111.826 C276.722,112.176,278.154,113.274,279.318,114.263 C280.482,115.257,283.464,117.339,285.938,118.896 C290.336,121.667,294.299,123.02,304.378,125.192 C307.655,125.896,313.537,128.737,317.706,131.628 C320.748,133.735,321.41,134.015,321.41,133.166 Z M326.18,128.612 C325.532,124.958,325.565,124.348,326.64,120.304 C328.738,112.436,328.879,111.532,328.518,108.366 C328.062,104.402,326.386,98.5206,325.48,97.7218 C324.983,97.2824,324.245,97.2924,322.851,97.7467 C321.213,98.281,321.039,98.4807,321.739,99.0199 C322.288,99.4493,322.729,101.222,323.048,104.282 C323.537,108.926,323.447,109.724,321.663,116.22 C320.668,119.855,320.884,124.763,322.156,127.384 C323.217,129.566,326.217,133.256,326.597,132.851 C326.752,132.691,326.565,130.779,326.18,128.612 Z M337.771,129.311 C340.639,123.32,345.061,115.985,346.498,114.847 C347.667,113.918,349.024,113.664,354.127,113.419 C358.69,113.199,360.295,112.935,360.197,112.416 C360.028,111.522,361.361,111.512,362.694,112.396 C364.534,113.619,364.497,112.361,362.586,109.045 C361.558,107.263,359.755,103.758,358.582,101.267 C355.887,95.5349,353.638,93.1084,355.563,98.0063 C356.892,101.387,356.488,102.076,354.624,99.609 C353.685,98.3708,351.822,96.0891,350.479,94.5413 C349.132,92.9886,347.728,91.1063,347.357,90.3524 C346.226,88.0507,343.005,83.4923,342.723,83.7968 C342.174,84.376,346.202,92.3845,348.394,95.0806 C349.686,96.6633,350.404,97.9614,350.056,98.0862 C349.136,98.4158,344.179,97.0378,344.179,96.4536 C344.179,96.174,344.554,95.9493,345.014,95.9493 C345.733,95.9493,345.704,95.6847,344.794,94.117 C344.212,93.1084,343.254,90.9216,342.658,89.259 C342.066,87.5914,340.944,85.2497,340.16,84.0515 L338.742,81.8696 L340.268,79.518 C341.108,78.2248,343.906,74.665,346.488,71.6044 C349.07,68.5438,351.047,65.9026,350.887,65.7328 C350.587,65.4083,340.306,76.048,338.564,78.4895 C337.353,80.187,331.048,85.8089,330.358,85.8089 C330.09,85.8089,329.41,84.9851,328.856,83.9816 C327.55,81.6299,326.292,80.2869,324.386,79.2284 C322.893,78.4046,322.865,78.4146,323.138,79.7027 C323.438,81.1357,325.278,86.1135,326.588,89.0493 C327.64,91.4109,328.363,91.4109,327.729,89.0542 C327.001,86.3531,327.1,86.1784,328.63,87.4615 C330.179,88.7547,333.391,89.1142,332.733,87.9209 C332.522,87.5364,332.893,87.7262,333.56,88.3453 C335.099,89.7782,337.813,94.766,337.822,96.179 C337.827,97.6119,340.728,102.355,342.644,104.073 C344.606,105.83,344.573,106.085,342.4,106.085 L340.616,106.085 L340.348,111.292 C340.137,115.366,339.601,118.028,337.893,123.505 C334.954,132.926,334.907,135.303,337.771,129.311 Z M343.925,110.044 C343.174,108.501,343.183,108.336,344.099,107.817 C344.643,107.508,347.629,107.078,350.737,106.869 C355.943,106.509,356.479,106.569,357.563,107.613 C358.211,108.237,359.216,109.025,359.798,109.37 C360.633,109.859,359.779,109.994,355.779,110.009 C352.845,110.019,349.601,110.379,348.103,110.863 C344.723,111.951,344.864,111.981,343.925,110.044 Z M348.038,103.983 C346.179,103.803,345.46,103.349,343.723,101.252 C342.578,99.8687,341.479,98.0463,341.277,97.2025 C340.695,94.7161,337.372,89.3239,335.602,87.9808 L333.963,86.7426 L335.696,85.095 C337.376,83.4973,337.456,83.4773,338.386,84.4908 C339.31,85.4944,342.202,92.6191,343.207,96.3687 C343.479,97.3773,344.047,98.2011,344.47,98.2011 C345.409,98.2011,345.503,99.2945,344.578,99.4093 C344.212,99.4543,345.681,99.664,347.836,99.8737 C351.314,100.213,351.892,100.438,352.976,101.881 C354.784,104.292,354.136,104.567,348.038,103.983 Z M376.125,129.311 C374.351,124.783,372.759,122.012,370.224,119.036 C368.774,117.334,367.469,116.065,367.318,116.22 C367.168,116.375,368.337,118.372,369.919,120.659 C371.497,122.95,373.529,126.306,374.44,128.123 C376.28,131.798,377.412,132.592,376.125,129.311 Z M331.564,121.567 C333.776,112.955,334.02,108.187,332.574,102.051 C331.916,99.2496,331.574,96.5584,331.771,95.7246 C332.034,94.6112,331.879,94.1769,331.132,93.8823 C330.588,93.6676,329.982,93.2282,329.78,92.9087 C328.865,91.4458,328.776,93.4829,329.55,98.3059 C331.086,107.907,331.17,112.491,329.94,119.206 C328.785,125.502,328.536,129.236,329.222,129.975 C329.438,130.21,329.701,129.811,329.799,129.082 C329.898,128.358,330.691,124.978,331.564,121.567 Z M318.739,124.323 C318.016,122.316,318.49,117.808,319.87,113.534 C321.255,109.255,321.748,103.304,320.865,101.536 C320.49,100.782,318.729,98.1062,316.959,95.5848 C315.185,93.0585,312.612,89.0692,311.246,86.7126 C309.734,84.1214,308.401,82.4338,307.861,82.4338 C306.42,82.4338,307.265,87.2868,309.753,93.3231 C311.415,97.3573,312.565,99.2396,314.805,101.591 C317.974,104.921,318.124,105.506,317.143,110.703 C316.255,115.376,316.166,115.551,315.284,114.283 C314.87,113.679,314.528,112.366,314.528,111.362 C314.528,108.931,313.692,106.714,312.223,105.266 C311.565,104.617,310.11,101.556,308.993,98.4657 C307.88,95.3751,306.378,91.7703,305.66,90.4472 C303.406,86.2882,300.608,85.07,300.059,87.9958 C299.655,90.1577,303.631,100.982,306.444,105.366 C307.589,107.153,308.814,109.185,309.166,109.884 C310.246,112.041,308.58,111.432,305.589,108.571 C302.74,105.845,300.129,100.857,299.467,96.873 C298.862,93.2532,295.998,87.836,295.998,90.3174 C295.998,90.627,295.641,90.8766,295.205,90.8766 C294.209,90.8766,294.209,90.602,295.2,88.9943 C295.909,87.841,295.881,87.3867,294.89,84.391 C294.285,82.5636,293.416,80.3019,292.961,79.3632 C292.505,78.4246,291.989,77.0915,291.815,76.4025 C291.501,75.1593,291.458,75.1693,288.139,77.2413 L284.783,79.3333 L285.149,81.8696 C285.351,83.2626,285.562,84.8253,285.623,85.3396 C285.801,86.8424,286.778,87.7661,289.89,89.3888 C291.496,90.2226,292.773,91.0913,292.721,91.316 C292.674,91.5407,292.904,92.3595,293.233,93.1334 C294.702,96.5834,297.054,102.869,297.054,103.344 C297.054,104.118,295.688,103.209,291.51,99.654 C289.477,97.9265,287.632,96.5085,287.407,96.5085 C287.182,96.5085,286.994,97.1376,286.994,97.9015 C286.994,98.9051,286.773,99.1996,286.2,98.965 C283.285,97.7767,289.355,105.011,293.491,107.657 C295.083,108.676,298.744,110.404,301.622,111.497 C304.495,112.59,308.044,114.138,309.5,114.937 C310.955,115.731,312.978,116.54,313.997,116.729 C315.814,117.074,315.856,117.144,316.119,120.224 C316.359,123.08,317.091,124.843,318.485,125.901 C319.297,126.52,319.368,126.076,318.739,124.323 Z M366.68,111.717 C366.501,111.402,366.131,111.152,365.858,111.152 C365.581,111.152,365.356,111.402,365.356,111.717 C365.356,112.026,365.732,112.276,366.182,112.276 C366.638,112.276,366.863,112.026,366.68,111.717 Z M276.332,105.995 C276.896,104.382,276.497,102.39,275.422,101.426 C274.013,100.158,269.009,98.1162,267.774,98.3059 C267.098,98.4108,266.432,99.0948,266.136,99.9885 C265.699,101.312,265.854,101.686,267.408,103.084 C269.154,104.652,273.905,107.143,275.234,107.188 C275.605,107.198,276.102,106.664,276.332,105.995 Z M284.196,97.0128 C284.609,96.5734,284.623,95.8994,284.243,94.746 C283.858,93.5628,283.881,92.8837,284.341,92.2946 C284.848,91.6455,284.651,90.8716,283.337,88.4301 C282.431,86.7526,281.356,85.08,280.938,84.7105 C279.919,83.8118,278.337,84.7355,277.112,86.9423 C276.6,87.871,276.051,88.6299,275.896,88.6349 C275.741,88.6398,275.286,88.8645,274.886,89.1341 C273.788,89.8731,277.121,96.2788,278.98,97.0028 C280.914,97.7567,283.492,97.7617,284.196,97.0128 Z M320.884,94.7061 C320.884,92.8138,318.762,85.784,317.185,82.4338 C316.382,80.7312,315.321,77.1814,314.833,74.5501 C313.908,69.5773,313.152,68.3541,311.002,68.3541 C309.547,68.3541,308.706,69.8619,308.706,72.4731 C308.706,76.2627,309.326,78.0201,311.035,79.0986 C312.739,80.1671,317.377,88.7597,318.762,93.413 C319.133,94.6512,319.537,95.8594,319.664,96.0991 C320.072,96.853,320.884,95.9243,320.884,94.7061 Z M305.528,81.4103 C305.528,80.5365,305.176,78.5594,304.744,77.0216 C304.11,74.7449,303.495,73.8711,301.463,72.3483 L298.965,70.471 L297.698,72.0388 C296.608,73.3868,296.482,73.961,296.787,76.1878 C297.266,79.7077,298.2,81.0458,300.871,82.0493 C304.505,83.4174,305.528,83.2776,305.528,81.4103 Z M333.597,78.6293 C334.818,77.1614,336.156,75.2591,336.569,74.4103 C337.32,72.8626,337.32,72.8576,335.494,72.8576 C334.489,72.8576,333.283,73.267,332.818,73.7613 C331.057,75.6336,329.611,81.3054,330.898,81.3054 C331.165,81.3054,332.381,80.1021,333.597,78.6293 Z M360.633,242.683 C360.61,242.089,360.737,241.759,360.915,241.944 C361.089,242.134,361.107,242.618,360.953,243.028 C360.784,243.472,360.661,243.342,360.633,242.683 Z"/>
	</g>
</svg>
